<svg width="195" height="56" viewBox="0 0 195 56" fill="none" xmlns="http://www.w3.org/2000/svg">
<g clip-path="url(#clip0_3248_14911)">
<path d="M124.14 65.8503L123.91 65.7403L123.24 65.4103C122.65 65.1203 121.77 64.6703 120.63 64.0603C119.49 63.4503 118.08 62.6902 116.4 61.8202C114.72 60.9502 112.77 59.9702 110.51 59.0102C109.37 58.5302 108.16 58.0602 106.85 57.6402C105.48 57.1903 104.075 56.8558 102.65 56.6402C102.28 56.5802 101.9 56.5602 101.51 56.5102H100.93C100.733 56.5002 100.536 56.5002 100.34 56.5102H99.7397L99.1398 56.5702C98.9348 56.5821 98.7309 56.6089 98.5298 56.6502C98.3298 56.6502 98.1198 56.7102 97.9198 56.7702L97.3098 56.9303L96.7098 57.1402C96.5098 57.2102 96.3198 57.3002 96.1298 57.3802C95.9316 57.4668 95.738 57.5637 95.5498 57.6703C94.7206 58.0513 94.004 58.6404 93.4697 59.3802C93.1834 59.8131 93.0693 60.3375 93.1498 60.8503C93.2504 61.3598 93.5135 61.823 93.8998 62.1703C94.6431 62.8116 95.5441 63.2431 96.5098 63.4203C97.4967 63.6263 98.5122 63.6567 99.5098 63.5102C100.008 63.4396 100.499 63.3293 100.98 63.1803L101.7 62.9203C101.93 62.8303 102.17 62.7203 102.4 62.6103C102.876 62.3796 103.325 62.0979 103.74 61.7702C104.174 61.4185 104.537 60.9876 104.81 60.5003C105.077 59.9873 105.221 59.4188 105.23 58.8402C105.238 58.2729 105.151 57.7081 104.97 57.1703C104.802 56.6408 104.578 56.1311 104.3 55.6502C104.027 55.1709 103.723 54.7099 103.39 54.2702C102.718 53.3879 101.979 52.5588 101.18 51.7903C99.5299 50.2021 97.6969 48.8157 95.7197 47.6603C93.6567 46.4615 91.4752 45.4796 89.2098 44.7303C86.8397 43.9344 84.3752 43.4536 81.8798 43.3003C79.2513 43.1022 76.6116 43.4881 74.1498 44.4303C72.8765 44.9455 71.6921 45.6575 70.6398 46.5403L70.2397 46.8703L69.8698 47.2403L69.4998 47.6003L69.1498 48.0102C68.6604 48.5674 68.2682 49.2029 67.9897 49.8902C67.6957 50.6405 67.6195 51.4586 67.7698 52.2503C67.948 53.0288 68.3233 53.7485 68.8597 54.3402C69.3585 54.8951 69.9305 55.3795 70.5598 55.7803C71.1689 56.1698 71.8114 56.5045 72.4797 56.7803C73.8008 57.3507 75.1784 57.7798 76.5897 58.0603C78.0206 58.3539 79.4793 58.4913 80.9398 58.4703H81.5098H82.0398L83.1198 58.3703C83.8498 58.3103 84.5598 58.2003 85.2798 58.1003L86.3597 57.9402L87.4398 57.7403C88.1598 57.6003 88.8797 57.4703 89.5897 57.2903C95.4374 55.9 101.12 53.8885 106.54 51.2903C109.32 50.0036 112.07 48.5969 114.79 47.0702L116.79 45.9103L118.79 44.7102L122.79 42.2403C128.16 38.9103 133.57 35.4503 139.21 32.2403C144.868 28.9157 150.808 26.0948 156.96 23.8103L158.55 23.2602C159.08 23.0702 159.55 22.9202 160.14 22.7602C161.2 22.4502 162.28 22.1902 163.37 21.9502C165.529 21.4729 167.712 21.1124 169.91 20.8703C172.084 20.6294 174.273 20.5325 176.46 20.5802C178.598 20.6211 180.726 20.8825 182.81 21.3603C184.828 21.7994 186.738 22.6356 188.43 23.8202C190.043 24.9813 191.253 26.6177 191.89 28.5003C192.216 29.44 192.417 30.4182 192.49 31.4103C192.581 32.4309 192.608 33.4563 192.57 34.4803V35.2503L192.49 36.0003C192.49 36.5003 192.35 37.0003 192.27 37.4903C192.081 38.4649 191.8 39.4192 191.43 40.3402L191.3 40.6803C191.25 40.8003 191.19 40.9002 191.14 41.0102L190.82 41.6803C190.57 42.1003 190.35 42.5303 190.06 42.9303C189.79 43.3349 189.5 43.7254 189.19 44.1003C189.03 44.2903 188.86 44.4602 188.7 44.6402L188.45 44.9103L188.19 45.1603C186.773 46.5099 185.145 47.618 183.37 48.4402C181.591 49.2574 179.735 49.894 177.83 50.3402C175.937 50.7966 174.016 51.1306 172.08 51.3402C168.274 51.7059 164.446 51.7727 160.63 51.5403C156.88 51.3403 153.2 50.9302 149.63 50.4002C146.06 49.8702 142.56 49.2102 139.17 48.4602C135.78 47.7102 132.51 46.8902 129.34 45.9602C127.77 45.5102 126.22 44.9603 124.69 44.4803L120.17 43.0102C118.69 42.5102 117.24 42.0103 115.81 41.4903C114.38 40.9703 112.97 40.4902 111.59 40.0102C100.59 36.0102 91.1098 32.1602 83.4398 29.0102L77.4398 26.3902L70.7998 23.5003L63.5598 20.3402C61.0498 19.2402 58.4298 18.1202 55.6998 17.0202C52.9698 15.9202 50.1198 14.8403 47.1298 13.8703C44.0546 12.8412 40.9227 11.9897 37.7498 11.3202C34.3914 10.5959 30.9739 10.1809 27.5398 10.0802C25.754 10.0327 23.9671 10.0995 22.1898 10.2803C20.366 10.4613 18.5578 10.7754 16.7798 11.2203C13.0364 12.0773 9.54206 13.7886 6.56982 16.2203C5.02054 17.4827 3.67184 18.973 2.56982 20.6402L2.15979 21.2803L1.78979 21.9402L1.60974 22.2803L1.44983 22.6203C1.33983 22.8603 1.22976 23.0902 1.12976 23.3202C0.949758 23.8002 0.749739 24.3202 0.609739 24.7702C0.539739 25.0202 0.449778 25.2702 0.399778 25.5202L0.229734 26.2803C-0.170737 28.361 -0.0678287 30.5073 0.529783 32.5403C1.15422 34.5869 2.21528 36.4736 3.63977 38.0702C3.72977 38.1702 3.80978 38.2803 3.89978 38.3703L4.17981 38.6603L4.72973 39.2303C5.11973 39.6003 5.5198 39.9503 5.9198 40.3003C6.3198 40.6503 6.74981 40.9603 7.17981 41.3003L8.48974 42.2002C10.2974 43.3365 12.2095 44.2975 14.1998 45.0702C18.2392 46.5938 22.4625 47.5758 26.7598 47.9903C28.9198 48.2403 31.0998 48.3502 33.2898 48.4002C34.3898 48.4002 35.4897 48.4002 36.5897 48.4002C37.6897 48.4002 38.7898 48.3403 39.8998 48.2803C44.3601 48.036 48.8037 47.5453 53.2098 46.8103C57.6498 46.0803 62.0998 45.1303 66.5298 43.9703L76.1798 41.3402C77.7698 40.9002 79.3698 40.4802 80.9498 40.0202L85.6698 38.6402L90.3497 37.2602C91.8997 36.8002 93.4597 36.3603 94.9897 35.8603L104.11 32.9903L106.37 32.2803L108.6 31.5303L113.03 30.0303L117.42 28.5503L119.6 27.8103C120.32 27.5503 121.05 27.3003 121.76 27.0303C127.48 24.9303 132.99 22.7203 138.52 21.1203C143.833 19.4221 149.409 18.6971 154.98 18.9803C157.635 19.1498 160.265 19.5922 162.83 20.3003C164.071 20.6386 165.279 21.087 166.44 21.6402C167.56 22.1499 168.598 22.824 169.52 23.6402C170.418 24.4168 171.106 25.4073 171.52 26.5202C171.865 27.6266 171.937 28.8 171.73 29.9402C171.518 31.0963 171.137 32.2149 170.6 33.2602C170.08 34.3025 169.406 35.26 168.6 36.1003C167.824 36.9322 166.939 37.6554 165.97 38.2503C165.018 38.8241 164.013 39.3062 162.97 39.6902C160.881 40.3992 158.71 40.8394 156.51 41.0003C154.392 41.1449 152.267 41.1449 150.15 41.0003C148.09 40.8903 146.07 40.6602 144.15 40.3902C142.23 40.1202 140.32 39.7902 138.49 39.4502C136.66 39.1102 134.9 38.7302 133.21 38.3202C127.399 37.0276 121.803 34.913 116.59 32.0403C113.289 30.2251 110.382 27.7707 108.04 24.8202C107.94 24.6902 107.85 24.5602 107.75 24.4402L107.5 24.0802C107.35 23.8402 107.19 23.6303 107.06 23.4203C106.81 23.0003 106.59 22.6503 106.43 22.3603L105.97 21.4703L106.41 22.3703C106.56 22.6703 106.78 23.0202 107.02 23.4502L107.45 24.1203L107.69 24.4903C107.78 24.6103 107.88 24.7303 107.97 24.8703C110.271 27.8855 113.15 30.4115 116.44 32.3003C121.639 35.2874 127.239 37.5134 133.07 38.9103C134.763 39.3503 136.526 39.7536 138.36 40.1203C140.18 40.4903 142.08 40.8503 144.04 41.1203C146 41.3903 148.04 41.6802 150.13 41.8302C152.287 41.9855 154.453 41.9855 156.61 41.8302C158.898 41.6975 161.16 41.2707 163.34 40.5603C164.473 40.1697 165.566 39.6673 166.6 39.0603C167.663 38.4243 168.638 37.6509 169.5 36.7602C170.379 35.8503 171.114 34.8117 171.68 33.6803C172.285 32.5365 172.72 31.3101 172.97 30.0403C173.254 28.6886 173.174 27.2857 172.738 25.975C172.303 24.6643 171.527 23.4928 170.49 22.5802C169.48 21.6567 168.342 20.8853 167.11 20.2903C165.883 19.6979 164.608 19.2095 163.3 18.8302C160.646 18.0726 157.922 17.5868 155.17 17.3802C153.763 17.2684 152.351 17.2317 150.94 17.2702C150.23 17.2702 149.51 17.3302 148.8 17.3902C148.09 17.4502 147.38 17.5302 146.66 17.6302C143.786 18.024 140.945 18.629 138.16 19.4402C132.51 21.0202 126.95 23.2202 121.25 25.2702C120.54 25.5302 119.83 25.7702 119.11 26.0202L116.93 26.7503L112.55 28.2102L108.12 29.6803L105.89 30.4203L103.64 31.1203L94.5198 33.9502C92.9998 34.4402 91.4498 34.8802 89.8998 35.3302L85.2197 36.6902L80.5098 38.0603C78.9398 38.5203 77.3398 38.9303 75.7498 39.3703L66.1298 41.9903C61.7498 43.1303 57.3597 44.0803 52.9797 44.8003C48.6427 45.5274 44.2697 46.0215 39.8798 46.2803C38.7898 46.3403 37.7098 46.3703 36.6298 46.4103C35.5498 46.4503 34.4798 46.4103 33.4098 46.4103C31.2598 46.4103 29.1298 46.2703 27.0298 46.0403C22.8866 45.6595 18.8116 44.7349 14.9098 43.2903C13.0243 42.5733 11.2125 41.6758 9.49975 40.6103L8.25976 39.7702C7.85976 39.4802 7.47983 39.1802 7.07983 38.8802C6.67983 38.5802 6.33974 38.2402 5.98974 37.8802L5.47973 37.3703L5.21972 37.1103L4.98974 36.8302C3.71044 35.4226 2.75179 33.7543 2.17981 31.9402C1.64168 30.1606 1.53875 28.2779 1.87976 26.4502L2.01977 25.7702C2.01977 25.5402 2.14984 25.3203 2.20984 25.1003C2.31984 24.6503 2.50979 24.2303 2.65979 23.7903C2.74979 23.5803 2.84983 23.3703 2.94983 23.1603L3.08972 22.8503C3.13972 22.7503 3.19975 22.6503 3.24975 22.5403L3.57983 21.9402L3.94983 21.3503C4.94629 19.8055 6.17006 18.42 7.57983 17.2403C7.91983 16.9303 8.29978 16.6602 8.64978 16.3802C8.99978 16.1002 9.39977 15.8603 9.76977 15.6003C10.1398 15.3403 10.5398 15.1202 10.9298 14.9002L11.5298 14.5702L12.1298 14.2602C12.5398 14.0802 12.9397 13.8702 13.3597 13.7002C13.7797 13.5302 14.1797 13.3603 14.6097 13.2203L15.2397 13.0003C15.4497 12.9203 15.6698 12.8703 15.8798 12.8003C16.3098 12.6803 16.7398 12.5303 17.1698 12.4303C18.8798 11.9706 20.6211 11.6364 22.3798 11.4303C24.1026 11.2363 25.8364 11.1561 27.5698 11.1902C30.9293 11.2499 34.2764 11.6148 37.5698 12.2803C40.7094 12.904 43.8109 13.7053 46.8597 14.6803C49.8597 15.6103 52.6798 16.6803 55.4098 17.6803C58.1398 18.6803 60.7698 19.8203 63.2898 20.8703L70.5798 23.9303L77.2698 26.7203C79.3998 27.6003 81.4197 28.4503 83.3497 29.2303C90.9597 32.5103 100.35 36.5003 111.35 40.6703C112.72 41.1903 114.13 41.6703 115.56 42.2203C116.99 42.7703 118.43 43.2803 119.91 43.8003L124.43 45.3302C125.95 45.8502 127.49 46.4002 129.09 46.8802C132.27 47.8536 135.563 48.7302 138.97 49.5102C142.37 50.3002 145.88 51.0002 149.5 51.5702C153.12 52.1402 156.83 52.5702 160.64 52.8402C164.533 53.1078 168.442 53.071 172.33 52.7303C174.349 52.5461 176.353 52.2288 178.33 51.7803C180.353 51.3147 182.323 50.6446 184.21 49.7803C186.158 48.8892 187.948 47.6868 189.51 46.2203L189.8 45.9402C189.898 45.8451 189.992 45.745 190.08 45.6402L190.63 45.0403C190.97 44.6103 191.32 44.1903 191.63 43.7303C191.94 43.2703 192.21 42.7902 192.5 42.3202L192.86 41.5802L193.04 41.2002L193.19 40.8202C193.627 39.7993 193.962 38.7374 194.19 37.6502C194.28 37.1102 194.4 36.5702 194.44 36.0202L194.53 35.2002V34.3703C194.571 33.2732 194.548 32.1746 194.46 31.0802C194.376 29.9392 194.148 28.8135 193.78 27.7303C193.599 27.177 193.375 26.6387 193.11 26.1203C192.834 25.6029 192.524 25.105 192.18 24.6302C191.832 24.1574 191.447 23.7128 191.03 23.3003C190.613 22.8906 190.168 22.5098 189.7 22.1603C189.23 21.7988 188.739 21.4649 188.23 21.1603C187.726 20.8777 187.209 20.6207 186.68 20.3902C185.626 19.9408 184.535 19.5829 183.42 19.3202C181.209 18.8032 178.95 18.5184 176.68 18.4703C174.409 18.4169 172.138 18.5137 169.88 18.7602C167.611 19.0033 165.358 19.3705 163.13 19.8603C162.01 20.1103 160.89 20.3802 159.78 20.7002C159.23 20.8602 158.66 21.0303 158.12 21.2203L156.49 21.7903C150.246 24.1074 144.222 26.9789 138.49 30.3703C132.8 33.6303 127.38 37.1202 122.03 40.4602C120.7 41.3002 119.36 42.1202 118.03 42.9402L116.03 44.1302L114.03 45.2903C111.363 46.8103 108.66 48.2136 105.92 49.5003C100.62 52.078 95.0621 54.0891 89.3397 55.5003C88.6497 55.6803 87.9498 55.8102 87.2498 55.9502L86.2498 56.1502L85.1998 56.3103C84.4998 56.4203 83.8097 56.5402 83.1097 56.5902L82.1097 56.7002L81.5897 56.7503H81.0897C79.7479 56.7724 78.4073 56.655 77.0897 56.4002C75.7791 56.1538 74.4986 55.7683 73.2698 55.2503C72.675 55.0039 72.1029 54.7061 71.5598 54.3603C71.0339 54.0388 70.5559 53.6449 70.1398 53.1902C69.7611 52.7847 69.4926 52.289 69.3597 51.7503C69.2472 51.2215 69.296 50.671 69.4998 50.1703C69.7143 49.6215 70.0222 49.1141 70.4098 48.6703L70.6998 48.3202L71.0298 47.9903L71.3597 47.6502L71.7098 47.3503C72.6499 46.5504 73.7093 45.9025 74.8497 45.4303C77.1296 44.5256 79.5823 44.1396 82.0298 44.3003C84.4096 44.4281 86.7627 44.8651 89.0298 45.6003C91.2345 46.2941 93.3597 47.2193 95.3698 48.3603C97.2934 49.4457 99.0796 50.7584 100.69 52.2702C101.466 52.9936 102.184 53.776 102.84 54.6103C103.154 55.0145 103.441 55.4387 103.7 55.8802C103.955 56.3063 104.163 56.759 104.32 57.2303C104.48 57.6726 104.562 58.1397 104.56 58.6103C104.559 59.0619 104.453 59.5071 104.25 59.9103C103.78 60.6982 103.083 61.3256 102.25 61.7102L101.6 62.0003C101.38 62.0903 101.16 62.1803 100.94 62.2503C100.5 62.399 100.048 62.5094 99.5897 62.5802C98.6964 62.7356 97.7831 62.7356 96.8898 62.5802C96.046 62.4533 95.2499 62.1086 94.5798 61.5802C94.2818 61.3197 94.0779 60.9683 93.9998 60.5802C93.9481 60.2312 94.0264 59.8754 94.2197 59.5802C94.4408 59.2454 94.7143 58.9482 95.0298 58.7002C95.3455 58.4547 95.6799 58.2341 96.0298 58.0403L96.5798 57.7602C96.7598 57.6802 96.9398 57.5902 97.1298 57.5202C97.3198 57.4502 97.4998 57.3703 97.6898 57.3103L98.2598 57.1502C98.4498 57.1502 98.6497 57.0802 98.8397 57.0303C99.0297 56.9803 99.2198 56.9602 99.4198 56.9402L99.9897 56.8802H100.57H101.7C102.08 56.8802 102.45 56.8803 102.82 56.9903C104.222 57.1766 105.607 57.4776 106.96 57.8902C108.26 58.2802 109.48 58.7303 110.61 59.1803C112.89 60.1003 114.85 61.0403 116.55 61.8703C118.25 62.7003 119.66 63.4502 120.81 64.0303C121.96 64.6103 122.81 65.0302 123.45 65.3302L124.13 65.6402L124.14 65.8503Z" fill="white"/>
</g>
<defs>
<clipPath id="clip0_3248_14911">
<rect width="194.43" height="55.85" fill="white"/>
</clipPath>
</defs>
</svg>
