<svg width="195" height="56" viewBox="0 0 195 56" fill="none" xmlns="http://www.w3.org/2000/svg">
<g clip-path="url(#clip0_3248_15813)">
<path d="M124.14 55.8503L123.91 55.7403L123.24 55.4103C122.65 55.1203 121.77 54.6703 120.63 54.0603C119.49 53.4503 118.08 52.6902 116.4 51.8202C114.72 50.9502 112.77 49.9702 110.51 49.0102C109.37 48.5302 108.16 48.0602 106.85 47.6402C105.48 47.1903 104.075 46.8558 102.65 46.6402C102.28 46.5802 101.9 46.5602 101.51 46.5102H100.93C100.733 46.5002 100.536 46.5002 100.34 46.5102H99.7397L99.1398 46.5702C98.9348 46.5821 98.7309 46.6089 98.5298 46.6502C98.3298 46.6502 98.1198 46.7102 97.9198 46.7702L97.3098 46.9303L96.7098 47.1402C96.5098 47.2102 96.3198 47.3002 96.1298 47.3802C95.9316 47.4668 95.738 47.5637 95.5498 47.6703C94.7206 48.0513 94.004 48.6404 93.4697 49.3802C93.1834 49.8131 93.0693 50.3375 93.1498 50.8503C93.2504 51.3598 93.5135 51.823 93.8998 52.1703C94.6431 52.8116 95.5441 53.2431 96.5098 53.4203C97.4967 53.6263 98.5122 53.6567 99.5098 53.5102C100.008 53.4396 100.499 53.3293 100.98 53.1803L101.7 52.9203C101.93 52.8303 102.17 52.7203 102.4 52.6103C102.876 52.3796 103.325 52.0979 103.74 51.7702C104.174 51.4185 104.537 50.9876 104.81 50.5003C105.077 49.9873 105.221 49.4188 105.23 48.8402C105.238 48.2729 105.151 47.7081 104.97 47.1703C104.802 46.6408 104.578 46.1311 104.3 45.6502C104.027 45.1709 103.723 44.7099 103.39 44.2702C102.718 43.3879 101.979 42.5588 101.18 41.7903C99.5299 40.2021 97.6969 38.8157 95.7197 37.6603C93.6567 36.4615 91.4752 35.4796 89.2098 34.7303C86.8397 33.9344 84.3752 33.4536 81.8798 33.3003C79.2513 33.1022 76.6116 33.4881 74.1498 34.4303C72.8765 34.9455 71.6921 35.6575 70.6398 36.5403L70.2397 36.8703L69.8698 37.2403L69.4998 37.6003L69.1498 38.0102C68.6604 38.5674 68.2682 39.2029 67.9897 39.8902C67.6957 40.6405 67.6195 41.4586 67.7698 42.2503C67.948 43.0288 68.3233 43.7485 68.8597 44.3402C69.3585 44.8951 69.9305 45.3795 70.5598 45.7803C71.1689 46.1698 71.8114 46.5045 72.4797 46.7803C73.8008 47.3507 75.1784 47.7798 76.5897 48.0603C78.0206 48.3539 79.4793 48.4913 80.9398 48.4703H81.5098H82.0398L83.1198 48.3703C83.8498 48.3103 84.5598 48.2003 85.2798 48.1003L86.3597 47.9402L87.4398 47.7403C88.1598 47.6003 88.8797 47.4703 89.5897 47.2903C95.4374 45.9 101.12 43.8885 106.54 41.2903C109.32 40.0036 112.07 38.5969 114.79 37.0702L116.79 35.9103L118.79 34.7102L122.79 32.2403C128.16 28.9103 133.57 25.4503 139.21 22.2403C144.868 18.9157 150.808 16.0948 156.96 13.8103L158.55 13.2602C159.08 13.0702 159.55 12.9202 160.14 12.7602C161.2 12.4502 162.28 12.1902 163.37 11.9502C165.529 11.4729 167.712 11.1124 169.91 10.8703C172.084 10.6294 174.273 10.5325 176.46 10.5802C178.598 10.6211 180.726 10.8825 182.81 11.3603C184.828 11.7994 186.738 12.6356 188.43 13.8202C190.043 14.9813 191.253 16.6177 191.89 18.5003C192.216 19.44 192.417 20.4182 192.49 21.4103C192.581 22.4309 192.608 23.4563 192.57 24.4803V25.2503L192.49 26.0003C192.49 26.5003 192.35 27.0003 192.27 27.4903C192.081 28.4649 191.8 29.4192 191.43 30.3402L191.3 30.6803C191.25 30.8003 191.19 30.9002 191.14 31.0102L190.82 31.6803C190.57 32.1003 190.35 32.5303 190.06 32.9303C189.79 33.3349 189.5 33.7254 189.19 34.1003C189.03 34.2903 188.86 34.4602 188.7 34.6402L188.45 34.9103L188.19 35.1603C186.773 36.5099 185.145 37.618 183.37 38.4402C181.591 39.2574 179.735 39.894 177.83 40.3402C175.937 40.7966 174.016 41.1306 172.08 41.3402C168.274 41.7059 164.446 41.7727 160.63 41.5403C156.88 41.3403 153.2 40.9302 149.63 40.4002C146.06 39.8702 142.56 39.2102 139.17 38.4602C135.78 37.7102 132.51 36.8902 129.34 35.9602C127.77 35.5102 126.22 34.9603 124.69 34.4803L120.17 33.0102C118.69 32.5102 117.24 32.0103 115.81 31.4903C114.38 30.9703 112.97 30.4902 111.59 30.0102C100.59 26.0102 91.1098 22.1602 83.4398 19.0102L77.4398 16.3902L70.7998 13.5003L63.5598 10.3402C61.0498 9.24025 58.4298 8.12024 55.6998 7.02024C52.9698 5.92024 50.1198 4.84028 47.1298 3.87028C44.0546 2.84116 40.9227 1.98971 37.7498 1.32023C34.3914 0.595914 30.9739 0.180855 27.5398 0.0802386C25.754 0.0327341 23.9671 0.0995494 22.1898 0.280251C20.366 0.461276 18.5578 0.77545 16.7798 1.22025C13.0364 2.0773 9.54206 3.78856 6.56982 6.22025C5.02054 7.48272 3.67184 8.97301 2.56982 10.6402L2.15979 11.2803L1.78979 11.9402L1.60974 12.2803L1.44983 12.6203C1.33983 12.8603 1.22976 13.0902 1.12976 13.3202C0.949758 13.8002 0.749739 14.3202 0.609739 14.7702C0.539739 15.0202 0.449778 15.2702 0.399778 15.5202L0.229734 16.2803C-0.170737 18.361 -0.0678287 20.5073 0.529783 22.5403C1.15422 24.5869 2.21528 26.4736 3.63977 28.0702C3.72977 28.1702 3.80978 28.2803 3.89978 28.3703L4.17981 28.6603L4.72973 29.2303C5.11973 29.6003 5.5198 29.9503 5.9198 30.3003C6.3198 30.6503 6.74981 30.9603 7.17981 31.3003L8.48974 32.2002C10.2974 33.3365 12.2095 34.2975 14.1998 35.0702C18.2392 36.5938 22.4625 37.5758 26.7598 37.9903C28.9198 38.2403 31.0998 38.3502 33.2898 38.4002C34.3898 38.4002 35.4897 38.4002 36.5897 38.4002C37.6897 38.4002 38.7898 38.3403 39.8998 38.2803C44.3601 38.036 48.8037 37.5453 53.2098 36.8103C57.6498 36.0803 62.0998 35.1303 66.5298 33.9703L76.1798 31.3402C77.7698 30.9002 79.3698 30.4802 80.9498 30.0202L85.6698 28.6402L90.3497 27.2602C91.8997 26.8002 93.4597 26.3603 94.9897 25.8603L104.11 22.9903L106.37 22.2803L108.6 21.5303L113.03 20.0303L117.42 18.5503L119.6 17.8103C120.32 17.5503 121.05 17.3003 121.76 17.0303C127.48 14.9303 132.99 12.7203 138.52 11.1203C143.833 9.42211 149.409 8.69714 154.98 8.98026C157.635 9.14983 160.265 9.59217 162.83 10.3003C164.071 10.6386 165.279 11.087 166.44 11.6402C167.56 12.1499 168.598 12.824 169.52 13.6402C170.418 14.4168 171.106 15.4073 171.52 16.5202C171.865 17.6266 171.937 18.8 171.73 19.9402C171.518 21.0963 171.137 22.2149 170.6 23.2602C170.08 24.3025 169.406 25.26 168.6 26.1003C167.824 26.9322 166.939 27.6554 165.97 28.2503C165.018 28.8241 164.013 29.3062 162.97 29.6902C160.881 30.3992 158.71 30.8394 156.51 31.0003C154.392 31.1449 152.267 31.1449 150.15 31.0003C148.09 30.8903 146.07 30.6602 144.15 30.3902C142.23 30.1202 140.32 29.7902 138.49 29.4502C136.66 29.1102 134.9 28.7302 133.21 28.3202C127.399 27.0276 121.803 24.913 116.59 22.0403C113.289 20.2251 110.382 17.7707 108.04 14.8202C107.94 14.6902 107.85 14.5602 107.75 14.4402L107.5 14.0802C107.35 13.8402 107.19 13.6303 107.06 13.4203C106.81 13.0003 106.59 12.6503 106.43 12.3603L105.97 11.4703L106.41 12.3703C106.56 12.6703 106.78 13.0202 107.02 13.4502L107.45 14.1203L107.69 14.4903C107.78 14.6103 107.88 14.7303 107.97 14.8703C110.271 17.8855 113.15 20.4115 116.44 22.3003C121.639 25.2874 127.239 27.5134 133.07 28.9103C134.763 29.3503 136.526 29.7536 138.36 30.1203C140.18 30.4903 142.08 30.8503 144.04 31.1203C146 31.3903 148.04 31.6802 150.13 31.8302C152.287 31.9855 154.453 31.9855 156.61 31.8302C158.898 31.6975 161.16 31.2707 163.34 30.5603C164.473 30.1697 165.566 29.6673 166.6 29.0603C167.663 28.4243 168.638 27.6509 169.5 26.7602C170.379 25.8503 171.114 24.8117 171.68 23.6803C172.285 22.5365 172.72 21.3101 172.97 20.0403C173.254 18.6886 173.174 17.2857 172.738 15.975C172.303 14.6643 171.527 13.4928 170.49 12.5802C169.48 11.6567 168.342 10.8853 167.11 10.2903C165.883 9.69786 164.608 9.20946 163.3 8.83024C160.646 8.07264 157.922 7.5868 155.17 7.38023C153.763 7.26837 152.351 7.23167 150.94 7.27024C150.23 7.27024 149.51 7.33024 148.8 7.39024C148.09 7.45024 147.38 7.53023 146.66 7.63023C143.786 8.024 140.945 8.62897 138.16 9.44022C132.51 11.0202 126.95 13.2202 121.25 15.2702C120.54 15.5302 119.83 15.7702 119.11 16.0202L116.93 16.7503L112.55 18.2102L108.12 19.6803L105.89 20.4203L103.64 21.1203L94.5198 23.9502C92.9998 24.4402 91.4498 24.8802 89.8998 25.3302L85.2197 26.6902L80.5098 28.0603C78.9398 28.5203 77.3398 28.9303 75.7498 29.3703L66.1298 31.9903C61.7498 33.1303 57.3597 34.0803 52.9797 34.8003C48.6427 35.5274 44.2697 36.0215 39.8798 36.2803C38.7898 36.3403 37.7098 36.3703 36.6298 36.4103C35.5498 36.4503 34.4798 36.4103 33.4098 36.4103C31.2598 36.4103 29.1298 36.2703 27.0298 36.0403C22.8866 35.6595 18.8116 34.7349 14.9098 33.2903C13.0243 32.5733 11.2125 31.6758 9.49975 30.6103L8.25976 29.7702C7.85976 29.4802 7.47983 29.1802 7.07983 28.8802C6.67983 28.5802 6.33974 28.2402 5.98974 27.8802L5.47973 27.3703L5.21972 27.1103L4.98974 26.8302C3.71044 25.4226 2.75179 23.7543 2.17981 21.9402C1.64168 20.1606 1.53875 18.2779 1.87976 16.4502L2.01977 15.7702C2.01977 15.5402 2.14984 15.3203 2.20984 15.1003C2.31984 14.6503 2.50979 14.2303 2.65979 13.7903C2.74979 13.5803 2.84983 13.3703 2.94983 13.1603L3.08972 12.8503C3.13972 12.7503 3.19975 12.6503 3.24975 12.5403L3.57983 11.9402L3.94983 11.3503C4.94629 9.80553 6.17006 8.41996 7.57983 7.24027C7.91983 6.93027 8.29978 6.66023 8.64978 6.38023C8.99978 6.10023 9.39977 5.86026 9.76977 5.60026C10.1398 5.34026 10.5398 5.12025 10.9298 4.90025L11.5298 4.57023L12.1298 4.26023C12.5398 4.08023 12.9397 3.87023 13.3597 3.70023C13.7797 3.53023 14.1797 3.36025 14.6097 3.22025L15.2397 3.00028C15.4497 2.92028 15.6698 2.87027 15.8798 2.80027C16.3098 2.68027 16.7398 2.53028 17.1698 2.43028C18.8798 1.97059 20.6211 1.63637 22.3798 1.43028C24.1026 1.23629 25.8364 1.15606 27.5698 1.19022C30.9293 1.24994 34.2764 1.6148 37.5698 2.28025C40.7094 2.90401 43.8109 3.70532 46.8597 4.68028C49.8597 5.61028 52.6798 6.68028 55.4098 7.68028C58.1398 8.68028 60.7698 9.82028 63.2898 10.8703L70.5798 13.9303L77.2698 16.7203C79.3998 17.6003 81.4197 18.4503 83.3497 19.2303C90.9597 22.5103 100.35 26.5003 111.35 30.6703C112.72 31.1903 114.13 31.6703 115.56 32.2203C116.99 32.7703 118.43 33.2803 119.91 33.8003L124.43 35.3302C125.95 35.8502 127.49 36.4002 129.09 36.8802C132.27 37.8536 135.563 38.7302 138.97 39.5102C142.37 40.3002 145.88 41.0002 149.5 41.5702C153.12 42.1402 156.83 42.5702 160.64 42.8402C164.533 43.1078 168.442 43.071 172.33 42.7303C174.349 42.5461 176.353 42.2288 178.33 41.7803C180.353 41.3147 182.323 40.6446 184.21 39.7803C186.158 38.8892 187.948 37.6868 189.51 36.2203L189.8 35.9402C189.898 35.8451 189.992 35.745 190.08 35.6402L190.63 35.0403C190.97 34.6103 191.32 34.1903 191.63 33.7303C191.94 33.2703 192.21 32.7902 192.5 32.3202L192.86 31.5802L193.04 31.2002L193.19 30.8202C193.627 29.7993 193.962 28.7374 194.19 27.6502C194.28 27.1102 194.4 26.5702 194.44 26.0202L194.53 25.2002V24.3703C194.571 23.2732 194.548 22.1746 194.46 21.0802C194.376 19.9392 194.148 18.8135 193.78 17.7303C193.599 17.177 193.375 16.6387 193.11 16.1203C192.834 15.6029 192.524 15.105 192.18 14.6302C191.832 14.1574 191.447 13.7128 191.03 13.3003C190.613 12.8906 190.168 12.5098 189.7 12.1603C189.23 11.7988 188.739 11.4649 188.23 11.1603C187.726 10.8777 187.209 10.6207 186.68 10.3902C185.626 9.94084 184.535 9.58285 183.42 9.32023C181.209 8.80323 178.95 8.51838 176.68 8.47025C174.409 8.41687 172.138 8.51373 169.88 8.76023C167.611 9.00327 165.358 9.37052 163.13 9.86027C162.01 10.1103 160.89 10.3802 159.78 10.7002C159.23 10.8602 158.66 11.0303 158.12 11.2203L156.49 11.7903C150.246 14.1074 144.222 16.9789 138.49 20.3703C132.8 23.6303 127.38 27.1202 122.03 30.4602C120.7 31.3002 119.36 32.1202 118.03 32.9402L116.03 34.1302L114.03 35.2903C111.363 36.8103 108.66 38.2136 105.92 39.5003C100.62 42.078 95.0621 44.0891 89.3397 45.5003C88.6497 45.6803 87.9498 45.8102 87.2498 45.9502L86.2498 46.1502L85.1998 46.3103C84.4998 46.4203 83.8097 46.5402 83.1097 46.5902L82.1097 46.7002L81.5897 46.7503H81.0897C79.7479 46.7724 78.4073 46.655 77.0897 46.4002C75.7791 46.1538 74.4986 45.7683 73.2698 45.2503C72.675 45.0039 72.1028 44.7061 71.5598 44.3603C71.0339 44.0388 70.5559 43.6449 70.1398 43.1902C69.7611 42.7847 69.4926 42.289 69.3597 41.7503C69.2472 41.2215 69.2959 40.671 69.4998 40.1703C69.7143 39.6215 70.0222 39.1141 70.4098 38.6703L70.6998 38.3202L71.0298 37.9903L71.3597 37.6502L71.7098 37.3503C72.6499 36.5504 73.7093 35.9025 74.8497 35.4303C77.1296 34.5256 79.5823 34.1396 82.0298 34.3003C84.4096 34.4281 86.7627 34.8651 89.0298 35.6003C91.2345 36.2941 93.3597 37.2193 95.3698 38.3603C97.2934 39.4457 99.0796 40.7584 100.69 42.2702C101.466 42.9936 102.184 43.776 102.84 44.6103C103.154 45.0145 103.441 45.4387 103.7 45.8802C103.955 46.3063 104.163 46.759 104.32 47.2303C104.48 47.6726 104.562 48.1397 104.56 48.6103C104.559 49.0619 104.453 49.5071 104.25 49.9103C103.78 50.6982 103.083 51.3256 102.25 51.7102L101.6 52.0003C101.38 52.0903 101.16 52.1803 100.94 52.2503C100.5 52.399 100.048 52.5094 99.5897 52.5802C98.6964 52.7356 97.7831 52.7356 96.8898 52.5802C96.046 52.4533 95.2499 52.1086 94.5798 51.5802C94.2818 51.3197 94.0779 50.9683 93.9998 50.5802C93.9481 50.2312 94.0264 49.8754 94.2197 49.5802C94.4408 49.2454 94.7143 48.9482 95.0298 48.7002C95.3455 48.4547 95.6799 48.2341 96.0298 48.0403L96.5798 47.7602C96.7598 47.6802 96.9398 47.5902 97.1298 47.5202C97.3198 47.4502 97.4998 47.3703 97.6898 47.3103L98.2598 47.1502C98.4498 47.1502 98.6497 47.0803 98.8397 47.0303C99.0297 46.9803 99.2198 46.9602 99.4198 46.9402L99.9897 46.8802H100.57H101.7C102.08 46.8802 102.45 46.8803 102.82 46.9903C104.222 47.1766 105.607 47.4775 106.96 47.8902C108.26 48.2802 109.48 48.7303 110.61 49.1803C112.89 50.1003 114.85 51.0403 116.55 51.8703C118.25 52.7003 119.66 53.4503 120.81 54.0303C121.96 54.6103 122.81 55.0302 123.45 55.3302L124.13 55.6402L124.14 55.8503Z" fill="white"/>
</g>
<defs>
<clipPath id="clip0_3248_15813">
<rect width="194.43" height="55.85" fill="white"/>
</clipPath>
</defs>
</svg>
