<svg width="428" height="181" viewBox="0 0 428 181" fill="none" xmlns="http://www.w3.org/2000/svg">
<g clip-path="url(#clip0_3248_15123)">
<path d="M114.086 15.7484C111.624 15.7343 109.164 15.8781 106.721 16.1788C105.129 16.2152 103.543 16.3904 101.981 16.7024C100.758 16.9491 99.58 17.3838 98.4895 17.991C96.9434 18.5613 95.476 19.3257 94.1226 20.2659C92.1848 21.4735 90.8567 23.3606 89.0798 24.8046C88.2424 25.4944 87.4437 26.23 86.6874 27.0079C84.9034 28.5024 83.0156 29.9605 81.1543 31.3432C80.4496 31.9335 79.5534 32.6475 78.693 33.2893C78.8861 32.9439 79.0512 32.5836 79.1867 32.2119C79.7374 31.2707 80.1859 30.2734 80.5248 29.2369C80.691 28.4703 80.738 27.6827 80.6642 26.9018C80.6972 26.8074 80.6246 26.5913 80.65 26.7909C80.659 26.7336 80.6499 26.6749 80.6241 26.6229C80.5921 26.5205 80.5237 26.4334 80.432 26.3779C80.3402 26.3223 80.2313 26.3022 80.1258 26.3213C80.0538 26.3387 79.987 26.3733 79.9312 26.422C79.8754 26.4707 79.8322 26.5322 79.8053 26.6011C79.7161 26.6441 79.2512 27.276 78.9728 27.4963C77.9693 28.6162 77.0734 29.8279 76.2967 31.1154C75.5006 32.1764 74.5805 33.1383 73.556 33.9808C72.6664 34.487 71.71 34.8655 70.715 35.1052C69.7437 35.4823 68.7313 35.7431 67.6988 35.8823C66.4171 36.0202 65.2084 36.5473 64.2352 37.3927C63.1325 38.0509 62.1129 38.8394 61.1987 39.7413C60.4598 40.9546 60.0904 42.3569 60.1356 43.7767C60.1219 44.2699 60.079 44.8164 60.0912 45.2657C60.1082 45.0523 60.1399 44.8404 60.1861 44.6314C60.5869 42.1548 60.9575 40.2185 62.9236 39.2327C62.6909 39.3526 63.1435 39.119 63.1983 39.0534L63.4088 38.9364C63.5046 38.8746 63.5721 38.8028 63.6773 38.7443C63.396 38.9425 64.6533 38.196 64.3664 38.3498C65.0506 37.8048 65.8065 37.3565 66.6128 37.0172C67.5189 36.6987 68.5048 36.7578 69.4105 36.4709C70.8547 36.0598 72.2688 35.5494 73.6428 34.9435C74.8809 34.0942 75.9661 33.0411 76.8521 31.829C77.4284 31.1513 77.8102 30.3632 78.327 29.6436C78.7737 29.0168 79.2735 28.4297 79.8208 27.8886C79.7576 28.9632 79.4326 30.0061 78.8739 30.9263C78.1457 32.25 77.659 33.9126 76.4767 34.9291C76.4241 35.0099 76.3988 35.1055 76.4046 35.2017C76.4104 35.298 76.447 35.3899 76.5089 35.4638C76.5709 35.5377 76.6549 35.5898 76.7487 35.6123C76.8425 35.6348 76.941 35.6266 77.0298 35.5889C77.826 35.0094 78.6722 34.4686 79.4622 33.8764C81.8291 31.8973 84.3417 30.1069 86.7586 28.1665C87.6766 27.4813 88.014 26.9108 88.7635 26.2831C89.7687 25.4727 90.7268 24.6053 91.633 23.6854C92.9458 22.244 94.4763 21.0173 96.1689 20.0499C97.4696 19.361 98.8873 18.8825 100.185 18.203C102.337 17.2612 105.111 17.2363 107.575 17.0076C110.063 16.6961 112.574 16.6141 115.077 16.7626C119.432 17.2235 123.725 18.1509 127.882 19.5289C129.358 20.0156 130.798 20.6015 132.195 21.2824C131.276 21.2149 130.467 20.9213 129.548 20.8221C127.433 20.8533 125.337 21.2289 123.342 21.9341C119.797 22.9815 114.275 24.7141 110.089 26.0461C114.463 25.2223 118.788 24.1617 123.047 22.869C125.122 22.0635 127.283 21.4974 129.486 21.1817C130.293 21.1464 131.694 21.3825 132.195 21.2824C132.698 21.5114 133.197 21.7497 133.699 21.9786C134.61 22.4034 135.829 23.4021 136.973 24.0992C138.117 24.7963 138.636 25.6137 139.761 26.5161C141.39 27.7328 143.188 28.6801 144.876 29.8218C146.844 31.1891 149.231 31.6645 151.472 32.4381C154.779 34.1576 157.835 37.6854 160.25 41.1689C162.183 43.2513 164.287 45.168 166.54 46.899C168.6 47.9382 170.43 49.3822 171.919 51.1448C172.546 51.841 173.043 52.643 173.389 53.5135C173.456 54.4555 173.603 55.3899 173.831 56.3064C174.099 57.0444 174.592 57.68 175.24 58.1239C173.833 57.6316 172.408 57.1326 170.994 56.7224C172.945 57.753 174.97 58.6355 177.052 59.3623C178.795 60.4384 180.563 61.2588 181.724 62.7246C179.763 61.6862 177.709 60.8358 175.588 60.1848C177.575 61.3387 179.686 62.2627 181.882 62.9389C181.984 63.0701 182.071 63.2169 182.16 63.3542C182.991 64.4609 183.578 66.478 184.505 67.9467C185.956 70.2278 187.647 72.3472 189.549 74.2685C189.03 74.0868 188.501 73.9018 188.001 73.7266C186.576 73.2277 185.196 72.6599 183.761 72.1577C183.272 72.0252 182.76 71.9939 182.257 72.0656C180.35 71.9648 178.438 72.1298 176.576 72.556C175.579 72.7826 174.57 72.9565 173.554 73.0768C172.564 73.3023 171.571 73.5057 170.582 73.6996C168.145 74.245 165.591 75.8513 163.508 76.383C160.115 76.9963 156.7 77.1254 153.357 77.809C151.676 78.2804 149.996 78.7517 148.372 79.3062C147.384 79.7317 146.376 80.1071 145.351 80.4311C143.716 80.8335 142.048 81.0869 140.42 81.4704C139.539 81.5964 138.652 81.7096 137.774 81.8577C137.694 81.6604 137.602 81.4693 137.533 81.2753C137.028 79.7212 136.288 78.254 135.336 76.9254C134.496 75.8154 133.572 75.2481 132.794 74.3825C131.045 72.0525 129.576 69.5254 128.416 66.8531C129.305 69.7918 130.379 72.8377 132.402 75.2305C133.224 76.0588 134.008 76.545 134.658 77.26C135.748 78.5502 136.674 79.9706 137.416 81.4886L137.659 81.8813C137.143 81.9653 136.629 82.0714 136.121 82.1903C132.543 82.6965 128.926 83.0408 125.814 83.2124C122.588 83.3322 119.358 83.2627 116.14 83.0041C114.935 82.8791 113.739 82.6763 112.559 82.397C112.289 82.0798 112.018 81.7943 111.744 81.4866C110.346 79.959 108.707 78.6697 106.893 77.6693C106.13 77.0949 105.409 76.4611 104.611 75.9273C103.812 75.3935 103.118 75.0447 102.404 74.5722C100.675 73.2781 99.2946 72.53 97.4881 71.3043C96.5702 70.7181 96.0063 70.5737 95.0587 69.8605C94.0916 68.9493 93.25 67.9135 92.5558 66.7806C91.8948 65.9992 91.1945 65.2519 90.4577 64.5416C89.4199 63.25 88.5038 61.8652 87.7208 60.405C87.3508 59.7669 86.1126 58.1892 85.7483 57.5955C84.7267 55.9135 83.8315 54.2333 82.875 52.8496C82.0336 51.5909 81.0516 50.4313 80.1494 49.2254C79.3972 48.3476 78.7818 47.4117 78.1061 46.4971C79.1098 47.4697 80.0492 48.5064 80.9186 49.6007C81.031 49.7263 81.1327 49.8611 81.2225 50.0037L81.2588 50.1118C81.2981 50.2076 81.3706 50.2861 81.4631 50.3327C81.5556 50.3793 81.6618 50.391 81.7622 50.3656C81.8626 50.3401 81.9505 50.2793 82.0097 50.1943C82.0688 50.1093 82.0953 50.0058 82.0842 49.9028L82.0611 49.757C82.0682 49.5726 82.0356 49.3888 81.9656 49.2181C81.8956 49.0474 81.7898 48.8936 81.6553 48.7673C81.6461 48.7428 81.6325 48.7201 81.6152 48.7003L81.568 48.6838C81.4087 48.4473 81.2324 48.2226 81.0404 48.0117C80.1911 46.6549 79.1548 44.8936 77.4753 44.0619C77.1091 43.8066 75.4385 43.2218 75.0557 43.0136C74.5555 42.6266 74.069 42.1702 73.5825 41.7138C73.8835 41.8828 74.1974 42.0456 74.48 42.1764C75.1681 42.4808 75.8179 42.8036 76.2143 42.9424C76.6108 43.0812 76.9128 42.7631 76.8425 42.3889C76.7722 42.0147 76.5565 42.0557 76.397 41.9363C76.2375 41.8169 75.9313 41.5719 75.7 41.385C74.1988 40.1086 72.4983 39.0874 70.6661 38.362C70.9681 38.4113 71.273 38.4402 71.5789 38.4484C74.9419 38.8661 78.3461 38.8246 81.698 38.3249C83.9491 37.9475 85.8769 38.0397 88.2738 37.8511C91.3891 37.6384 94.7704 38.6631 97.7784 39.2712C98.4957 39.5223 99.2385 39.5493 99.9526 39.8098C100.273 39.9221 99.4221 39.5393 99.3339 39.519C96.2759 38.4485 93.1886 37.2194 89.9318 36.9587C88.8793 36.9371 87.8265 36.9826 86.7798 37.0949C85.8066 37.0805 84.8335 37.1219 83.8651 37.2189C85.3839 35.907 87.0734 34.8032 88.5393 33.4305C90.5275 31.5038 92.631 29.6998 94.838 28.0282C95.7589 27.3953 96.7274 26.8346 97.7348 26.3512C98.9355 25.9565 100.069 25.3817 101.097 24.6463C101.273 24.5141 101.431 24.3591 101.566 24.1853C101.37 24.3708 101.151 24.5292 100.913 24.6562C99.0417 25.675 96.9911 25.7518 95.0557 27.0131C92.4599 28.628 90.1262 30.63 88.1354 32.95C86.7691 34.4318 85.197 35.7144 83.8429 37.2217C82.6711 37.3306 81.5022 37.4618 80.3261 37.6434C77.032 38.0703 73.7079 38.2215 70.3887 38.0953C70.3037 38.0656 70.1135 38.0944 70.0522 38.1789C66.862 37.4859 61.8434 38.293 62.35 42.4753C62.3141 41.7693 62.4928 41.0691 62.8625 40.4666C63.2323 39.8642 63.7758 39.3878 64.4215 39.1002C65.9964 38.6095 67.6698 38.5247 69.2862 38.8537C70.5087 39.1276 71.6714 39.6208 72.718 40.3093C72.6477 40.2923 72.5755 40.2848 72.5032 40.2871C72.155 40.3135 71.7571 40.2696 71.4787 40.49C71.4445 40.5281 71.4181 40.5726 71.4011 40.6209C71.384 40.6692 71.3767 40.7204 71.3795 40.7715C71.3822 40.8226 71.395 40.8727 71.4171 40.9189C71.4393 40.9651 71.4703 41.0065 71.5084 41.0407C72.1408 41.4581 72.7446 41.9172 73.3158 42.4151C73.8763 43.1132 74.6033 43.6591 75.4299 44.0028C76.3925 44.3439 77.2922 44.8415 78.0929 45.4754C78.2992 45.6547 78.4889 45.8523 78.6597 46.0658C78.559 45.9738 78.4489 45.8926 78.3312 45.8237C78.2706 45.7873 78.2031 45.7637 78.133 45.7543C78.0669 45.7312 77.7975 45.7746 78.0032 45.7618C77.9676 45.7529 77.9329 45.7407 77.8994 45.7255C77.5176 45.666 76.906 45.5367 76.8696 46.0643C79.3669 49.7356 81.7618 52.4281 83.6648 55.8596C84.641 57.541 85.7094 59.1671 86.8651 60.7306C87.6716 62.2101 89.4284 65.0607 90.754 66.0862C92.1055 67.2798 92.7534 69.2124 94.6707 70.6359C95.4187 71.1626 96.1068 71.467 96.6334 71.7785C97.7179 72.4336 98.7405 73.2048 99.8636 73.8099C100.311 74.1361 101.806 75.2211 102.678 75.7276C103.91 76.4465 105.079 77.2669 106.174 78.1804C108.283 79.3993 110.17 80.9664 111.756 82.8151C111.759 82.8864 111.781 82.9558 111.819 83.0158C111.858 83.0759 111.912 83.1246 111.976 83.1568C111.976 83.1568 111.976 83.1568 112.032 83.1766C112.045 83.1877 112.062 83.1936 112.079 83.1931C112.154 83.263 112.252 83.3032 112.355 83.3059C112.457 83.3086 112.557 83.2736 112.636 83.2078C112.985 83.261 113.33 83.3359 113.67 83.432C115.06 83.7349 116.475 83.9075 117.897 83.9476C120.175 84.0901 122.459 84.1116 124.74 84.0122C126.074 84.0279 127.409 83.957 128.734 83.8001C132.22 83.5688 135.687 83.1233 139.118 82.4661C141.336 82.1831 143.634 81.6736 145.802 81.1399C147.13 80.7361 148.79 79.9292 149.767 79.6781C151.936 78.9136 154.185 78.3998 156.47 78.1467C159.14 77.6933 161.919 77.7128 164.525 76.898C166.13 76.337 168.148 75.295 169.366 74.8737C170.583 74.4523 171.958 74.3085 173.244 73.964C176.223 73.5659 179.168 72.6581 181.904 72.8636C183.476 72.8523 183.415 72.9052 185.188 73.6212C186.04 73.9724 187.076 74.282 188.019 74.6124C187.722 77.5884 188.296 80.5866 189.671 83.2427C190.967 84.9889 192.793 86.5818 195.066 86.6254C195.357 86.6445 195.649 86.6404 195.939 86.6131C195.389 86.5607 194.847 86.4421 194.325 86.26C193.169 85.8755 192.156 85.1517 191.418 84.1829C190.635 83.3938 190.039 82.4393 189.673 81.3895C188.813 79.2258 188.271 76.9485 188.067 74.629C188.729 74.8283 189.373 75.0856 189.991 75.3978C190.607 75.8467 191.119 77.3187 191.496 78.3617C192.036 79.5341 192.238 80.834 192.079 82.1149C191.971 82.7237 191.854 84.4203 191.799 84.9097C191.98 84.2419 192.155 82.6822 192.377 82.0182C192.679 80.7462 192.592 79.413 192.128 78.1908C191.901 77.5075 191.781 76.851 191.476 76.119C191.393 75.9312 191.301 75.7401 191.184 75.5296C190.947 75.0877 190.582 74.7273 190.137 74.4955C188.333 72.2084 186.652 69.8269 185.102 67.3611C184.057 65.5332 183.487 63.4374 182.082 61.8223C180.607 59.9817 177.023 58.5681 175.372 57.1106C174.01 55.977 174.524 54.6311 173.981 52.8203C173.288 51.4428 172.357 50.1987 171.231 49.1452C169.967 47.9429 168.541 46.923 166.994 46.1151C165.534 45.0064 164.141 43.8111 162.823 42.5357C161.538 41.438 160.436 40.1438 159.556 38.7011C158.47 37.3249 157.24 36.0572 156.044 34.7806C154.801 33.5391 153.389 32.4779 151.851 31.6279C149.483 30.7037 147.016 30.3061 145.17 28.9502C143.529 27.8566 141.769 26.9226 140.18 25.7412C139.305 25.064 138.453 24.0771 137.314 23.2757C136.175 22.4743 135.233 21.7739 134.094 21.1844C132.276 20.3254 130.389 19.421 128.466 18.7376C123.807 17.1822 118.98 16.1789 114.086 15.7484Z" fill="white"/>
<path d="M127.706 43.6673C125.332 42.9066 122.883 42.4044 120.401 42.1694C113.98 41.564 107.585 40.766 101.152 40.3154C108.237 41.9903 115.52 42.4631 122.723 43.3744C124.26 43.584 125.764 44.0999 127.536 44.4554C129.542 44.7142 131.527 45.1117 133.477 45.645L134.836 46.1208C134.393 45.9023 133.935 45.6677 133.533 45.453C131.657 44.6608 129.704 44.0625 127.706 43.6673Z" fill="white"/>
<path d="M155.098 52.0692C149.907 50.6757 145.655 49.717 140.433 47.8676C143.012 49.0762 145.652 50.1524 148.341 51.0919C150.295 51.5639 152.222 52.1114 154.153 52.6496C156.821 53.3822 159.241 54.791 161.856 55.7062C165.204 57.0689 168.822 57.9012 171.541 59.849C173.618 61.3919 175.831 62.728 177.985 64.1708C179.668 65.4168 180.898 66.8964 182.612 68.3548C183.394 68.9674 184.289 69.6196 185.03 70.1652C184.341 69.4686 183.627 68.8159 182.935 68.1287C181.562 66.6945 180.359 65.1078 178.86 63.7886C180.272 64.7375 181.738 65.6042 183.249 66.3845C180.955 64.3808 178.366 62.742 175.573 61.5255C175.715 61.5751 175.808 61.703 175.94 61.7809C175.479 61.4925 175.018 61.2041 174.568 60.8874C173.145 59.8228 171.665 58.8377 170.134 57.9367C167.929 56.9105 165.606 56.1926 163.348 55.3175C160.516 54.3895 157.905 52.9778 155.098 52.0692Z" fill="white"/>
<path d="M160.685 50.1257C164.116 52.0051 167.789 53.8629 171.674 54.386C167.972 53.0686 164.427 51.3298 160.685 50.1257Z" fill="white"/>
<path d="M143.086 46.2852C146.239 46.6907 149.424 46.7946 152.598 46.5953C149.454 46.0751 146.256 45.9708 143.086 46.2852Z" fill="white"/>
<path d="M154.27 43.0908C156.427 43.5785 158.61 43.9396 160.809 44.1724C158.711 43.4255 156.497 43.0592 154.27 43.0908Z" fill="white"/>
<path d="M156.549 60.4278C157.644 61.627 158.487 63.0344 159.492 64.3082C160.781 65.9572 161.975 67.6772 163.071 69.46C163.383 69.9276 163.726 70.3734 164.098 70.7942C163.923 70.5322 163.764 70.2606 163.62 69.9805C162.639 67.8718 161.493 65.8442 160.191 63.917C159.233 62.3629 158.14 60.8957 156.926 59.5321C153.959 56.4483 150.367 54.0573 147.094 51.301C150.095 54.6826 153.631 57.3827 156.549 60.4278Z" fill="white"/>
<path d="M171.51 71.0799C169.47 67.7678 167.226 64.5865 164.79 61.5546C166.536 65.0506 168.802 68.2621 171.51 71.0799Z" fill="white"/>
<path d="M174.374 65.6196C173.339 63.9753 172.152 62.4047 171.117 60.7604C171.914 62.5562 173.016 64.2002 174.374 65.6196Z" fill="white"/>
<path d="M137.424 72.7188C137.108 71.3761 136.548 70.1029 135.772 68.9621C134.024 66.6335 131.456 65.0992 129.342 63.1193C131.972 66.7736 135.652 68.5808 137.424 72.7188Z" fill="white"/>
<path d="M125.845 61.0902C124.509 58.8532 122.826 56.7912 121.351 54.5584C122.43 56.9962 123.954 59.2113 125.845 61.0902Z" fill="white"/>
<path d="M111.603 48.2647C110.062 46.1433 108.266 44.2193 106.255 42.5361C107.827 44.6324 109.62 46.553 111.603 48.2647Z" fill="white"/>
<path d="M120.448 60.6207C119.532 57.185 117.424 54.1268 115.358 51.1894C116.707 54.4798 118.824 57.5729 120.448 60.6207Z" fill="white"/>
<path d="M136.192 27.874C132.291 28.2857 128.431 29.018 124.65 30.0635C128.504 29.7386 132.358 29.2333 136.159 28.5724C137.867 28.0032 139.673 27.7881 141.466 27.9403C139.741 27.4776 137.928 27.4548 136.192 27.874Z" fill="white"/>
<path d="M119.137 20.2393C121.788 20.6321 124.486 20.5925 127.124 20.1218C124.462 20.0049 121.795 20.0441 119.137 20.2393Z" fill="white"/>
<path d="M80.9746 35.7305C83.5585 33.7342 85.9434 31.4928 88.096 29.0375C85.4428 30.9513 83.0491 33.201 80.9746 35.7305Z" fill="white"/>
<path d="M87.6719 36.4854C87.8091 36.4027 87.9405 36.3106 88.065 36.2098C87.924 36.2866 87.7922 36.379 87.6719 36.4854Z" fill="white"/>
<path d="M80.9918 44.9437C81.5449 45.7216 82.0087 46.5592 82.3744 47.4408C81.5728 44.3737 79.5465 41.7784 77.8591 39.1534C78.7657 41.1549 79.8125 43.0898 80.9918 44.9437Z" fill="white"/>
<path d="M82.8613 47.3789C82.156 44.3894 81.113 41.4899 79.7523 38.7362C80.5145 41.7085 81.5554 44.6022 82.8613 47.3789Z" fill="white"/>
<path d="M97.3107 65.6064C98.6297 68.3261 100.295 70.8641 102.264 73.1571C100.882 71.0522 99.9486 68.7548 98.6872 66.6074C97.4259 64.4601 96.368 62.0343 95.2435 59.8289C95.7797 61.8061 96.4709 63.7379 97.3107 65.6064Z" fill="white"/>
<path d="M103.543 63.3907C104.008 66.4709 104.914 69.468 106.234 72.2895C107.504 75.3771 109.568 78.0737 112.218 80.1055C109.605 77.6122 108.042 74.2363 106.602 70.9667C105.635 68.9632 104.797 66.9002 104.092 64.7904C103.874 64.1104 103.567 63.2613 103.428 62.6615L103.543 63.3907Z" fill="white"/>
<path d="M165.019 47.8508C162.222 47.6982 159.391 47.7349 156.594 47.4336C159.316 48.1772 162.122 48.572 164.944 48.6087C165.601 48.7008 166.806 49.1332 167.767 49.3215C168.565 49.5748 169.328 49.9273 170.038 50.3708C170.381 50.5811 170.735 50.7722 171.099 50.9433L170.676 50.6365C169.938 49.9716 169.12 49.4006 168.241 48.9364C167.196 48.4946 166.119 48.1317 165.019 47.8508Z" fill="white"/>
<path d="M161.003 48.6693C158.703 48.4893 156.425 49.1857 154.188 49.5254C156.178 49.4382 157.868 49.1821 159.743 49.2133C161.142 49.3323 163.011 49.5627 164.064 49.762C166.34 50.1404 168.544 50.8723 170.594 51.9314C170.829 52.0391 171.053 52.1707 171.262 52.324C171.262 52.324 171.318 52.3439 171.262 52.324C171.205 52.3042 171.034 52.0961 170.896 52.0055C168.169 49.7792 164.488 48.8828 161.003 48.6693Z" fill="white"/>
<path d="M168.634 54.4765C165.075 53.2941 161.695 53.2656 158.27 52.2149C161.634 53.7106 165.992 54.3673 168.903 55.1321C170.465 55.319 171.984 55.7651 173.399 56.4518C173.444 56.4645 173.488 56.48 173.531 56.4981C173.093 56.1366 172.616 55.824 172.11 55.566C170.988 55.0956 169.824 54.7309 168.634 54.4765Z" fill="white"/>
<path d="M176.681 66.84C178.373 68.4005 180.223 69.7797 182.201 70.9551C180.432 69.2339 178.522 67.662 176.494 66.2553C175.999 65.9758 175.556 65.6129 175.185 65.1825C175.567 65.8299 176.076 66.3936 176.681 66.84Z" fill="white"/>
<path d="M171.127 66.602C172.598 68.6956 174.434 70.5037 175.812 72.6496C174.608 70.0292 172.979 67.626 170.991 65.5374C170.27 64.6077 169.412 63.793 168.447 63.1209C169.549 64.0894 170.182 65.4873 171.127 66.602Z" fill="white"/>
<path d="M161.488 62.3268C162.792 63.9593 164.719 65.2058 165.739 66.7707C164.857 64.841 163.144 63.4997 161.981 61.7681C159.942 58.2997 156.809 55.7195 154.242 52.7018C156.353 56.1428 159.201 59.0255 161.488 62.3268Z" fill="white"/>
<path d="M84.8697 48.3037C85.2667 50.1684 85.9883 51.9487 87.0016 53.5635C87.637 54.5866 88.3635 55.5501 89.1723 56.4424C89.5809 57.0594 89.9301 57.7138 90.2151 58.3968C90.3317 58.6389 90.4685 59.0046 90.5388 59.167C90.4406 58.6969 90.3166 58.2326 90.1675 57.7762C89.8872 56.837 89.4325 55.959 88.8274 55.188C88.4838 54.6863 87.8039 53.4206 87.3886 52.6395C85.5186 48.9017 84.7076 44.9837 83.3996 40.8812C83.7432 43.3821 84.2341 45.8606 84.8697 48.3037Z" fill="white"/>
<path d="M87.4516 57.8428C88.3712 59.2045 89.0204 60.7303 89.364 62.3371L89.3994 62.5084C89.4027 62.1105 89.3791 61.7128 89.3287 61.3182C89.0792 59.8339 88.5765 58.4035 87.8424 57.0896C86.6179 54.383 85.1513 51.793 83.8758 49.1109C84.713 52.1545 85.9136 55.0862 87.4516 57.8428Z" fill="white"/>
<path d="M135.847 25.7718C133.51 25.2594 131.115 25.0587 128.725 25.1748C131.053 25.5766 133.406 25.9661 135.781 26.2041C136.66 26.236 137.524 26.4413 138.324 26.8083C137.596 26.2642 136.746 25.9082 135.847 25.7718Z" fill="white"/>
</g>
<g clip-path="url(#clip1_3248_15123)">
<path d="M34.0536 168.207C28.1446 169.11 22.1174 168.875 16.2966 167.515C8.83374 165.739 1.91936 162.12 -4.76935 158.588C-8.44193 156.659 -12.2551 154.671 -16.0991 153.012C-24.7414 149.292 -33.9568 147.081 -43.3456 146.473L-43.3162 145.538C-39.7823 145.629 -36.2468 145.429 -32.7459 144.938C-26.6958 144.016 -21.8857 141.927 -18.0393 138.559C-17.4936 138.091 -16.9637 137.586 -16.4422 137.091C-13.5062 133.968 -9.6111 131.915 -5.37509 131.257C-3.3275 130.81 -1.33691 130.133 0.558714 129.24C4.11253 127.403 6.68375 124.098 9.15983 120.898C10.0098 119.838 10.8552 118.748 11.7111 117.728C18.6034 109.728 28.1169 104.441 38.55 102.813C40.428 102.527 42.323 102.366 44.2224 102.332C53.0814 102.185 61.7817 104.713 70.1186 107.246C72.5338 107.96 75.0242 108.703 77.5209 109.354C86.9199 111.887 94.6616 112.639 101.206 111.641C104.405 111.176 107.508 110.194 110.393 108.733L111.959 107.928L110.992 109.411C105.423 117.937 99.6004 128.182 94.4735 137.218C92.8121 140.121 91.1118 143.102 88.634 145.361C84.5294 149.092 79.0027 150.329 73.6525 151.529C70.4899 152.141 67.3857 153.024 64.3741 154.167C61.2449 155.584 58.2613 157.303 55.4657 159.298C53.7763 160.426 52.0306 161.582 50.2356 162.614C45.2384 165.473 39.7497 167.37 34.0536 168.207ZM-36.328 146.324C-29.2401 147.386 -22.3193 149.361 -15.7376 152.198C-11.851 153.871 -8.0265 155.868 -4.33264 157.803C2.26644 161.278 9.15355 164.851 16.5016 166.604C22.2059 167.935 28.1118 168.164 33.9021 167.279C39.4568 166.458 44.8108 164.612 49.6923 161.837C51.4492 160.821 53.185 159.666 54.8561 158.552C57.7036 156.525 60.7402 154.778 63.9236 153.336C66.9851 152.172 70.1414 151.274 73.3572 150.653C78.8344 149.424 83.9999 148.272 87.9263 144.7C90.3174 142.535 91.9773 139.621 93.5929 136.816C98.4652 128.234 103.964 118.585 109.259 110.322C101.041 113.942 90.796 113.956 77.22 110.3C74.7659 109.663 72.2611 108.892 69.8162 108.182C61.4983 105.707 52.8672 103.169 44.1891 103.308C42.3328 103.336 40.4806 103.49 38.6452 103.769C28.4359 105.353 19.1225 110.516 12.3703 118.335C11.5128 119.346 10.6659 120.426 9.81446 121.476C7.27822 124.746 4.63989 128.142 0.908789 130.076C-1.05208 130.999 -3.10999 131.7 -5.22655 132.165C-7.53137 132.642 -9.75571 133.448 -11.8314 134.558C-13.2918 135.514 -14.6489 136.619 -15.8807 137.855C-16.4105 138.361 -16.9502 138.868 -17.5044 139.347C-21.4839 142.837 -26.4546 145.001 -32.6827 145.95C-33.7548 146.083 -35.0278 146.227 -36.328 146.324Z" fill="white"/>
<path d="M18.8464 147.149C2.55362 149.57 -13.9745 149.987 -30.3686 148.39L-30.2784 147.455C18.9158 151.984 62.0577 140.167 109.613 109.126L110.117 109.909C78.7603 130.358 49.3441 142.5 18.8464 147.149Z" fill="white"/>
<path d="M90.5548 141.437C82.8887 139.338 75.4788 136.397 68.4607 132.666L68.9013 131.84C75.8659 135.54 83.2209 138.453 90.8305 140.525L90.5548 141.437Z" fill="white"/>
<path d="M80.3161 148.794C71.4555 146.339 62.9929 142.624 55.1871 137.765L55.6831 136.972C63.4257 141.789 71.8219 145.466 80.6131 147.889L80.3161 148.794Z" fill="white"/>
<path d="M85.2798 147.512C76.727 145.985 68.4783 143.082 60.8552 138.914L61.2958 138.088C68.8322 142.211 76.9874 145.085 85.4438 146.597L85.2798 147.512Z" fill="white"/>
<path d="M67.1115 152.678C59.6235 150.883 52.6229 147.46 46.6067 142.654L47.1938 141.927C53.1048 146.624 59.9748 149.966 67.3189 151.716L67.1115 152.678Z" fill="white"/>
<path d="M59.7922 154.441C53.3407 151.004 47.1844 147.041 41.386 142.59L41.9731 141.863C47.7313 146.277 53.8421 150.21 60.2442 153.624L59.7922 154.441Z" fill="white"/>
<path d="M53.429 158.871C46.7921 156.57 40.7689 152.783 35.8192 147.799L36.4877 147.14C41.3346 152.025 47.2359 155.734 53.7389 157.984L53.429 158.871Z" fill="white"/>
<path d="M44.5607 163.672C35.4053 157.771 25.946 152.355 16.222 147.448L16.6412 146.615C26.397 151.54 35.8889 156.97 45.078 162.885L44.5607 163.672Z" fill="white"/>
<path d="M34.626 167.645C27.846 161.316 20.3898 155.753 12.3921 151.056C9.71347 149.472 6.63385 148.698 3.52492 148.827L3.45397 147.897C6.76796 147.742 10.0553 148.556 12.9148 150.238C20.9735 154.97 28.487 160.576 35.3196 166.952L34.626 167.645Z" fill="white"/>
<path d="M29.6742 168.673L27.7366 168.371C21.072 165.962 14.7049 162.799 8.75918 158.943L6.91185 157.708C5.21539 156.537 3.46006 155.454 1.65281 154.463C-3.13427 151.926 -9.06635 150.503 -14.7463 149.275L-14.5428 148.354C-8.80888 149.604 -2.80311 151.046 2.08349 153.639C3.92377 154.644 5.70923 155.746 7.43218 156.94C8.04136 157.353 8.66038 157.765 9.27644 158.156C15.1364 161.949 21.4076 165.066 27.9698 167.445L29.8124 167.721L29.6742 168.673Z" fill="white"/>
<path d="M96.475 129.771C90.6433 130.099 84.7976 129.452 79.1789 127.856L79.4363 126.957C84.9548 128.54 90.6984 129.193 96.4314 128.888L96.475 129.771Z" fill="white"/>
<path d="M91.6954 135.052C87.398 135.71 83.0038 134.913 79.2116 132.787L79.675 131.978C83.3753 134.066 87.685 134.807 91.8701 134.074L92.0118 135.003L91.6954 135.052Z" fill="white"/>
<path d="M38.3911 139.455L38.1125 138.557C45.8493 136.224 51.6961 130.053 56.8789 124.569L65.1094 115.92L70.8807 109.851L71.5557 110.497L65.7844 116.566L57.5538 125.215C52.2926 130.781 46.3196 137.053 38.3911 139.455Z" fill="white"/>
<path d="M22.7384 142.691L22.3556 141.839C25.3233 140.537 27.9128 137.816 30.2572 133.554C30.8381 132.454 31.3992 131.357 31.9306 130.264C33.0942 127.715 34.5064 125.288 36.1465 123.016C38.6842 119.756 42.0283 117.274 45.3138 114.872C49.425 111.847 53.32 108.998 55.6759 104.744L56.4934 105.196C54.0415 109.616 49.8853 112.678 45.8639 115.627C42.6333 117.991 39.3044 120.441 36.8801 123.582C35.2832 125.809 33.9078 128.187 32.7732 130.682C32.2319 131.776 31.6708 132.873 31.0702 133.976C28.6273 138.456 25.8962 141.31 22.7384 142.691Z" fill="white"/>
<path d="M22.329 136.982L18.4629 140.68L19.1126 141.359L22.9788 137.661L22.329 136.982Z" fill="white"/>
<path d="M34.6573 150.272C33.0405 149.107 31.3486 148.051 29.5928 147.109C29.4877 147.07 29.3969 147.001 29.3323 146.909C29.2678 146.818 29.2326 146.709 29.2316 146.597L29.4937 146.193C29.654 146.174 29.8163 146.202 29.9612 146.274L30.0508 146.331C31.8334 147.28 33.5555 148.338 35.2072 149.5L34.6573 150.272Z" fill="white"/>
<path d="M11.9286 154.98C9.26141 152.281 5.15566 150.763 3.40865 150.119L2.67764 149.836L3.06278 148.978C3.18358 149.04 3.41914 149.126 3.72994 149.24C5.54079 149.905 9.77572 151.475 12.597 154.322L11.9286 154.98Z" fill="white"/>
<path d="M15.6436 165.683C11.9101 164.567 8.28383 163.119 4.80789 161.357L5.22717 160.524C8.65457 162.263 12.2306 163.691 15.9125 164.793L15.6436 165.683Z" fill="white"/>
<path d="M72.224 150.25L62.8729 148.297L63.0665 147.377L72.4191 149.34L72.224 150.25Z" fill="white"/>
<path d="M99.5548 124.366C96.6385 124.81 92.9998 125.294 89.8647 123.972L90.2187 123.108C93.1266 124.334 96.474 123.864 99.4245 123.445L99.5548 124.366Z" fill="white"/>
<path d="M84.9433 122.283L84.2698 121.648C86.6015 119.165 89.0655 116.811 91.6512 114.595L92.2547 115.302C89.7018 117.505 87.2615 119.835 84.9433 122.283Z" fill="white"/>
<path d="M77.3063 125.734L76.4736 125.315C78.6617 121.084 81.6595 117.324 85.2967 114.249L85.9002 114.956C82.3607 117.954 79.4414 121.616 77.3063 125.734Z" fill="white"/>
<path d="M64.1352 132.962L63.4084 132.374L64.3847 131.214C67.1043 127.886 70.1802 124.11 73.0455 120.942C75.6436 118.077 78.2642 115.361 81.5602 113.625L81.9893 114.45C78.8159 116.127 76.2752 118.77 73.7388 121.574C70.8903 124.719 67.8227 128.485 65.113 131.811L64.1352 132.962Z" fill="white"/>
<path d="M59.6839 133.944L59.0888 133.225C62.325 130.35 65.2258 127.119 67.7358 123.592C70.4716 120.039 73.2997 116.361 77.0481 113.413L77.6264 114.154C74.0157 117.011 71.1718 120.651 68.4809 124.166C65.9266 127.747 62.9755 131.027 59.6839 133.944Z" fill="white"/>
<path d="M51.5256 136.371L51.0766 135.549C56.2124 132.743 59.7737 128.235 63.5414 123.422C66.3213 119.893 69.182 116.23 72.7151 113.395L73.3019 114.125C69.8502 116.897 67.0215 120.504 64.2781 124.008C60.6193 128.673 56.8348 133.508 51.5256 136.371Z" fill="white"/>
<path d="M30.7135 124.401L29.8281 124.101C30.2778 122.534 31.0268 121.07 32.0336 119.789C32.939 118.842 33.9882 118.043 35.1426 117.423L35.3747 117.287C39.5431 114.721 43.4079 111.692 46.8955 108.258L47.5424 108.918C44.0101 112.408 40.0906 115.483 35.8601 118.083L35.6281 118.219C34.5611 118.795 33.5884 119.53 32.7436 120.399C31.8153 121.59 31.1259 122.948 30.7135 124.401Z" fill="white"/>
<path d="M13.9516 142.645L13.2766 141.999C15.8258 139.31 17.8083 136.135 19.1064 132.664C19.4429 131.753 19.7506 130.786 20.0446 129.861C20.8724 127.196 21.7292 124.455 23.5767 122.242C25.1887 120.552 27.0741 119.146 29.1538 118.084C29.8036 117.701 30.4549 117.329 31.0918 116.928C34.7778 114.587 37.9226 111.487 40.3167 107.834L41.0923 108.343C38.6303 112.111 35.3885 115.306 31.5857 117.713C30.9503 118.123 30.2906 118.507 29.621 118.892C27.6296 119.897 25.8253 121.236 24.2867 122.852C22.5718 124.873 21.7326 127.53 20.9307 130.1C20.6299 131.046 20.3222 132.014 19.9803 132.956C18.642 136.558 16.5917 139.853 13.9516 142.645Z" fill="white"/>
<path d="M6.46156 132.659L5.52476 132.752C5.52476 131.333 5.98077 129.951 6.82564 128.811C7.03294 128.445 7.24024 128.08 7.41637 127.709C7.7786 126.962 8.09032 126.191 8.34939 125.402C8.64098 124.486 9.00576 123.595 9.44023 122.737C10.6603 120.767 12.2404 119.043 14.0979 117.657L14.7029 118.374C12.9389 119.687 11.4344 121.315 10.2661 123.178C9.84791 123.992 9.50009 124.84 9.22634 125.713C8.95766 126.538 8.63448 127.345 8.25897 128.127C8.06457 128.51 7.84892 128.887 7.62872 129.234C6.8881 130.224 6.47957 131.423 6.46156 132.659Z" fill="white"/>
<path d="M-0.998154 143.113L-1.78361 142.606C-0.25674 140.265 1.71399 138.247 4.01718 136.664L4.54066 137.444C2.34013 138.952 0.458091 140.878 -0.998154 143.113Z" fill="white"/>
<path d="M-5.2476 143.043L-6.04983 142.558C-3.48432 138.329 -0.705643 134.232 2.27544 130.284L3.02885 130.847C0.0638609 134.768 -2.69853 138.839 -5.2476 143.043Z" fill="white"/>
<path d="M44.1334 158.478C36.9644 154.683 29.5885 151.292 22.0405 148.321L22.3845 147.459C29.9663 150.438 37.3745 153.841 44.574 157.652L44.1334 158.478Z" fill="white"/>
<path d="M48.7534 151.966C46.7114 151.843 43.9564 151.686 41.9673 150.118C41.3999 149.641 40.8762 149.115 40.4025 148.546C40.1953 148.314 39.9979 148.081 39.7808 147.851C38.0158 146.024 35.7014 144.824 33.1908 144.435L33.3236 143.515C36.0405 143.934 38.5447 145.233 40.4523 147.213C40.6709 147.453 40.8895 147.692 41.0982 147.934C41.5325 148.459 42.0127 148.944 42.5332 149.384C44.163 150.653 46.3318 150.879 48.7927 151.03L48.7534 151.966Z" fill="white"/>
<path d="M11.9977 144.562C-4.40153 147.136 -21.0265 147.975 -37.6016 147.065L-37.5623 146.128C-9.69965 147.485 17.1126 145.269 71.7397 129.962L71.9886 130.864C47.1671 137.845 28.0621 142.113 11.9977 144.562Z" fill="white"/>
</g>
<g clip-path="url(#clip2_3248_15123)">
<path d="M441.903 157.705C444.016 156.442 446.046 155.045 447.98 153.522C449.323 152.666 450.589 151.695 451.763 150.619C452.682 149.774 453.464 148.792 454.083 147.708C455.11 146.42 455.969 145.006 456.64 143.5C457.672 141.464 457.831 139.162 458.603 137.006C458.962 135.982 459.264 134.939 459.508 133.882C460.26 131.68 461.119 129.455 461.995 127.308C462.292 126.438 462.689 125.363 463.093 124.368C463.107 124.764 463.152 125.157 463.229 125.546C463.245 126.636 463.378 127.721 463.625 128.783C463.88 129.525 464.247 130.223 464.715 130.853C464.736 130.951 464.91 131.098 464.785 130.941C464.807 130.994 464.845 131.04 464.894 131.071C464.974 131.142 465.078 131.181 465.185 131.181C465.292 131.181 465.396 131.142 465.476 131.071C465.529 131.019 465.568 130.954 465.591 130.884C465.613 130.813 465.618 130.738 465.606 130.665C465.66 130.582 465.73 129.801 465.854 129.468C466.132 127.991 466.271 126.49 466.269 124.987C466.4 123.667 466.689 122.367 467.129 121.116C467.628 120.222 468.25 119.403 468.977 118.683C469.612 117.857 470.343 117.109 471.154 116.456C472.179 115.674 472.94 114.597 473.335 113.37C473.937 112.235 474.401 111.033 474.716 109.788C474.719 108.367 474.309 106.976 473.535 105.785C473.291 105.356 473.045 104.867 472.802 104.489C472.898 104.68 472.98 104.878 473.049 105.08C473.989 107.406 474.675 109.255 473.504 111.116C473.641 110.893 473.374 111.327 473.362 111.412L473.242 111.621C473.192 111.724 473.172 111.82 473.112 111.924C473.25 111.609 472.561 112.899 472.727 112.619C472.424 113.439 472.009 114.214 471.495 114.922C470.885 115.664 470.011 116.124 469.385 116.839C468.363 117.938 467.417 119.107 466.556 120.337C465.937 121.705 465.554 123.168 465.424 124.664C465.282 125.542 465.364 126.414 465.294 127.297C465.237 128.065 465.113 128.826 464.925 129.572C464.423 128.62 464.161 127.56 464.162 126.483C464.099 124.974 463.654 123.299 464.139 121.818C464.142 121.721 464.115 121.626 464.06 121.547C464.005 121.468 463.926 121.408 463.835 121.377C463.743 121.346 463.645 121.345 463.553 121.374C463.461 121.403 463.381 121.461 463.324 121.54C462.944 122.448 462.5 123.349 462.131 124.264C461.131 127.183 459.909 130.016 458.847 132.928C458.417 133.989 458.423 134.652 458.107 135.577C457.667 136.791 457.297 138.03 456.998 139.286C456.622 141.199 455.948 143.041 455.001 144.745C454.246 146.008 453.281 147.152 452.523 148.405C451.17 150.325 448.81 151.783 446.821 153.255C444.854 154.81 442.748 156.181 440.53 157.351C436.566 159.212 432.413 160.642 428.143 161.617C426.629 161.965 425.093 162.21 423.546 162.351C424.367 161.932 425.211 161.765 426.048 161.374C427.842 160.251 429.44 158.844 430.781 157.208C433.271 154.476 437.098 150.133 439.988 146.826C436.673 149.796 433.523 152.944 430.549 156.255C429.192 158.019 427.637 159.622 425.915 161.034C425.243 161.482 423.923 162.006 423.546 162.351C422.998 162.415 422.447 162.47 421.899 162.534C420.899 162.643 419.34 162.42 418 162.416C416.661 162.412 415.793 161.982 414.363 161.793C412.339 161.596 410.311 161.717 408.276 161.614C405.883 161.464 403.595 162.294 401.278 162.793C397.558 163.035 393.117 161.6 389.247 159.871C386.515 159.091 383.723 158.541 380.899 158.228C378.598 158.406 376.285 158.118 374.098 157.382C373.202 157.111 372.361 156.683 371.614 156.117C371.069 155.346 370.459 154.623 369.789 153.957C369.178 153.464 368.427 153.176 367.643 153.132C369.101 152.825 370.578 152.513 372 152.132C369.798 152.26 367.609 152.554 365.451 153.011C363.403 152.993 361.466 153.207 359.713 152.555C361.928 152.428 364.126 152.091 366.277 151.549C363.98 151.591 361.696 151.895 359.467 152.453C359.312 152.394 359.162 152.313 359.014 152.242C357.73 151.726 356.183 150.304 354.63 149.528C352.207 148.329 349.663 147.392 347.04 146.733C347.579 146.62 348.127 146.504 348.645 146.395C350.123 146.084 351.597 145.855 353.084 145.541C353.572 145.401 354.026 145.162 354.419 144.841C356.102 143.939 357.653 142.808 359.024 141.479C359.76 140.768 360.533 140.097 361.339 139.468C362.07 138.762 362.814 138.074 363.56 137.396C365.362 135.667 366.715 132.97 368.221 131.436C370.806 129.154 373.66 127.275 376.166 124.958C377.359 123.685 378.552 122.412 379.654 121.096C380.279 120.22 380.947 119.377 381.656 118.569C382.846 117.378 384.141 116.297 385.335 115.126C386.024 114.562 386.724 114.006 387.398 113.424C387.568 113.552 387.746 113.667 387.906 113.797C389.143 114.865 390.536 115.737 392.038 116.381C393.332 116.895 394.416 116.901 395.53 117.239C398.233 118.326 400.799 119.727 403.175 121.412C400.892 119.359 398.396 117.309 395.426 116.31C394.294 116.028 393.372 116.018 392.445 115.743C390.844 115.204 389.316 114.469 387.896 113.554L387.484 113.345C387.882 113.005 388.267 112.648 388.64 112.283C391.439 109.997 394.354 107.829 396.927 106.071C399.624 104.297 402.424 102.683 405.31 101.238C406.406 100.72 407.534 100.274 408.688 99.9026C409.083 100.034 409.463 100.138 409.856 100.259C411.844 100.841 413.913 101.096 415.983 101.012C416.933 101.108 417.878 101.277 418.838 101.32C419.797 101.363 420.572 101.302 421.427 101.336C423.577 101.547 425.145 101.472 427.325 101.585C428.414 101.611 428.971 101.442 430.151 101.562C431.45 101.84 432.707 102.29 433.887 102.9C434.858 103.226 435.844 103.502 436.842 103.728C438.399 104.296 439.899 105.006 441.326 105.849C441.973 106.203 443.849 106.912 444.468 107.231C446.213 108.141 447.849 109.114 449.384 109.802C450.756 110.443 452.196 110.927 453.593 111.491C454.691 111.852 455.702 112.334 456.754 112.766C455.391 112.454 454.051 112.054 452.74 111.568C452.579 111.519 452.422 111.456 452.272 111.381L452.185 111.307C452.101 111.245 451.999 111.216 451.895 111.224C451.792 111.232 451.695 111.277 451.623 111.351C451.55 111.425 451.506 111.522 451.5 111.625C451.493 111.729 451.524 111.831 451.587 111.913L451.682 112.026C451.772 112.188 451.895 112.328 452.043 112.438C452.191 112.547 452.361 112.624 452.542 112.663C452.562 112.679 452.586 112.691 452.611 112.699L452.66 112.689C452.919 112.809 453.186 112.909 453.459 112.99C454.889 113.711 456.687 114.681 458.555 114.522C459 114.551 460.732 114.186 461.167 114.166C461.796 114.238 462.448 114.376 463.101 114.515C462.756 114.526 462.403 114.549 462.093 114.584C461.347 114.68 460.624 114.74 460.213 114.827C459.802 114.914 459.709 115.342 459.963 115.626C460.216 115.91 460.38 115.763 460.578 115.782C460.776 115.802 461.165 115.853 461.46 115.893C463.405 116.207 465.389 116.2 467.332 115.871C467.048 115.986 466.772 116.119 466.506 116.27C463.413 117.655 460.522 119.454 457.914 121.617C456.184 123.106 454.487 124.026 452.534 125.429C449.98 127.224 446.557 128.099 443.669 129.137C442.925 129.293 442.276 129.655 441.53 129.802C441.197 129.872 442.124 129.759 442.21 129.73C445.38 129.062 448.658 128.514 451.578 127.051C452.49 126.524 453.367 125.94 454.204 125.301C455.044 124.81 455.855 124.27 456.633 123.686C456.014 125.595 455.14 127.414 454.597 129.347C453.894 132.025 453.029 134.658 452.007 137.231C451.547 138.249 451.009 139.231 450.398 140.166C449.575 141.125 448.903 142.204 448.405 143.366C448.323 143.57 448.268 143.784 448.243 144.003C448.314 143.743 448.42 143.494 448.557 143.262C449.63 141.421 451.345 140.293 452.347 138.212C453.731 135.486 454.69 132.565 455.191 129.549C455.593 127.574 456.273 125.663 456.651 123.672C457.597 122.972 458.529 122.254 459.441 121.49C462.037 119.418 464.802 117.567 467.707 115.956C467.795 115.937 467.943 115.814 467.952 115.71C471.039 114.65 474.914 111.361 472.315 108.045C472.711 108.631 472.921 109.322 472.917 110.029C472.912 110.736 472.694 111.425 472.291 112.005C471.198 113.241 469.81 114.18 468.257 114.736C467.07 115.135 465.82 115.315 464.568 115.268C464.637 115.247 464.702 115.216 464.763 115.176C465.047 114.973 465.41 114.805 465.534 114.472C465.544 114.422 465.543 114.37 465.533 114.32C465.522 114.27 465.502 114.222 465.473 114.18C465.445 114.137 465.408 114.101 465.365 114.073C465.322 114.045 465.274 114.026 465.224 114.016C464.467 113.987 463.712 113.907 462.966 113.777C462.125 113.47 461.22 113.379 460.335 113.514C459.335 113.72 458.307 113.761 457.294 113.633C457.025 113.587 456.76 113.516 456.504 113.422C456.637 113.448 456.774 113.461 456.91 113.459C456.981 113.459 457.051 113.444 457.115 113.416C457.184 113.401 457.392 113.224 457.223 113.342C457.258 113.331 457.294 113.323 457.33 113.319C457.688 113.172 458.278 112.966 458.036 112.496C453.998 110.649 450.555 109.586 447.149 107.637C445.443 106.704 443.687 105.866 441.889 105.128C440.433 104.28 437.453 102.751 435.788 102.561C434.014 102.24 432.459 100.922 430.081 100.698C429.169 100.634 428.422 100.73 427.811 100.737C426.544 100.738 425.269 100.608 423.995 100.672C423.444 100.625 421.602 100.471 420.595 100.49C419.169 100.512 417.744 100.416 416.334 100.202C413.898 100.252 411.472 99.8889 409.158 99.1289C409.119 99.0693 409.064 99.0213 409 98.9899C408.936 98.9585 408.865 98.9448 408.793 98.9503C408.793 98.9503 408.793 98.9503 408.735 98.9627C408.718 98.96 408.7 98.9637 408.686 98.973C408.585 98.952 408.481 98.9684 408.392 99.0192C408.303 99.07 408.235 99.1516 408.202 99.2487C407.876 99.3839 407.542 99.4987 407.202 99.5924C405.856 100.053 404.556 100.639 403.319 101.341C401.296 102.399 399.331 103.564 397.432 104.83C396.282 105.508 395.177 106.26 394.125 107.08C391.263 109.083 388.527 111.261 385.933 113.6C384.182 114.991 382.481 116.617 380.903 118.196C379.976 119.229 378.974 120.779 378.268 121.501C376.809 123.278 375.152 124.882 373.328 126.282C371.279 128.053 368.891 129.476 367.084 131.522C366.001 132.834 364.815 134.77 363.992 135.761C363.169 136.752 362.067 137.588 361.146 138.548C358.804 140.432 356.754 142.734 354.308 143.975C352.969 144.799 352.994 144.722 351.106 145.028C350.196 145.169 349.149 145.441 348.171 145.647C346.883 142.947 344.84 140.68 342.288 139.12C340.275 138.297 337.888 137.881 335.921 139.021C335.662 139.155 335.414 139.31 335.18 139.483C335.678 139.243 336.203 139.064 336.744 138.949C337.932 138.68 339.173 138.774 340.306 139.221C341.385 139.49 342.389 139.998 343.246 140.706C345.103 142.111 346.745 143.779 348.122 145.657C347.452 145.83 346.768 145.943 346.078 145.996C345.318 145.931 344.117 144.938 343.255 144.24C342.186 143.517 341.34 142.51 340.813 141.332C340.589 140.755 339.81 139.243 339.604 138.796C339.795 139.461 340.453 140.886 340.607 141.569C341.008 142.813 341.773 143.909 342.803 144.714C343.351 145.181 343.793 145.68 344.434 146.148C344.602 146.266 344.779 146.382 344.988 146.501C345.42 146.757 345.919 146.876 346.42 146.844C349.148 147.866 351.819 149.032 354.423 150.338C356.263 151.361 357.836 152.859 359.874 153.512C362.089 154.323 365.887 153.676 368.055 154.067C369.807 154.331 370.065 155.749 371.466 157.017C372.773 157.836 374.214 158.418 375.722 158.736C377.427 159.11 379.175 159.243 380.916 159.133C382.74 159.325 384.551 159.626 386.338 160.035C388.006 160.308 389.619 160.844 391.119 161.623C392.761 162.237 394.47 162.685 396.154 163.157C397.861 163.575 399.618 163.752 401.374 163.682C403.878 163.246 406.194 162.308 408.475 162.512C410.445 162.598 412.435 162.485 414.406 162.673C415.506 162.799 416.745 163.202 418.135 163.297C419.524 163.393 420.693 163.504 421.972 163.418C423.973 163.211 426.055 163.007 428.054 162.596C432.845 161.513 437.493 159.872 441.903 157.705Z" fill="white"/>
<path d="M415.792 140.878C418.217 140.299 420.572 139.46 422.817 138.375C428.622 135.567 434.507 132.937 440.242 129.991C433.315 132.228 426.84 135.596 420.206 138.547C418.783 139.164 417.229 139.502 415.529 140.116C413.68 140.933 411.776 141.621 409.831 142.175L408.422 142.472C408.914 142.43 409.427 142.393 409.882 142.369C411.898 142.074 413.878 141.575 415.792 140.878Z" fill="white"/>
<path d="M388.008 147.879C393.17 146.382 397.304 144.999 402.729 143.876C399.896 144.179 397.081 144.626 394.294 145.215C392.378 145.823 390.446 146.353 388.516 146.893C385.854 147.648 383.054 147.696 380.343 148.268C376.774 148.836 373.248 149.998 369.913 149.74C367.337 149.496 364.752 149.5 362.162 149.381C360.077 149.187 358.259 148.559 356.037 148.199C355.051 148.08 353.948 147.985 353.031 147.903C353.981 148.142 354.93 148.33 355.878 148.56C357.795 149.075 359.646 149.809 361.611 150.162C359.912 150.081 358.21 150.099 356.513 150.214C359.513 150.74 362.576 150.801 365.595 150.395C365.448 150.426 365.303 150.365 365.15 150.366C365.693 150.374 366.236 150.383 366.786 150.42C368.554 150.594 370.331 150.67 372.107 150.647C374.525 150.383 376.884 149.794 379.268 149.373C382.172 148.7 385.136 148.555 388.008 147.879Z" fill="white"/>
<path d="M384.236 152.435C380.327 152.604 376.223 152.918 372.629 154.483C376.478 153.692 380.411 153.343 384.236 152.435Z" fill="white"/>
<path d="M401.279 146.604C398.372 147.891 395.593 149.452 392.982 151.266C395.94 150.083 398.73 148.516 401.279 146.604Z" fill="white"/>
<path d="M393.369 155.129C391.271 155.829 389.216 156.651 387.215 157.591C389.396 157.143 391.481 156.309 393.369 155.129Z" fill="white"/>
<path d="M382.437 141.48C380.879 141.021 379.43 140.253 377.91 139.685C375.954 138.941 374.041 138.089 372.18 137.131C371.671 136.893 371.147 136.689 370.611 136.522C370.896 136.656 371.173 136.805 371.441 136.97C373.372 138.266 375.403 139.407 377.515 140.381C379.14 141.214 380.834 141.903 382.579 142.441C386.715 143.542 391.025 143.727 395.253 144.389C390.934 143.051 386.51 142.573 382.437 141.48Z" fill="white"/>
<path d="M364.124 140.117C367.584 141.894 371.152 143.453 374.806 144.785C371.502 142.699 367.9 141.125 364.124 140.117Z" fill="white"/>
<path d="M364.501 146.272C366.238 147.142 368.067 147.871 369.804 148.741C368.192 147.618 366.398 146.782 364.501 146.272Z" fill="white"/>
<path d="M392.432 121.059C393.398 122.044 394.536 122.843 395.791 123.417C398.493 124.504 401.484 124.486 404.318 125.085C400.175 123.321 396.092 123.681 392.432 121.059Z" fill="white"/>
<path d="M408.359 125.01C410.66 126.232 413.168 127.124 415.586 128.27C413.401 126.743 410.95 125.638 408.359 125.01Z" fill="white"/>
<path d="M427.186 128.604C429.603 129.621 432.136 130.336 434.727 130.735C432.297 129.755 429.769 129.041 427.186 128.604Z" fill="white"/>
<path d="M413.219 122.616C415.782 125.08 419.17 126.604 422.458 128.047C419.6 125.931 416.187 124.382 413.219 122.616Z" fill="white"/>
<path d="M416.714 158.783C419.838 156.41 422.761 153.784 425.453 150.932C422.325 153.206 419.29 155.634 416.381 158.168C415.215 159.54 413.781 160.659 412.168 161.458C413.884 160.96 415.447 160.04 416.714 158.783Z" fill="white"/>
<path d="M435.258 156.479C432.786 157.517 430.499 158.948 428.486 160.717C430.824 159.438 433.085 158.023 435.258 156.479Z" fill="white"/>
<path d="M430.429 106.367C427.892 104.724 425.154 103.415 422.281 102.474C424.554 103.559 426.542 105.04 428.733 106.224C430.925 107.408 433.086 108.935 435.19 110.239C433.707 108.825 432.116 107.531 430.429 106.367Z" fill="white"/>
<path d="M426.246 111.491C424.253 109.096 421.925 107.002 419.335 105.272C416.649 103.289 413.487 102.052 410.168 101.686C413.695 102.465 416.78 104.544 419.705 106.594C421.57 107.808 423.356 109.138 425.052 110.577C425.59 111.046 426.292 111.614 426.722 112.055L426.246 111.491Z" fill="white"/>
<path d="M381.706 156.626C384.177 155.308 386.58 153.81 389.129 152.619C386.415 153.393 383.81 154.509 381.377 155.939C380.768 156.201 379.513 156.455 378.593 156.792C377.779 156.988 376.944 157.082 376.107 157.07C375.705 157.068 375.303 157.088 374.903 157.13L375.424 157.174C376.4 157.36 377.395 157.425 378.387 157.367C379.51 157.203 380.62 156.956 381.706 156.626Z" fill="white"/>
<path d="M384.717 153.846C386.777 152.808 388.365 151.033 390.104 149.583C388.446 150.689 387.133 151.783 385.513 152.727C384.255 153.35 382.537 154.121 381.533 154.496C379.389 155.352 377.126 155.867 374.823 156.023C374.566 156.053 374.306 156.056 374.049 156.033C374.049 156.033 373.99 156.045 374.049 156.033C374.107 156.02 374.361 156.11 374.526 156.116C378.012 156.608 381.625 155.468 384.717 153.846Z" fill="white"/>
<path d="M375.183 152.83C378.84 151.998 381.746 150.271 385.22 149.396C381.567 149.859 377.5 151.554 374.614 152.408C373.181 153.057 371.65 153.463 370.084 153.608C370.039 153.621 369.993 153.63 369.947 153.637C370.509 153.719 371.079 153.739 371.646 153.698C372.849 153.519 374.033 153.228 375.183 152.83Z" fill="white"/>
<path d="M361.896 146.423C359.64 145.964 357.343 145.743 355.042 145.762C357.447 146.318 359.895 146.674 362.359 146.826C362.927 146.809 363.494 146.89 364.034 147.066C363.372 146.71 362.644 146.491 361.896 146.423Z" fill="white"/>
<path d="M366.769 143.75C364.426 142.721 361.919 142.126 359.629 141.004C362.016 142.622 364.654 143.834 367.436 144.591C368.535 145.013 369.691 145.265 370.865 145.34C369.42 145.082 368.154 144.215 366.769 143.75Z" fill="white"/>
<path d="M377.23 142.415C375.269 141.694 372.975 141.625 371.292 140.815C373.046 142.009 375.206 142.269 377.098 143.148C380.638 145.059 384.655 145.643 388.414 146.894C384.825 145.045 380.897 144.054 377.23 142.415Z" fill="white"/>
<path d="M418.098 160.402C420.363 159.63 422.516 158.561 424.5 157.224C422.301 158.086 420.086 158.972 417.931 159.998C417.162 160.426 416.317 160.698 415.443 160.798C416.347 160.887 417.259 160.751 418.098 160.402Z" fill="white"/>
</g>
<g clip-path="url(#clip3_3248_15123)">
<path d="M226.055 144.177C226.289 144.048 227.057 143.707 227.877 143.333C228.698 142.958 229.509 142.597 229.711 142.487L229.812 142.467C231.545 142.123 232.49 140.476 233.496 138.782C233.848 138.182 234.209 137.569 234.616 137.006C237.653 132.791 242.976 131.677 248.061 130.61C250.038 130.231 251.994 129.749 253.92 129.166C261.666 126.677 268.661 120.041 272.984 110.968C273.324 110.253 273.65 109.517 273.986 108.78C274.918 106.45 276.118 104.236 277.564 102.185C279.275 100.115 281.231 98.2604 283.39 96.6628C288.842 92.2746 294.486 87.7305 300.846 84.304C307.77 80.5773 315.857 78.5622 322.485 78.92L322.443 79.6582C315.944 79.2983 308.015 81.3408 301.186 84.9545C294.89 88.3449 289.275 92.8596 283.845 97.232C281.734 98.7961 279.821 100.61 278.147 102.634C276.74 104.646 275.57 106.813 274.66 109.093C274.324 109.831 273.999 110.566 273.649 111.295C269.244 120.549 262.136 127.325 254.156 129.884C252.2 130.475 250.214 130.959 248.205 131.334C242.997 132.437 238.034 133.468 235.208 137.442C234.831 137.976 234.479 138.575 234.134 139.15C233.092 140.899 232.024 142.699 230.035 143.176C229.748 143.327 228.957 143.672 228.179 144.026C227.402 144.38 226.625 144.735 226.423 144.845L226.055 144.177Z" fill="white"/>
<path d="M290.642 71.3777C293.261 70.6938 295.038 69.8001 297.688 69.3337C299.421 68.9902 301.181 68.7826 302.909 68.4754C304.114 68.1443 305.346 67.9198 306.59 67.8046C307.267 67.7672 307.946 67.7782 308.621 67.8375C308.121 67.7121 307.611 67.6242 307.098 67.5744C304.927 67.3103 302.774 67.9135 300.609 67.9777C297.34 68.2604 294.127 69.0044 291.066 70.1874C289.157 70.603 287.31 71.2619 285.569 72.148C283.252 73.5937 281.046 75.2113 278.971 76.9871C282.843 74.6659 286.431 72.1653 290.642 71.3777Z" fill="white"/>
<path d="M219.476 126.67L225.085 136.023C223.823 129.658 222.242 123.698 220.689 117.943L220.588 117.434C219.56 113.612 218.381 109.266 220.047 105.499L220.656 104.119L220.744 105.632C220.777 106.252 220.864 106.869 221.004 107.475C220.776 101.87 223.253 96.4355 225.674 91.2472C226.421 89.6159 227.194 87.9325 227.867 86.2806C228.734 84.1784 229.462 81.9741 230.181 79.8422C231.196 76.5822 232.433 73.3954 233.882 70.304C235.643 66.7767 239.6 60.6129 246.295 58.9328L247.697 58.5843L246.633 59.572C245.726 60.3992 244.83 61.1065 243.973 61.8296C242.442 62.962 241.067 64.2913 239.884 65.7831C243.502 61.8288 249.094 59.6374 254.616 57.7424L268.009 53.1572C273.066 51.4132 277.616 50.0759 282.086 51.3675L284.195 51.9735L282.005 52.0897C279.202 52.2386 276.444 52.8569 273.845 53.919C277.824 53.1442 281.902 53.0196 285.92 53.5502C292.776 53.6831 299.473 55.6383 305.323 59.2151C308.119 60.8503 310.831 62.714 313.435 64.5051C316.038 66.2962 318.885 68.2508 321.77 69.9155C333.204 76.5378 346.259 79.8404 359.468 79.4522L360.004 79.4282L359.834 79.9329C358.548 83.5425 352.776 85.1222 348.139 85.7823C344.196 86.3756 340.282 85.4564 336.629 84.3677C334.298 83.7298 332.036 82.8612 329.876 81.7747L330.656 82.7973L331.313 83.6204L330.29 83.3877C325.736 82.3835 321.409 79.6157 316.678 74.6916C315.304 73.2807 313.979 71.7658 312.702 70.3121C310.511 67.7026 308.144 65.2457 305.618 62.9587C296.221 54.8631 282.141 51.8862 270.598 55.528L267.453 56.528L270.302 54.8685C273.081 53.246 276.139 52.1569 279.318 51.6572C275.831 51.4066 272.19 52.5168 268.218 53.8573L254.769 58.4537C248.092 60.7542 241.321 63.4736 238.252 69.2494L236.957 71.6837L237.6 68.9901C238.406 65.3933 240.757 63.4794 243.46 61.2603C243.886 60.9169 244.322 60.5598 244.755 60.1915C239.351 62.3221 236.054 67.5428 234.502 70.6401C233.063 73.7022 231.836 76.8597 230.831 80.0901C230.08 82.2401 229.34 84.4466 228.512 86.5647C227.83 88.2302 227.048 89.9272 226.289 91.5608C223.623 97.3509 220.866 103.336 221.908 109.485L222.133 110.618L221.326 109.813C220.734 109.096 220.348 108.233 220.207 107.315C219.452 110.455 220.338 113.916 221.295 117.258L221.394 117.756C223.106 124.138 224.897 130.74 226.192 137.923L226.584 139.905L221.967 132.227C223.196 136.611 223.954 141.113 224.229 145.657L223.493 145.685C223.14 140.245 222.118 134.869 220.449 129.679L219.476 126.67ZM358.932 80.194C345.782 80.4707 332.809 77.1346 321.424 70.549C318.549 68.8706 315.747 66.966 313.055 65.1453C310.364 63.3246 307.729 61.4927 304.949 59.8779C300.998 57.546 296.691 55.8786 292.199 54.9423C297.317 56.4017 302.071 58.9202 306.154 62.3346C308.707 64.6457 311.099 67.1291 313.312 69.7674C314.589 71.2211 315.909 72.7134 317.261 74.1287C321.529 78.5562 325.43 81.1964 329.475 82.3016L328.548 81.1316L326.757 78.8618L328.65 80.0992C331.222 81.6657 334.01 82.8462 336.925 83.6028C340.492 84.6732 344.319 85.5742 348.113 84.9988C351.493 84.529 357.305 83.212 358.923 80.1487L358.932 80.194Z" fill="white"/>
<path d="M212.624 160.564C214.281 160.01 215.863 159.25 217.331 158.301C219.689 156.657 220.984 153.987 222.598 151.678C224.823 148.176 226.768 144.507 228.887 140.944C229.811 139.254 230.874 137.489 231.905 135.743L232.401 135.338C234.981 133.436 237.424 131.355 239.713 129.11C237.105 130.748 234.678 132.657 232.473 134.806C233.607 132.935 234.626 130.995 235.524 128.999C236.441 127.244 237.221 125.421 237.856 123.546C238.564 121.651 239.206 120.618 239.904 119.09C242.121 115.367 245.428 110.615 248.27 106.72C250.506 103.185 252.983 99.807 255.683 96.6112C256.722 95.3811 257.725 94.0876 258.41 93.3868C259.551 92.2542 260.801 91.2532 261.903 90.1048C263.226 88.5831 264.788 87.3199 266.188 85.889C267.34 84.7542 268.542 83.6919 269.776 82.6705C271.526 81.4723 273.345 80.3768 275.223 79.3896C274.21 79.8023 273.213 80.2354 272.234 80.7002C272.712 80.3228 273.96 80.0872 274.393 79.7189C273.455 80.2698 271.794 80.7402 270.881 81.3568C265.162 84.1652 259.936 87.8803 255.405 92.3581C250.019 97.18 245.392 102.788 241.681 108.992C236.914 116.834 233.557 124.304 229.582 132.578C228.571 134.838 227.22 138.002 226.425 139.807C225.171 142.151 223.942 144.502 222.663 146.839C219.987 151.529 216.67 155.823 212.809 159.598C212.678 159.723 212.54 159.841 212.396 159.95L212.624 160.564ZM218.14 155.257C220.304 152.541 222.248 149.656 223.952 146.63C225.09 144.474 226.246 142.35 227.386 140.205C228.498 137.737 229.519 135.227 230.622 132.772C233.68 126.469 236.319 120.66 239.481 114.878C243.456 107.734 247.986 100.832 253.663 95.3872C256.426 92.6429 259.35 90.0664 262.421 87.6714C263.369 86.9303 264.228 86.3362 265.115 85.7603C263.631 87.0666 262.107 88.4046 260.803 89.8402C259.728 90.8891 258.522 91.8109 257.458 92.8575C255.908 94.6008 254.454 96.4075 252.974 98.2075C250.757 100.86 248.963 103.805 247.009 106.653C245.239 108.887 243.719 111.319 242.126 113.671C240.828 115.451 239.661 117.323 238.634 119.272C237.757 120.881 237.028 122.566 236.453 124.306C235.964 125.58 235.03 127.46 234.651 128.336C233.023 132.002 230.621 135.738 228.32 139.749C226.135 143.514 224.068 147.337 221.75 151.022C220.12 153.369 218.959 155.707 216.882 157.343C216.393 157.758 215.861 158.12 215.295 158.422C216.315 157.451 217.252 156.395 218.095 155.266L218.14 155.257Z" fill="white"/>
<path d="M267.221 98.6438C269.939 98.105 272.601 97.283 275.362 96.9005C278.743 95.9891 282.171 95.2624 285.631 94.7239C282.049 94.9261 278.488 95.4114 274.983 96.1752C272.25 96.5854 269.549 97.1838 266.898 97.9662C264.424 98.6684 261.901 99.1804 259.438 99.9393C259.297 99.9932 259.147 100.023 258.996 100.027C259.14 100.027 259.283 99.9992 259.415 99.9438C262.022 99.5565 264.647 99.2598 267.221 98.6438Z" fill="white"/>
<path d="M289.708 90.4197C286.839 91.1709 283.926 91.7482 280.987 92.1484C279.703 92.3205 278.47 92.8121 277.177 92.9978C277.173 93.0093 277.172 93.0217 277.175 93.0336C277.177 93.0455 277.183 93.0566 277.191 93.0658C279.093 92.8652 280.5 92.5982 282.334 92.47C284.865 92.0839 287.341 91.3955 289.708 90.4197Z" fill="white"/>
<path d="M288.106 89.5133C290.249 88.9826 291.896 88.2087 293.985 87.6417C291.611 87.9592 289.368 88.8158 287.01 89.2126C285.368 89.5381 284.03 89.4384 282.218 89.621C282.061 89.6411 281.906 89.6718 281.753 89.7131C281.855 89.6929 281.969 89.6704 282.093 89.7046C284.096 89.9199 286.12 89.8555 288.106 89.5133Z" fill="white"/>
<path d="M269.895 115.817C267.734 116.14 265.659 116.834 263.559 117.344C265.727 117.107 267.856 116.594 269.895 115.817Z" fill="white"/>
<path d="M249.164 122.929C251.905 122.15 255.594 120.807 258.609 119.75C255.325 120.401 252.072 121.27 248.861 122.236C246.392 123.175 243.838 123.87 241.233 124.313C243.937 124.316 246.621 123.848 249.164 122.929Z" fill="white"/>
<path d="M249.557 124.558C245.748 125.136 241.976 125.931 238.258 126.939C239.644 126.864 241.008 126.559 242.41 126.445C244.834 125.988 247.223 125.357 249.557 124.558Z" fill="white"/>
<path d="M243.505 121.578C246.86 120.929 250.158 120.019 253.371 118.857C249.844 119.65 246.196 120.068 242.79 121.296C241.696 121.713 240.63 122.277 239.636 122.545C240.953 122.346 242.249 122.023 243.505 121.578Z" fill="white"/>
<path d="M286.713 78.6897C284.779 77.4251 282.204 77.5588 280.038 78.094C282.257 77.9503 284.485 78.152 286.643 78.6918L286.787 78.7691L286.713 78.6897Z" fill="white"/>
<path d="M283.056 75.0824C285.425 75.5337 287.833 75.7464 290.244 75.7174C287.888 75.1812 285.47 74.9676 283.056 75.0824Z" fill="white"/>
<path d="M296.552 78.6808C298.789 78.8613 301.063 78.8697 303.286 79.0411C301.1 78.3983 298.794 78.2749 296.552 78.6808Z" fill="white"/>
<path d="M265.608 65.6277C266.699 64.5614 267.707 63.4132 268.623 62.1932C270.051 60.6749 271.654 59.3301 273.396 58.1865C271.343 58.9687 269.502 60.2248 268.026 61.8525C267.041 63.1189 266.289 64.551 265.277 65.7992L264.948 66.2176L265.608 65.6277Z" fill="white"/>
<path d="M267.848 59.8867C265.553 61.2836 263.615 63.1951 262.186 65.4702C264.121 63.6506 265.938 61.7131 267.848 59.8867Z" fill="white"/>
<path d="M256.423 88.4128C256.903 87.2112 256.579 85.8746 256.779 84.6227C257.511 81.9242 258.443 79.2842 259.568 76.7246C258.044 79.3102 256.124 82.0333 256.067 85.1287C256.224 86.1982 256.273 87.281 256.213 88.3603C256.142 88.6568 256.042 88.9828 255.956 89.2589C256.131 88.9881 256.287 88.7053 256.423 88.4128Z" fill="white"/>
<path d="M261.697 79.9277C261.209 81.0758 260.89 82.2889 260.751 83.5288C261.203 82.3685 261.521 81.1603 261.697 79.9277Z" fill="white"/>
<path d="M253.498 93.2541C253.815 92.4773 254.049 91.6694 254.197 90.8437C254.259 90.0627 254.241 89.2775 254.145 88.4999C254.102 86.8604 254.248 85.2189 254.276 83.5773C254.233 80.69 254.899 77.8742 255.133 75.0146C255.212 72.3858 255.078 69.752 254.936 67.1318C254.695 70.0163 254.624 72.926 254.203 75.7875C253.593 78.5145 253.297 81.3022 253.319 84.0965C253.298 85.6813 253.377 87.2658 253.553 88.8409C253.887 90.2 253.856 91.6229 253.465 92.9665C253.406 93.2283 253.372 93.4952 253.364 93.7634C253.392 93.5898 253.437 93.4192 253.498 93.2541Z" fill="white"/>
<path d="M250.51 94.8697C252.814 89.0925 251.396 82.7701 250.242 76.8896C250.408 80.6353 250.857 83.9127 250.86 87.5494C251.113 89.9161 250.979 92.3082 250.463 94.6319C250.416 94.8474 250.401 95.0685 250.417 95.2884C250.43 95.1455 250.462 95.0048 250.51 94.8697Z" fill="white"/>
<path d="M237.547 89.1528C237.449 86.818 236.686 84.5092 236.386 82.1673C236.059 79.0893 236.388 75.4691 236.367 72.0361C235.742 76.068 234.734 80.3053 236.022 84.311C236.54 86.0918 237.05 87.2973 237.479 89.2251L237.558 89.6215L237.547 89.1528Z" fill="white"/>
<path d="M235.351 100.453C235.081 99.4007 234.87 98.3344 234.718 97.2589C234.963 93.4576 234.365 89.6491 232.966 86.1058C233.507 88.6377 233.806 91.2156 233.857 93.8042C233.827 95.178 233.903 96.5521 234.083 97.9145C234.294 98.7251 234.55 99.5231 234.851 100.305C235.094 101.165 235.421 101.999 235.827 102.795C235.617 102.026 235.458 101.243 235.351 100.453Z" fill="white"/>
<path d="M237.557 110.28C236.572 113.071 235.914 115.967 235.594 118.909C236.59 116.121 237.249 113.224 237.557 110.28Z" fill="white"/>
<path d="M233.479 120.293C233.361 119.699 233.21 119.112 233.025 118.535C232.517 115.976 232.015 113.439 231.509 110.89C231.444 113.648 231.756 116.402 232.437 119.076C233.039 120.621 233.288 122.281 233.165 123.934C233.455 122.744 233.561 121.516 233.479 120.293Z" fill="white"/>
<path d="M225.094 99.7202C225.832 103.447 226.688 107.762 229.122 110.599C227.334 107.222 226.75 103.324 225.094 99.7202Z" fill="white"/>
<path d="M227.367 132.393C226.882 130.299 226.964 125.845 226.396 122.686C226.194 125.998 226.061 129.426 227.299 132.583C227.373 132.721 227.374 132.368 227.367 132.393Z" fill="white"/>
<path d="M226.372 129.859C225.755 126.745 224.324 123.803 224.053 120.596C223.667 123.815 224.909 127.407 225.747 129.854C226.007 131.213 226.47 132.526 227.119 133.748C226.729 132.483 226.479 131.179 226.372 129.859Z" fill="white"/>
<path d="M228.78 130.606C229.274 128.261 229.913 125.949 230.691 123.683C228.556 127.052 227.641 131.052 228.1 135.014C228.157 133.524 228.385 132.045 228.78 130.606Z" fill="white"/>
<path d="M230.944 139.147C231.984 138.459 232.515 137.93 233.471 137.41C236.595 135.521 239.479 133.262 242.061 130.682C239.388 132.459 236.994 134.04 234.37 136.067C233.096 136.943 231.928 137.965 230.889 139.111C230.769 139.217 230.576 139.373 230.529 139.43L230.944 139.147Z" fill="white"/>
</g>
<defs>
<clipPath id="clip0_3248_15123">
<rect width="66.31" height="142.97" fill="white" transform="translate(53 62.5859) rotate(-70.7064)"/>
</clipPath>
<clipPath id="clip1_3248_15123">
<rect width="159.3" height="63.97" fill="white" transform="translate(-48 116.007) rotate(-8.66754)"/>
</clipPath>
<clipPath id="clip2_3248_15123">
<rect width="66.31" height="142.97" fill="white" transform="translate(469.896 86) rotate(78.0981)"/>
</clipPath>
<clipPath id="clip3_3248_15123">
<rect width="95.1999" height="160.483" fill="white" transform="translate(351.42 36) rotate(78.7882)"/>
</clipPath>
</defs>
</svg>
