<svg width="20" height="20" viewBox="0 0 20 20" fill="none" xmlns="http://www.w3.org/2000/svg">
<path d="M2.5 5.00033V16.667C2.5 17.109 2.67559 17.5329 2.98816 17.8455C3.30072 18.1581 3.72464 18.3337 4.16667 18.3337H15.8333C16.2754 18.3337 16.6993 18.1581 17.0118 17.8455C17.3244 17.5329 17.5 17.109 17.5 16.667V5.00033C17.5 4.5583 17.3244 4.13437 17.0118 3.82181C16.6993 3.50925 16.2754 3.33366 15.8333 3.33366H14.1667V1.66699H12.5V3.33366H7.5V1.66699H5.83333V3.33366H4.16667C3.72464 3.33366 3.30072 3.50925 2.98816 3.82181C2.67559 4.13437 2.5 4.5583 2.5 5.00033V5.00033ZM15.8333 16.667H4.16667V6.66699H15.8333V16.667Z" fill="white"/>
</svg>
