<svg width="30" height="30" viewBox="0 0 30 30" fill="none" xmlns="http://www.w3.org/2000/svg">
<path d="M25.4621 7.5752L24.0277 8.78457C25.5013 10.5301 26.2869 12.7537 26.2368 15.0375C26.1867 17.3214 25.3045 19.5084 23.7559 21.1877L25.134 22.5002C26.9937 20.485 28.0533 17.86 28.1137 15.1185C28.1742 12.377 27.2312 9.70786 25.4621 7.6127V7.5752Z" fill="#575757"/>
<path d="M20.2312 11.2502C21.1152 12.2983 21.5858 13.6332 21.5547 15.0039C21.5237 16.3747 20.993 17.6869 20.0625 18.6939L21.4406 19.9689C22.6808 18.6249 23.3872 16.874 23.4269 15.0456C23.4666 13.2173 22.8369 11.4374 21.6563 10.0408L20.2312 11.2502ZM16.875 28.1252C16.751 28.1246 16.6283 28.0995 16.514 28.0512C16.3997 28.003 16.2962 27.9325 16.2094 27.8439L9.06563 20.6252H2.8125C2.56386 20.6252 2.3254 20.5264 2.14959 20.3506C1.97377 20.1748 1.875 19.9363 1.875 19.6877V10.3127C1.875 10.064 1.97377 9.82556 2.14959 9.64974C2.3254 9.47393 2.56386 9.37516 2.8125 9.37516H9.06563L16.2094 2.15641C16.385 1.9818 16.6226 1.88379 16.8703 1.88379C17.118 1.88379 17.3556 1.9818 17.5313 2.15641C17.7079 2.3295 17.809 2.56537 17.8125 2.81266V27.1877C17.8125 27.4363 17.7137 27.6748 17.5379 27.8506C17.3621 28.0264 17.1236 28.1252 16.875 28.1252ZM3.75 18.7502H9.45C9.57404 18.7507 9.69674 18.7758 9.811 18.8241C9.92526 18.8724 10.0288 18.9428 10.1156 19.0314L15.9375 24.9095V5.09078L10.1156 10.9689C10.0288 11.0575 9.92526 11.128 9.811 11.1762C9.69674 11.2245 9.57404 11.2496 9.45 11.2502H3.75V18.7502Z" fill="#575757"/>
</svg>
