<svg width="20" height="20" viewBox="0 0 20 20" fill="none" xmlns="http://www.w3.org/2000/svg">
<g clip-path="url(#clip0_3681_981)">
<path fill-rule="evenodd" clip-rule="evenodd" d="M6.22051 0.888008C7.19801 0.843008 7.50968 0.833008 9.99967 0.833008C12.4897 0.833008 12.8013 0.843841 13.778 0.888008C14.7547 0.932174 15.4213 1.08801 16.0047 1.31384C16.6155 1.54467 17.1697 1.90551 17.628 2.37217C18.0947 2.82967 18.4547 3.38301 18.6847 3.99467C18.9113 4.57801 19.0663 5.24467 19.1113 6.21968C19.1563 7.19884 19.1663 7.51051 19.1663 9.99967C19.1663 12.4897 19.1555 12.8013 19.1113 13.7788C19.0672 14.7538 18.9113 15.4205 18.6847 16.0038C18.4547 16.6156 18.0941 17.1698 17.628 17.628C17.1697 18.0947 16.6155 18.4547 16.0047 18.6847C15.4213 18.9113 14.7547 19.0663 13.7797 19.1113C12.8013 19.1563 12.4897 19.1663 9.99967 19.1663C7.50968 19.1663 7.19801 19.1555 6.22051 19.1113C5.24551 19.0672 4.57884 18.9113 3.99551 18.6847C3.38377 18.4546 2.82952 18.0941 2.37134 17.628C1.90499 17.1702 1.5441 16.6162 1.31384 16.0047C1.08801 15.4213 0.933008 14.7547 0.888008 13.7797C0.843008 12.8005 0.833008 12.4888 0.833008 9.99967C0.833008 7.50968 0.843841 7.19801 0.888008 6.22134C0.932174 5.24467 1.08801 4.57801 1.31384 3.99467C1.54444 3.38308 1.90561 2.8291 2.37217 2.37134C2.82971 1.90509 3.3834 1.54421 3.99467 1.31384C4.57801 1.08801 5.24467 0.933008 6.21968 0.888008H6.22051ZM13.7038 2.53801C12.7372 2.49384 12.4472 2.48467 9.99967 2.48467C7.55217 2.48467 7.26217 2.49384 6.29551 2.53801C5.40134 2.57884 4.91634 2.72801 4.59301 2.85384C4.16551 3.02051 3.85967 3.21801 3.53884 3.53884C3.23471 3.83472 3.00066 4.19491 2.85384 4.59301C2.72801 4.91634 2.57884 5.40134 2.53801 6.29551C2.49384 7.26217 2.48467 7.55217 2.48467 9.99967C2.48467 12.4472 2.49384 12.7372 2.53801 13.7038C2.57884 14.598 2.72801 15.083 2.85384 15.4063C3.00051 15.8038 3.23467 16.1647 3.53884 16.4605C3.83467 16.7647 4.19551 16.9988 4.59301 17.1455C4.91634 17.2713 5.40134 17.4205 6.29551 17.4613C7.26217 17.5055 7.55134 17.5147 9.99967 17.5147C12.448 17.5147 12.7372 17.5055 13.7038 17.4613C14.598 17.4205 15.083 17.2713 15.4063 17.1455C15.8338 16.9788 16.1397 16.7813 16.4605 16.4605C16.7647 16.1647 16.9988 15.8038 17.1455 15.4063C17.2713 15.083 17.4205 14.598 17.4613 13.7038C17.5055 12.7372 17.5147 12.4472 17.5147 9.99967C17.5147 7.55217 17.5055 7.26217 17.4613 6.29551C17.4205 5.40134 17.2713 4.91634 17.1455 4.59301C16.9788 4.16551 16.7813 3.85967 16.4605 3.53884C16.1646 3.23473 15.8044 3.00068 15.4063 2.85384C15.083 2.72801 14.598 2.57884 13.7038 2.53801ZM8.82884 12.8255C9.48272 13.0977 10.2108 13.1344 10.8888 12.9294C11.5667 12.7244 12.1525 12.2904 12.546 11.7015C12.9395 11.1126 13.1164 10.4054 13.0464 9.7006C12.9764 8.99579 12.6638 8.33715 12.1622 7.83717C11.8424 7.51757 11.4557 7.27285 11.03 7.12063C10.6042 6.96841 10.15 6.91248 9.70009 6.95685C9.25014 7.00123 8.81564 7.14482 8.42784 7.37728C8.04005 7.60974 7.70863 7.92529 7.45743 8.30122C7.20623 8.67714 7.0415 9.10408 6.9751 9.55131C6.90871 9.99854 6.9423 10.4549 7.07346 10.8876C7.20461 11.3203 7.43008 11.7185 7.73361 12.0536C8.03714 12.3887 8.4112 12.6523 8.82884 12.8255ZM6.66801 6.66801C7.10553 6.23049 7.62494 5.88343 8.19659 5.64664C8.76824 5.40986 9.38093 5.28799 9.99967 5.28799C10.6184 5.28799 11.2311 5.40986 11.8028 5.64664C12.3744 5.88343 12.8938 6.23049 13.3313 6.66801C13.7689 7.10553 14.1159 7.62494 14.3527 8.19659C14.5895 8.76824 14.7114 9.38093 14.7114 9.99967C14.7114 10.6184 14.5895 11.2311 14.3527 11.8028C14.1159 12.3744 13.7689 12.8938 13.3313 13.3313C12.4477 14.215 11.2493 14.7114 9.99967 14.7114C8.75006 14.7114 7.55162 14.215 6.66801 13.3313C5.7844 12.4477 5.28799 11.2493 5.28799 9.99967C5.28799 8.75006 5.7844 7.55162 6.66801 6.66801ZM15.7563 5.98968C15.8648 5.8874 15.9516 5.76441 16.0116 5.62799C16.0716 5.49156 16.1037 5.34448 16.1059 5.19545C16.108 5.04642 16.0803 4.89846 16.0242 4.76035C15.9682 4.62224 15.885 4.49677 15.7796 4.39137C15.6742 4.28598 15.5488 4.20281 15.4107 4.14677C15.2726 4.09074 15.1246 4.06299 14.9756 4.06516C14.8265 4.06733 14.6795 4.09939 14.543 4.15942C14.4066 4.21946 14.2836 4.30625 14.1813 4.41467C13.9824 4.62553 13.8735 4.90561 13.8778 5.19545C13.882 5.48529 13.999 5.76207 14.204 5.96704C14.4089 6.17201 14.6857 6.28903 14.9756 6.29326C15.2654 6.29748 15.5455 6.18858 15.7563 5.98968Z" fill="white"/>
</g>
<defs>
<clipPath id="clip0_3681_981">
<rect width="20" height="20" fill="white"/>
</clipPath>
</defs>
</svg>
