<svg width="20" height="20" viewBox="0 0 20 20" fill="none" xmlns="http://www.w3.org/2000/svg">
<path fill-rule="evenodd" clip-rule="evenodd" d="M6.22148 0.888984C7.19898 0.843984 7.51065 0.833984 10.0007 0.833984C12.4907 0.833984 12.8023 0.844818 13.779 0.888984C14.7557 0.933151 15.4223 1.08898 16.0057 1.31482C16.6165 1.54565 17.1707 1.90648 17.629 2.37315C18.0957 2.83065 18.4557 3.38398 18.6857 3.99565C18.9123 4.57898 19.0673 5.24565 19.1123 6.22065C19.1573 7.19982 19.1673 7.51148 19.1673 10.0007C19.1673 12.4907 19.1565 12.8023 19.1123 13.7798C19.0682 14.7548 18.9123 15.4215 18.6857 16.0048C18.4556 16.6166 18.0951 17.1708 17.629 17.629C17.1707 18.0957 16.6165 18.4557 16.0057 18.6857C15.4223 18.9123 14.7557 19.0673 13.7807 19.1123C12.8023 19.1573 12.4907 19.1673 10.0007 19.1673C7.51065 19.1673 7.19898 19.1565 6.22148 19.1123C5.24648 19.0682 4.57982 18.9123 3.99648 18.6857C3.38475 18.4556 2.8305 18.095 2.37232 17.629C1.90597 17.1712 1.54508 16.6172 1.31482 16.0057C1.08898 15.4223 0.933984 14.7557 0.888984 13.7807C0.843984 12.8015 0.833984 12.4898 0.833984 10.0007C0.833984 7.51065 0.844818 7.19898 0.888984 6.22232C0.933151 5.24565 1.08898 4.57898 1.31482 3.99565C1.54542 3.38405 1.90658 2.83008 2.37315 2.37232C2.83068 1.90607 3.38438 1.54519 3.99565 1.31482C4.57898 1.08898 5.24565 0.933984 6.22065 0.888984H6.22148ZM13.7048 2.53898C12.7382 2.49482 12.4482 2.48565 10.0007 2.48565C7.55315 2.48565 7.26315 2.49482 6.29648 2.53898C5.40232 2.57982 4.91732 2.72898 4.59398 2.85482C4.16648 3.02148 3.86065 3.21898 3.53982 3.53982C3.23569 3.83569 3.00163 4.19589 2.85482 4.59398C2.72898 4.91732 2.57982 5.40232 2.53898 6.29648C2.49482 7.26315 2.48565 7.55315 2.48565 10.0007C2.48565 12.4482 2.49482 12.7382 2.53898 13.7048C2.57982 14.599 2.72898 15.084 2.85482 15.4073C3.00148 15.8048 3.23565 16.1657 3.53982 16.4615C3.83565 16.7657 4.19648 16.9998 4.59398 17.1465C4.91732 17.2723 5.40232 17.4215 6.29648 17.4623C7.26315 17.5065 7.55232 17.5157 10.0007 17.5157C12.449 17.5157 12.7382 17.5065 13.7048 17.4623C14.599 17.4215 15.084 17.2723 15.4073 17.1465C15.8348 16.9798 16.1407 16.7823 16.4615 16.4615C16.7657 16.1657 16.9998 15.8048 17.1465 15.4073C17.2723 15.084 17.4215 14.599 17.4623 13.7048C17.5065 12.7382 17.5157 12.4482 17.5157 10.0007C17.5157 7.55315 17.5065 7.26315 17.4623 6.29648C17.4215 5.40232 17.2723 4.91732 17.1465 4.59398C16.9798 4.16648 16.7823 3.86065 16.4615 3.53982C16.1656 3.23571 15.8054 3.00166 15.4073 2.85482C15.084 2.72898 14.599 2.57982 13.7048 2.53898V2.53898ZM8.82982 12.8265C9.4837 13.0987 10.2118 13.1354 10.8898 12.9304C11.5677 12.7254 12.1535 12.2914 12.547 11.7025C12.9405 11.1136 13.1174 10.4064 13.0474 9.70157C12.9774 8.99677 12.6648 8.33813 12.1632 7.83815C11.8433 7.51855 11.4567 7.27383 11.0309 7.12161C10.6052 6.96939 10.151 6.91345 9.70106 6.95783C9.25112 7.00221 8.81661 7.1458 8.42882 7.37826C8.04103 7.61072 7.7096 7.92627 7.4584 8.30219C7.2072 8.67812 7.04248 9.10506 6.97608 9.55229C6.90969 9.99951 6.94328 10.4559 7.07443 10.8886C7.20559 11.3213 7.43105 11.7195 7.73459 12.0546C8.03812 12.3897 8.41217 12.6533 8.82982 12.8265ZM6.66898 6.66898C7.10651 6.23146 7.62592 5.8844 8.19757 5.64762C8.76921 5.41083 9.3819 5.28896 10.0007 5.28896C10.6194 5.28896 11.2321 5.41083 11.8037 5.64762C12.3754 5.8844 12.8948 6.23146 13.3323 6.66898C13.7698 7.10651 14.1169 7.62592 14.3537 8.19757C14.5905 8.76921 14.7123 9.3819 14.7123 10.0007C14.7123 10.6194 14.5905 11.2321 14.3537 11.8037C14.1169 12.3754 13.7698 12.8948 13.3323 13.3323C12.4487 14.2159 11.2503 14.7123 10.0007 14.7123C8.75103 14.7123 7.5526 14.2159 6.66898 13.3323C5.78537 12.4487 5.28896 11.2503 5.28896 10.0007C5.28896 8.75103 5.78537 7.5526 6.66898 6.66898V6.66898ZM15.7573 5.99065C15.8657 5.88838 15.9525 5.76539 16.0126 5.62896C16.0726 5.49254 16.1047 5.34546 16.1068 5.19643C16.109 5.04739 16.0813 4.89944 16.0252 4.76133C15.9692 4.62321 15.886 4.49774 15.7806 4.39235C15.6752 4.28696 15.5498 4.20378 15.4116 4.14775C15.2735 4.09172 15.1256 4.06396 14.9765 4.06614C14.8275 4.06831 14.6804 4.10036 14.544 4.1604C14.4076 4.22043 14.2846 4.30723 14.1823 4.41565C13.9834 4.62651 13.8745 4.90659 13.8787 5.19643C13.883 5.48627 14 5.76305 14.2049 5.96802C14.4099 6.17299 14.6867 6.29001 14.9765 6.29423C15.2664 6.29846 15.5465 6.18956 15.7573 5.99065V5.99065Z" fill="#D7AF9F"/>
</svg>
