<svg width="20" height="20" viewBox="0 0 20 20" fill="none" xmlns="http://www.w3.org/2000/svg">
<path d="M2.5 4.99935L2.5 16.666C2.5 17.108 2.67559 17.532 2.98816 17.8445C3.30072 18.1571 3.72464 18.3327 4.16667 18.3327L15.8333 18.3327C16.2754 18.3327 16.6993 18.1571 17.0118 17.8445C17.3244 17.532 17.5 17.108 17.5 16.666L17.5 4.99935C17.5 4.55732 17.3244 4.1334 17.0118 3.82084C16.6993 3.50828 16.2754 3.33268 15.8333 3.33268L14.1667 3.33268L14.1667 1.66602L12.5 1.66602L12.5 3.33268L7.5 3.33268L7.5 1.66602L5.83333 1.66602L5.83333 3.33268L4.16667 3.33268C3.72464 3.33268 3.30072 3.50828 2.98816 3.82084C2.67559 4.1334 2.5 4.55732 2.5 4.99935ZM15.8333 16.666L4.16667 16.666L4.16667 6.66602L15.8333 6.66602L15.8333 16.666Z" fill="#D7AF9F"/>
</svg>
