<svg width="428" height="137" viewBox="0 0 428 137" fill="none" xmlns="http://www.w3.org/2000/svg">
<g clip-path="url(#clip0_3540_912)">
<path d="M365.994 75.4667C368.234 75.6063 370.479 75.2959 372.597 74.5539L372.893 74.4507L372.912 74.1312C373.217 68.81 370.927 63.1694 366.787 58.6846C363.343 54.991 358.726 52.0314 352.653 49.6292C351.811 49.3004 350.968 48.9815 350.124 48.6726C346.827 47.4816 343.426 46.1744 340.73 43.9461L338.225 41.8691L340.073 44.5695C342.723 48.2691 344.677 52.4205 345.84 56.8204C346.251 58.2062 346.68 59.6331 347.296 61.2912C350.209 69.1612 357.917 75.0028 365.994 75.4667ZM371.979 73.8072C370.067 74.4344 368.053 74.6927 366.045 74.5682C358.328 74.1249 350.956 68.543 348.105 60.9871C347.487 59.359 347.069 57.9226 346.665 56.5773C345.676 52.8709 344.122 49.339 342.058 46.1059C344.486 47.5037 347.047 48.6573 349.703 49.5499C350.547 49.8588 351.39 50.1777 352.212 50.5054C358.158 52.8502 362.67 55.7336 366.01 59.3111C369.808 63.1715 371.95 68.3616 371.98 73.7772L371.979 73.8072Z" fill="#D7AF9F"/>
<path d="M366.201 168.983L367.037 168.57C362.617 159.916 360.758 150.181 361.677 140.507C362.896 129.398 368.22 119.187 373.365 109.316C375.613 105.058 377.869 100.65 379.827 96.2147C381.497 92.6259 382.745 88.8557 383.547 84.9795C384.192 81.0209 384.423 77.0057 384.235 72.9993C383.949 62.2142 382.672 51.4784 380.418 40.9276L379.505 41.1256C381.734 51.6044 382.999 62.2653 383.285 72.9747C383.473 76.9312 383.246 80.8964 382.605 84.8052C381.825 88.6139 380.604 92.3187 378.966 95.8447C377.031 100.251 374.736 104.617 372.528 108.887C367.339 118.836 361.97 129.125 360.701 140.401C359.772 150.258 361.68 160.175 366.201 168.983Z" fill="#D7AF9F"/>
<path d="M421.941 137.638C423.303 137.718 424.669 137.556 425.975 137.159C427.035 136.793 428.065 136.347 429.057 135.823C430.018 135.31 431.022 134.878 432.056 134.533C435.981 133.326 440.344 134.629 443.849 135.681L446.321 136.424L444.267 134.864C441.118 132.479 438.591 129.039 436.237 125.728C432.887 121.109 429.436 116.323 424.062 114.141C420.892 112.947 417.488 112.508 414.119 112.859C408.789 113.224 404.644 114.759 401.837 117.422L401.722 117.516C392.988 114.71 386.669 113.286 380.444 114.24C373.493 115.293 367.491 119.506 364.792 125.161L365.641 125.56C368.215 120.159 373.943 116.171 380.592 115.16C386.654 114.246 392.804 115.641 401.373 118.357C402.371 119.817 403.305 121.333 404.212 122.817C406.023 126.007 408.161 129 410.59 131.748C413.336 134.68 417.498 137.383 421.941 137.638ZM436.443 133.142C434.883 133.032 433.317 133.199 431.817 133.638C430.735 134 429.684 134.449 428.674 134.98C427.721 135.487 426.728 135.915 425.706 136.262C420.22 137.95 414.476 134.545 411.228 131.103C408.844 128.4 406.747 125.456 404.971 122.32C404.128 120.959 403.267 119.558 402.365 118.164C405.047 115.593 409.029 114.109 414.208 113.746C417.435 113.41 420.696 113.827 423.734 114.964C428.862 117.061 432.241 121.723 435.507 126.237C437.434 129.075 439.63 131.72 442.065 134.136C440.238 133.607 438.36 133.274 436.463 133.144L436.443 133.142Z" fill="#D7AF9F"/>
<path d="M380.606 42.3798L380.868 41.6436C383.471 34.3409 381.323 25.1726 375.398 18.2915C370.701 12.8833 364.128 8.72952 354.585 5.19648L353.339 4.7343L354.016 5.86494C355.012 7.5348 354.685 9.5594 354.332 11.6927C354.205 12.5167 354.066 13.3602 354.008 14.1882C353.475 21.9103 360.172 27.7339 364.199 30.5194C365.894 31.6886 367.698 32.7237 369.428 33.8247C373.222 36.1261 377.171 38.5165 380.079 41.7786L380.606 42.3798ZM355.303 6.46976C364.173 9.86397 370.316 13.8327 374.672 18.9109C380.184 25.2975 382.305 33.723 380.207 40.594C377.259 37.5199 373.505 35.2008 369.896 32.9902C368.173 31.9497 366.383 30.8552 364.717 29.6878C360.864 27.0125 354.433 21.4445 354.92 14.1805C354.965 13.4018 355.112 12.5789 355.238 11.7848C355.672 10.0421 355.694 8.2225 355.303 6.46976Z" fill="#D7AF9F"/>
<path d="M368.501 102.466C368.575 102.47 368.649 102.459 368.719 102.435C368.79 102.41 368.854 102.371 368.909 102.321C368.964 102.271 369.009 102.211 369.04 102.143C369.072 102.076 369.089 102.003 369.092 101.929C369.111 101.599 369.216 100.994 369.295 100.318C369.426 99.2634 369.592 97.9408 369.682 97.4151C370.036 95.4251 369.709 93.374 368.755 91.5923C368.556 91.2203 368.336 90.8571 368.117 90.4939C367.514 89.678 367.112 88.732 366.943 87.7321L366.856 86.6253L366.127 87.4649C365.432 88.2909 364.824 89.1856 364.311 90.1351L364.044 90.6006C363.572 91.3066 363.278 92.1158 363.186 92.9597C363.094 93.8036 363.207 94.6572 363.515 95.4482C363.877 96.2685 364.352 97.0341 364.927 97.7229C365.374 98.2995 365.898 99.1309 366.413 99.9317C367.698 101.959 368.051 102.44 368.501 102.466ZM366.278 88.8458C366.556 89.5981 366.922 90.3151 367.367 90.9818C367.577 91.3344 367.788 91.677 367.979 92.0185C368.83 93.616 369.123 95.4519 368.811 97.2348C368.719 97.7905 368.555 99.0732 368.419 100.217C368.402 100.527 368.385 100.816 368.311 101.062C367.996 100.614 367.582 99.9689 367.252 99.4491C366.728 98.6277 366.186 97.7752 365.72 97.1675C365.194 96.5389 364.759 95.8395 364.427 95.0899C364.181 94.4387 364.092 93.7385 364.168 93.0465C364.245 92.3545 364.484 91.6904 364.866 91.1085C364.943 90.9928 365.043 90.8182 365.176 90.5955C365.496 89.9932 365.847 89.4082 366.228 88.8429L366.278 88.8458Z" fill="#D7AF9F"/>
<path d="M370.456 114.957C371.536 110.47 370.934 105.742 368.765 101.668L367.957 102.133C370.013 105.997 370.579 110.481 369.547 114.735L370.456 114.957Z" fill="#D7AF9F"/>
<path d="M385.516 46.7101L386.596 45.3498C387.352 44.3915 389.499 43.4531 392.973 42.611C395.726 41.9477 398.763 41.2107 400.547 38.9292C402.6 36.3226 402.266 32.7175 401.977 29.5458L401.991 29.3062C401.747 26.5877 401.697 22.7485 404.153 20.7961L405.098 20.0391L403.89 19.9697C400.455 19.7724 397.138 21.7254 393.951 25.7593C389.574 31.3377 386.771 37.9869 385.834 45.0155L385.516 46.7101ZM402.604 20.8975C400.667 23.2403 400.723 26.7993 400.965 29.3875L400.951 29.6271C401.218 32.6474 401.535 36.0311 399.719 38.3508C398.13 40.373 395.388 41.0368 392.737 41.6759C390.644 42.0849 388.631 42.8247 386.771 43.8674C387.845 37.4453 390.521 31.3979 394.552 26.2846C397.276 22.9854 399.975 21.1572 402.604 20.8975Z" fill="#D7AF9F"/>
<path d="M380.75 91.8404L381.678 91.8938C381.686 88.6088 380.239 85.5508 378.951 82.8626C377.388 79.5575 375.61 75.8194 372.486 73.3562L371.913 74.0945C374.854 76.417 376.579 80.0519 378.107 83.2548C379.35 85.8604 380.755 88.7757 380.75 91.8404Z" fill="#D7AF9F"/>
<path d="M364.366 126.488L365.294 126.381C364.742 121.638 363.425 117.015 361.392 112.695L360.548 113.087C362.535 117.319 363.824 121.844 364.366 126.488Z" fill="#D7AF9F"/>
<path d="M363.129 129.873L363.946 129.429C362.547 126.937 360.3 125.031 357.613 124.057L357.283 124.93C359.757 125.83 361.83 127.582 363.129 129.873Z" fill="#D7AF9F"/>
<path d="M390.251 123.828L390.919 123.176C386.789 119.086 381.461 116.422 375.71 115.571L375.577 116.495C381.123 117.32 386.262 119.888 390.251 123.828Z" fill="#D7AF9F"/>
<path d="M394.294 103.496L395.182 103.026C399.315 100.82 403.615 98.5025 407.09 95.2064C410.993 91.424 413.172 86.8013 413.084 82.399C412.989 80.7837 412.745 79.1805 412.358 77.6095C412.192 76.8287 412.036 76.0585 411.911 75.28C411.377 71.8654 411.459 68.3829 412.151 64.9969L412.499 63.294L411.343 64.5899C409.018 66.9647 406.38 69.0104 403.501 70.6702C402.461 71.3417 401.419 72.0431 400.376 72.7644C395.4 76.2148 392.658 79.8235 391.99 83.7917C391.441 87.0756 392.396 90.3157 393.318 93.4538C394.24 96.5918 395.13 99.5677 394.509 102.537L394.294 103.496ZM411.012 66.3338C410.558 69.3526 410.564 72.4228 411.03 75.4398C411.165 76.2288 411.321 77.009 411.485 77.7998C411.852 79.3179 412.078 80.8666 412.161 82.4261C412.245 86.5577 410.158 90.9653 406.458 94.529C403.28 97.5417 399.419 99.7139 395.586 101.757C395.909 98.9113 395.054 96.0075 394.225 93.1853C393.329 90.1289 392.402 87.0708 392.923 83.9454C393.546 80.2451 396.165 76.8397 400.923 73.5371C401.965 72.8257 403.006 72.1342 404.047 71.4628C406.53 69.9844 408.863 68.2666 411.012 66.3338Z" fill="#D7AF9F"/>
<path d="M376.777 116.352C381.106 113.953 385.239 111.216 389.137 108.167C391.254 106.531 393.277 104.778 395.198 102.916L394.546 102.248C392.644 104.082 390.646 105.813 388.558 107.433C384.697 110.448 380.607 113.157 376.324 115.535L376.777 116.352Z" fill="#D7AF9F"/>
<path d="M382.677 61.9408L383.611 61.8843C383.269 55.6576 384.626 49.4548 387.537 43.9399L386.71 43.5118C383.718 49.175 382.324 55.5456 382.677 61.9408Z" fill="#D7AF9F"/>
<path d="M361.42 113.587L361.455 112.968C361.426 110.952 360.869 108.98 359.841 107.246C356.224 100.457 349.184 95.8962 342.028 95.8056L340.939 95.7431L341.684 96.5472C342.444 97.3611 342.934 98.3897 343.088 99.4925C343.156 100.215 343.158 100.943 343.093 101.666C343.019 102.484 343.029 103.307 343.122 104.122C343.376 105.326 343.901 106.457 344.657 107.427C345.414 108.398 346.382 109.182 347.489 109.722C349.6 110.738 351.854 111.428 354.172 111.768C356.425 112.185 358.654 112.718 360.852 113.364L361.42 113.587ZM343.002 96.7932C349.446 97.2634 355.702 101.529 358.992 107.728C359.817 109.151 360.327 110.735 360.488 112.371C358.596 111.822 356.538 111.393 354.38 110.949C352.137 110.625 349.956 109.963 347.912 108.985C346.932 108.514 346.074 107.826 345.4 106.973C344.727 106.121 344.258 105.126 344.027 104.064C343.933 103.316 343.926 102.559 344.007 101.809C344.076 101.025 344.071 100.237 343.992 99.4543C343.862 98.5053 343.524 97.5966 343.002 96.7932Z" fill="#D7AF9F"/>
<path d="M349.679 129.33C350.763 129.36 351.838 129.126 352.813 128.649C354.787 127.786 356.512 126.438 357.826 124.73L358.097 124.365L357.743 124.084C354.869 121.796 351.376 118.961 347.214 118.351C345.963 118.145 344.68 118.24 343.472 118.627C342.569 118.994 341.719 119.481 340.945 120.074L340.038 120.693C338.873 121.402 337.615 121.943 336.3 122.302L334.548 122.802L336.328 123.205C336.644 123.283 336.98 123.352 337.317 123.422C339.405 123.862 342.265 124.467 344.068 126.033L344.679 126.569C346.089 127.822 347.538 129.107 349.44 129.307L349.679 129.33ZM356.796 124.521C355.615 125.932 354.125 127.053 352.441 127.796C351.597 128.204 350.669 128.408 349.732 128.392L349.573 128.383C347.96 128.21 346.646 127.023 345.33 125.875L344.72 125.329C342.906 123.773 340.292 123.072 338.193 122.651C339.01 122.34 339.794 121.949 340.533 121.483L341.482 120.846C342.185 120.299 342.959 119.848 343.782 119.506C344.848 119.17 345.978 119.091 347.081 119.275C350.845 119.832 354.115 122.363 356.796 124.521Z" fill="#D7AF9F"/>
<path d="M403.799 142.926L403.446 141.042C403.216 139.817 402.961 138.681 402.705 137.554L402.625 137.199C401.874 133.89 401.088 130.47 399.174 127.535C398.334 126.15 397.189 124.975 395.826 124.1C394.464 123.225 392.919 122.673 391.31 122.486C390.997 122.465 390.682 122.463 390.369 122.482L389.715 122.524L389.971 123.13C390.311 124.407 390.268 125.756 389.848 127.009C389.595 127.984 389.456 128.984 389.437 129.991C389.489 132.398 390.881 134.491 392.233 136.231C393.239 137.723 394.648 138.898 396.296 139.62C397.164 139.877 398.059 140.036 398.963 140.094C400.427 140.238 401.822 140.368 402.605 141.385L403.799 142.926ZM391.267 123.415C392.73 123.593 394.132 124.103 395.367 124.907C396.602 125.711 397.637 126.786 398.393 128.051C400.236 130.841 400.974 134.209 401.712 137.407L401.791 137.762C401.951 138.472 402.11 139.183 402.268 139.923C401.257 139.476 400.17 139.226 399.065 139.188C398.232 139.141 397.407 139 396.605 138.766C395.146 138.107 393.898 137.054 393.004 135.725C391.744 134.11 390.453 132.173 390.405 130.046C390.428 129.1 390.559 128.16 390.796 127.244C391.162 126.012 391.257 124.716 391.075 123.444L391.267 123.415Z" fill="#D7AF9F"/>
<path d="M366.101 143.004L366.66 143.036C369.6 143.134 372.919 143.065 374.959 140.858C376.054 139.468 376.77 137.818 377.037 136.069C377.285 134.54 377.871 133.085 378.754 131.811L379.496 130.922L378.347 131.046C376.279 131.276 374.294 131.985 372.549 133.117C371.606 133.747 370.563 134.212 369.465 134.493C368.885 134.581 368.329 134.784 367.828 135.09C367.404 135.494 367.077 135.989 366.872 136.537C366.667 137.086 366.589 137.674 366.644 138.257L366.592 139.165C366.591 140.275 366.49 141.382 366.292 142.474L366.101 143.004ZM377.404 132.124C376.812 133.298 376.383 134.547 376.129 135.837C375.893 137.431 375.255 138.939 374.274 140.218C372.619 142.006 369.825 142.166 367.235 142.107C367.363 141.138 367.436 140.162 367.452 139.185L367.505 138.266C367.462 137.824 367.515 137.377 367.66 136.957C367.805 136.536 368.039 136.152 368.346 135.831C368.713 135.611 369.119 135.467 369.542 135.408C370.785 135.116 371.967 134.607 373.034 133.906C374.365 133.042 375.848 132.437 377.404 132.124Z" fill="#D7AF9F"/>
<path d="M386.406 62.9564C386.55 62.8331 386.682 62.6965 386.8 62.5483C386.974 62.3632 387.208 62.2454 387.46 62.2156C387.675 62.2159 387.886 62.273 388.072 62.381C388.236 62.4556 388.407 62.5157 388.582 62.5606C389.302 62.7252 390.057 62.6188 390.703 62.2617C391.636 61.8013 392.413 61.076 392.936 60.1763C393.048 59.9724 393.149 59.7779 393.241 59.5728C393.358 59.3226 393.489 59.0793 393.634 58.8441C393.825 58.5131 394.137 58.269 394.504 58.1629L396.479 57.7955L394.509 57.2116C393.811 56.995 393.133 56.7181 392.483 56.3841C391.917 56.1452 391.293 56.0772 390.689 56.1885C390.084 56.2997 389.526 56.5853 389.081 57.01C388.319 57.814 387.73 58.7652 387.348 59.8053C387.039 60.554 386.631 61.2581 386.136 61.8992L385.753 62.2979L386.406 62.9564ZM393.293 57.8028C393.126 57.9637 392.977 58.1434 392.851 58.3384C392.683 58.6026 392.533 58.8785 392.403 59.1641C392.313 59.3492 392.222 59.5343 392.122 59.7088C391.692 60.4639 391.042 61.0696 390.259 61.4449C389.812 61.7001 389.288 61.7873 388.782 61.6906L388.39 61.5479C388.146 61.4357 387.887 61.3568 387.622 61.3134C387.813 60.9638 387.984 60.593 388.155 60.2322C388.513 59.3208 389.044 58.4873 389.718 57.7778C390.023 57.4812 390.406 57.2771 390.823 57.1894C391.239 57.1016 391.672 57.1337 392.071 57.2819C392.316 57.3661 392.755 57.5816 393.293 57.8028Z" fill="#D7AF9F"/>
<path d="M383.941 66.7916C384.514 65.3493 385.369 64.0362 386.457 62.9295L385.793 62.2704C384.622 63.4653 383.696 64.879 383.07 66.4311L383.941 66.7916Z" fill="#D7AF9F"/>
<path d="M346.864 101.953C348.866 104.072 351.572 105.449 354.108 106.977C356.625 108.409 358.807 110.361 360.51 112.703C358.49 110.384 355.725 108.813 353.127 107.141C350.522 105.86 348.233 104.018 346.425 101.748C346.173 101.433 345.819 100.962 345.654 100.702C346.06 101.126 346.477 101.54 346.864 101.953Z" fill="#D7AF9F"/>
<path d="M351.317 123.655C353.246 123.644 355.162 123.985 356.969 124.66C355.198 124.298 353.388 124.164 351.583 124.261C348.8 124.166 346.045 123.67 343.404 122.79C346.035 123.191 348.631 123.51 351.317 123.655Z" fill="#D7AF9F"/>
<path d="M372.785 136.688C370.635 139.238 367.532 140.953 365.382 143.514C366.785 140.7 370.207 138.673 372.785 136.688Z" fill="#D7AF9F"/>
<path d="M392.353 125.071C394.308 127.297 395.061 130.235 396.025 132.804C396.165 133.153 396.37 133.595 396.493 133.893C396.152 133.382 395.842 132.854 395.581 132.338C394.203 129.645 393.217 126.593 391.332 124.351C391.006 123.908 390.586 123.542 390.102 123.279C390.999 123.664 391.776 124.283 392.353 125.071Z" fill="#D7AF9F"/>
<path d="M392.579 36.8876C395.027 33.8246 397.276 30.6081 399.312 27.2578C398.022 30.7095 395.063 34.9668 392.367 38.1474C390.521 40.4654 388.503 42.2827 386.888 44.7642C388.268 41.8385 390.52 39.4237 392.579 36.8876Z" fill="#D7AF9F"/>
<path d="M413.355 120.417C409.712 119.667 405.482 119.183 401.632 118.041C410.581 119.176 420.507 119.886 427.404 126.412C428.769 127.583 429.879 128.658 431.225 129.637C431.444 129.85 431.896 129.996 431.795 130.361C431.779 130.406 431.754 130.448 431.721 130.483C431.687 130.518 431.647 130.545 431.602 130.562C431.557 130.58 431.509 130.587 431.461 130.584C431.413 130.581 431.366 130.567 431.324 130.544C430.662 130.195 429.939 129.893 429.078 129.524C427.765 129.003 426.519 128.326 425.368 127.507C423.866 126.279 422.663 124.718 421.279 123.366C421.119 123.187 420.747 122.855 420.672 122.76C422.302 123.856 423.911 125.501 425.229 126.618C426.501 127.584 427.902 128.366 429.392 128.941C427.914 127.654 426.535 126.372 424.932 125.159C421.475 122.734 417.519 121.114 413.355 120.417Z" fill="#D7AF9F"/>
<path d="M350.007 54.9067C352.791 56.0963 355.499 57.4561 358.117 58.9785C360.793 60.766 363.251 62.8603 365.441 65.2187C366.815 66.5804 368.07 68.0566 369.194 69.6312C370.084 70.9929 371.06 72.2969 372.115 73.5351C370.848 72.4133 369.695 71.1694 368.672 69.8216C367.272 68.0842 365.779 66.4236 364.2 64.847C362.025 62.5847 359.583 60.5946 356.928 58.9202C355.248 57.8221 352.863 56.8036 351.245 56.0196C351.669 56.3144 352.112 56.6103 352.516 56.9139C354.859 58.6657 357.091 60.5602 359.201 62.5866L358.759 62.2707C356.284 60.536 354.077 58.8566 351.764 57.1011C351.098 56.6454 350.458 56.1538 349.845 55.6287C349.731 55.5274 349.645 55.3982 349.596 55.2538C349.586 55.2001 349.591 55.1448 349.609 55.0935C349.628 55.0422 349.659 54.9966 349.701 54.9614C349.743 54.9262 349.793 54.9026 349.847 54.893C349.9 54.8834 349.955 54.8882 350.007 54.9067Z" fill="#D7AF9F"/>
<path d="M358.429 9.06318C360.646 11.3229 362.676 13.7575 364.502 16.3434C367.81 21.0107 371.138 25.6693 374.113 30.5479C374.324 30.8806 374.894 31.5944 374.196 31.7146C373.782 31.5972 373.409 31.3639 373.123 31.0419C371.093 29.1719 369.201 27.1585 367.459 25.0172C368.56 26.0821 369.661 27.147 370.796 28.1337C371.663 28.9147 372.751 30.0289 373.562 30.7166C370.797 26.5511 366.747 20.499 363.074 15.5702C361.471 13.4749 359.799 11.3755 358.039 9.40137C357.12 8.26246 356.04 7.26255 354.834 6.4327C356.174 7.09819 357.39 7.98784 358.429 9.06318Z" fill="#D7AF9F"/>
<path d="M397.208 95.3194C398.502 91.7878 400.419 88.4221 401.914 85.2326C403.491 81.9008 404.7 78.4065 405.517 74.8121C405.625 74.3375 405.633 74.1977 405.724 73.8224C405.735 73.7789 405.755 73.7383 405.783 73.7035C405.811 73.6688 405.846 73.6407 405.886 73.6213C406.306 73.4651 406.369 73.9295 406.362 74.2396C406.392 75.1027 406.313 75.9596 406.264 76.8182C406.115 79.599 405.725 82.3616 405.098 85.075C405.103 85.1551 405.099 85.2355 405.084 85.3146C405.163 83.9468 405.342 82.5748 405.441 81.1982C405.54 79.8217 405.603 78.3729 405.685 76.9452C405.391 78.0502 405.035 79.2017 404.666 80.2222C403.3 84.4708 400.966 88.4736 399.205 92.2789C397.812 95.4405 396.622 98.6876 395.642 102.001C395.995 99.7372 396.518 97.5037 397.208 95.3194Z" fill="#D7AF9F"/>
</g>
<g clip-path="url(#clip1_3540_912)">
<path d="M55.6047 201.748C47.3949 184.703 38.9034 167.076 35.0094 148.155C30.6743 126.986 33.2245 107.093 42.1909 92.1361C49.239 80.3688 59.9754 71.627 70.3197 63.1764L89.6621 47.4329L90.2497 48.1673L70.9083 63.9009C60.589 72.3038 49.9195 80.9821 42.9565 92.6074C34.1112 107.366 31.5956 127.021 35.8847 147.954C39.7293 166.769 48.206 184.344 56.3902 201.347L55.6047 201.748Z" fill="#D7AF9F"/>
<path d="M38.7912 98.9516C37.4164 90.9577 35.8759 81.9414 37.575 73.8734C38.6593 69.4735 40.1998 65.1988 42.1716 61.1187C43.0921 59.0222 44.0508 56.8493 44.8482 54.6799C47.8023 46.8221 48.0595 40.2537 45.6142 35.1249L46.4594 34.7298C49.0223 40.0819 48.7693 46.902 45.7188 55.0112C44.8994 57.1985 43.9397 59.3813 43.038 61.4898C41.091 65.5205 39.5693 69.7433 38.4976 74.0895C36.839 81.9606 38.3658 90.9152 39.7132 98.7856L38.7912 98.9516Z" fill="#D7AF9F"/>
<path d="M39.611 67.2977C38.8213 58.1178 36.4137 52.1383 32.035 48.4985L32.6324 47.7762C38.6483 52.7917 40.0335 61.2692 40.5446 67.2133L39.611 67.2977Z" fill="#D7AF9F"/>
<path d="M55.6131 77.0468L54.7306 76.7343C56.0397 73.0193 58.3573 69.7605 60.5829 66.6128C62.8852 63.6473 64.79 60.3935 66.2488 56.9343C66.8418 55.1933 67.3245 53.4165 67.6938 51.6147C68.0059 50.2496 68.3221 48.8447 68.7347 47.4799C69.986 43.4385 72.1105 39.7215 74.9579 36.5924L75.6473 37.2166C72.9028 40.2495 70.8561 43.8468 69.6512 47.7556C69.2417 49.0906 68.9275 50.4756 68.6274 51.8219C68.252 53.6646 67.7551 55.4805 67.1402 57.2577C65.6561 60.7944 63.7168 64.1222 61.3712 67.1567C59.1507 70.2547 56.879 73.458 55.6131 77.0468Z" fill="#D7AF9F"/>
<path d="M45.1675 89.0043L44.7095 88.1829C50.0441 85.2059 56.3213 81.864 63.0361 80.0251C70.2819 78.0099 77.1864 78.0304 83.0263 80.0821C86.8005 81.565 90.3942 83.4712 93.7385 85.7644C98.5711 88.8077 103.178 91.697 108.51 92.2485L108.908 92.2896L108.812 93.2147C103.049 92.7494 98.047 89.598 93.2224 86.5756C89.9332 84.3221 86.4008 82.4459 82.6919 80.9825C75.539 78.5034 68.1869 79.6028 63.2687 80.9841C56.6626 82.7438 50.4602 86.0432 45.1675 89.0043Z" fill="#D7AF9F"/>
<path d="M83.3417 80.9199L83.0622 80.0264L84.5494 79.5469C89.1821 77.5928 94.3722 77.4138 99.1284 79.0442L101.005 79.4694C103.767 80.0768 107.313 80.5844 110.32 79.2165L110.704 80.0706C107.455 81.5441 103.71 81.016 100.809 80.3842L98.9134 79.9569C96.4431 79.2419 93.8814 78.8922 91.3098 78.9191C89.0972 79.1587 86.9231 79.6734 84.8379 80.4513L83.3417 80.9199Z" fill="#D7AF9F"/>
<path d="M84.1023 98.7522C81.1329 90.0405 72.492 82.7025 63.086 80.9153L63.2612 79.9985C72.9736 81.8375 81.9101 89.4272 84.988 98.4517L84.1023 98.7522Z" fill="#D7AF9F"/>
<path d="M38.7349 161.901C27.931 153.314 19.5162 143.596 13.7639 133.018C7.2571 121.086 4.43338 107.855 5.82371 95.7738L6.74877 95.8695C5.38484 107.792 8.19144 120.8 14.5844 132.57C20.2883 143.033 28.593 152.648 39.3146 161.156L38.7349 161.901Z" fill="#D7AF9F"/>
<path d="M8.03692 118.974C7.95582 110.129 11.2793 101.593 17.3191 95.132L18.0065 95.7761C12.1247 102.058 8.88617 110.363 8.96237 118.969L8.03692 118.974Z" fill="#D7AF9F"/>
<path d="M5.93432 108.211C4.84315 106.541 3.36687 105.157 1.62964 104.176C-0.107578 103.195 -2.05495 102.646 -4.0487 102.574L-4.02266 101.642C-1.8769 101.718 0.219036 102.309 2.08859 103.365C3.95814 104.421 5.54655 105.911 6.7201 107.709L5.93432 108.211Z" fill="#D7AF9F"/>
<path d="M-2.55399 131.572L-2.98001 130.734C-0.363305 129.438 2.53197 128.805 5.45076 128.891C8.36955 128.977 11.2223 129.78 13.7579 131.228L13.2825 132.034C10.8836 130.663 8.18396 129.903 5.42202 129.823C2.66008 129.742 -0.0792159 130.343 -2.55399 131.572Z" fill="#D7AF9F"/>
<path d="M99.7941 121.99L98.7308 119.537C98.3626 118.992 97.8256 118.584 97.2024 118.374L96.821 118.174C95.8695 117.653 94.9644 116.685 95.213 115.544C95.2212 115.465 95.2305 115.375 95.2895 115.291C95.3085 115.216 95.3165 115.139 95.3131 115.062C95.3131 115.062 95.2768 114.927 94.8734 114.745L87.3429 111.252C86.1802 110.841 85.1605 110.103 84.4057 109.128C84.1645 108.719 83.9701 108.284 83.8261 107.832C83.7482 107.613 83.6693 107.403 83.5705 107.192C83.3416 106.7 83.0709 106.228 82.7614 105.781C82.1255 104.935 81.7066 103.946 81.5413 102.9C81.5114 102.359 81.59 101.816 81.7723 101.305C81.9546 100.794 82.2371 100.325 82.6031 99.9239C83.1686 99.2304 83.9196 98.7118 84.7685 98.4287C85.4419 97.8413 86.2474 97.4251 87.1162 97.2157C87.985 97.0062 88.8916 97.0097 89.7587 97.2258C91.2696 97.7388 92.6402 98.5966 93.7622 99.731C95.4032 101.167 97.2663 102.788 98.1732 105.003C98.7051 106.531 98.9873 108.136 99.0089 109.754L99.7941 121.99ZM88.9133 98.013C88.2652 97.9445 87.61 98.016 86.992 98.2226C86.3739 98.4293 85.8075 98.7662 85.331 99.2108L85.2082 99.3288L85.0391 99.3113C84.3508 99.5252 83.7433 99.9426 83.2967 100.508C83.0121 100.815 82.7912 101.174 82.6471 101.567C82.5029 101.959 82.4384 102.376 82.4571 102.794C82.6017 103.703 82.9727 104.561 83.5362 105.288C83.8601 105.776 84.1432 106.289 84.3827 106.824C84.4904 107.046 84.5762 107.286 84.663 107.516C84.7799 107.908 84.9472 108.284 85.1607 108.633C85.8169 109.454 86.6957 110.069 87.692 110.403L95.2863 113.863C95.5258 113.978 96.1895 114.268 96.2629 114.919C96.2972 115.143 96.2734 115.373 96.194 115.585C96.1838 115.638 96.1783 115.691 96.1775 115.744C96.0163 116.331 96.6351 116.958 97.3204 117.33L97.6829 117.519C98.012 117.679 98.3289 117.863 98.6313 118.069L98.0882 109.81C98.0761 108.295 97.8209 106.792 97.3322 105.358C96.5341 103.355 94.6846 101.797 93.1757 100.444C92.1538 99.4107 90.913 98.6193 89.5447 98.1286C89.3372 98.0754 89.1262 98.0368 88.9133 98.013Z" fill="#D7AF9F"/>
<path d="M111.322 80.2344C111.036 80.2117 110.755 80.1488 110.487 80.0475L110.264 79.9642L110.197 79.7361C109.658 77.7501 109.437 75.6914 109.541 73.6362C109.548 72.6709 109.766 71.7187 110.182 70.8473C111.054 69.2184 112.833 68.4473 114.623 67.8584C117.809 66.8063 121.081 66.0347 124.402 65.5522L124.667 65.5193C125.689 65.4233 126.694 65.1891 127.654 64.823C128.127 64.589 128.581 64.3201 129.014 64.0186C129.782 63.4349 130.664 63.0192 131.603 62.7986L131.842 63.6979C130.795 64.1023 130.442 65.4733 130.113 66.8065L130.005 67.2678C129.109 70.7843 126.707 73.6926 124.591 76.2586C124.034 77.1313 123.276 77.8585 122.381 78.3796C121.486 78.9008 120.48 79.2009 119.446 79.2551L115.917 79.8351C114.405 80.1399 112.864 80.2739 111.322 80.2344ZM111.037 79.1996C112.624 79.3164 114.219 79.2072 115.775 78.8754L119.304 78.2954C120.168 78.2014 121.011 77.9659 121.799 77.5983C122.605 77.0758 123.308 76.4089 123.872 75.6312C125.929 73.1397 128.252 70.3137 129.098 67.0031L129.215 66.5527C129.355 65.8877 129.551 65.2354 129.798 64.6024L129.529 64.7756C129.059 65.1009 128.562 65.3858 128.044 65.6273C127.011 66.0575 125.918 66.3276 124.804 66.4283L124.538 66.4712C121.275 66.9485 118.058 67.7056 114.924 68.734C113.312 69.2609 111.723 69.9411 111.001 71.2839C110.659 72.0341 110.482 72.8489 110.483 73.6733C110.389 75.5457 110.574 77.4216 111.033 79.2394L111.037 79.1996Z" fill="#D7AF9F"/>
<path d="M120.861 102.976C119.609 102.79 118.387 102.434 117.231 101.917L112.628 100.053C112.283 99.9423 111.96 99.7693 111.676 99.5428C111.328 99.2173 111.056 98.8183 110.882 98.3749L110.89 98.2953C109.999 96.5685 108.927 94.9411 107.692 93.4406L107.319 92.9696L107.867 92.7247C110.232 91.5385 112.743 90.6659 115.334 90.1291C118.052 89.5648 120.883 90.0812 123.227 91.5689C123.989 92.1288 124.694 92.7606 125.335 93.4557L125.891 94.0059C128.16 96.2523 130.805 98.0842 133.705 99.4186L135.855 100.405L133.502 100.312C132.727 100.414 132.013 100.785 131.484 101.36C130.78 102.107 129.816 102.554 128.791 102.61C128.23 102.535 127.692 102.343 127.211 102.044C126.853 101.822 126.456 101.668 126.041 101.592C125.421 101.609 124.82 101.809 124.313 102.167C124.007 102.352 123.688 102.514 123.358 102.651C122.567 102.969 121.708 103.08 120.861 102.976ZM108.789 93.3329C109.923 94.7427 110.908 96.2663 111.727 97.8792L111.777 97.9849C111.9 98.3043 112.09 98.5944 112.332 98.8365C112.533 98.9846 112.754 99.1023 112.989 99.186L117.592 101.049C118.668 101.53 119.803 101.864 120.968 102.042C121.656 102.13 122.355 102.047 123.004 101.8C123.298 101.68 123.576 101.518 123.863 101.366C124.514 100.907 125.291 100.661 126.087 100.661C126.639 100.745 127.17 100.936 127.647 101.225C128.002 101.449 128.395 101.605 128.806 101.687C129.619 101.624 130.377 101.253 130.924 100.649C131.323 100.317 131.754 100.025 132.211 99.7767C129.634 98.4548 127.274 96.7461 125.215 94.7101L124.65 94.1489C124.047 93.4971 123.385 92.9035 122.672 92.376C120.541 91.0418 117.977 90.5821 115.516 91.093C113.183 91.5455 110.919 92.2981 108.779 93.3318L108.789 93.3329Z" fill="#D7AF9F"/>
<path d="M92.542 49.6206C91.5907 49.5126 90.6866 49.1481 89.9266 48.5659L89.8144 48.4839L89.8268 48.3646C89.3481 46.9208 89.4567 45.3467 90.1292 43.9824C90.7641 42.7125 91.5622 41.531 92.5034 40.468C94.0022 38.6124 95.6404 36.7712 97.8904 36.4007C98.5055 36.3179 99.1273 36.298 99.7464 36.3413L100.409 36.3496C102.173 36.3973 103.916 35.9662 105.454 35.102C105.893 34.8458 106.338 34.5299 106.771 34.2328C107.867 33.2863 109.22 32.6878 110.658 32.5137L111.878 32.479L110.998 33.3128C110.335 33.9605 109.859 34.7746 109.62 35.6697C109.38 36.5648 109.386 37.5079 109.637 38.3998L109.751 38.7535C109.876 39.0873 109.965 39.4335 110.016 39.7862C110.013 40.4324 109.854 41.0681 109.551 41.6391C109.249 42.2101 108.813 42.6994 108.28 43.065C107.974 43.3047 107.639 43.5315 107.313 43.7592C106.717 44.1269 106.173 44.5747 105.698 45.0901C105.479 45.3574 105.279 45.6389 105.098 45.9328C104.887 46.2558 104.66 46.5679 104.418 46.8678C102.679 48.9097 99.7603 48.9396 98.1887 48.7771L97.2736 48.6824C96.8059 48.6089 96.3281 48.6313 95.8693 48.7483C95.6258 48.8406 95.3893 48.9506 95.1618 49.0772L94.6215 49.3431C93.9654 49.6189 93.2475 49.7147 92.542 49.6206ZM90.6084 47.9025C91.1085 48.2839 91.6949 48.5362 92.3156 48.6373C92.9364 48.7383 93.5725 48.6849 94.1678 48.4818C94.3252 48.4176 94.4847 48.3336 94.6442 48.2496C94.916 48.0946 95.202 47.966 95.4982 47.8654C96.2406 47.6781 97.0153 47.6586 97.7661 47.8084L98.2038 47.8537C99.6063 47.9988 102.211 47.9867 103.636 46.2642C103.855 45.9969 104.055 45.7153 104.236 45.4214C104.441 45.0947 104.668 44.7823 104.916 44.4864C105.447 43.9096 106.053 43.4076 106.719 42.994C107.023 42.7741 107.336 42.5652 107.622 42.3334C108.026 42.0591 108.362 41.6955 108.602 41.2706C108.843 40.8457 108.983 40.371 109.011 39.8833C108.975 39.5934 108.903 39.3091 108.797 39.0368C108.75 38.9113 108.712 38.7868 108.676 38.6523C108.44 37.8227 108.382 36.9524 108.507 36.0988C108.631 35.2452 108.936 34.4278 109.399 33.7005C108.635 34.0454 107.915 34.4806 107.255 34.9967C106.811 35.3026 106.355 35.6275 105.873 35.9094C104.193 36.8607 102.284 37.3342 100.353 37.2787C100.134 37.2561 99.9056 37.2324 99.6706 37.2684C99.1125 37.2302 98.5519 37.2463 97.9968 37.3165C96.0733 37.6403 94.618 39.2692 93.187 41.0515C92.3069 42.0559 91.5569 43.1673 90.9548 44.3594C90.4086 45.4579 90.2853 46.719 90.6084 47.9025Z" fill="#D7AF9F"/>
<path d="M74.0061 38.1223L74.154 37.3735C74.4337 36.199 74.889 35.0734 75.5047 34.0348C75.67 33.7 75.8442 33.3762 75.9954 33.0802C76.8702 31.2339 77.4158 29.249 77.6074 27.2149L77.628 27.016C77.644 26.3811 77.7908 25.7563 78.0591 25.1806C78.529 24.4074 79.2686 23.8357 80.1353 23.5757C81.8951 23.0361 83.7555 22.9087 85.5725 23.2031L87.4922 23.4017C89.0975 23.6626 90.7398 23.5824 92.312 23.1663C92.7915 23 93.2612 22.807 93.7189 22.588C94.6792 22.0779 95.7388 21.7828 96.8244 21.7229L98.2822 21.7229L97.0951 22.6054C96.0078 23.3978 95.7293 24.8267 95.4615 26.3472C95.3329 27.1558 95.1395 27.9528 94.8832 28.7304C94.4804 29.7877 93.8138 30.7243 92.9468 31.4511C92.0797 32.1779 91.0411 32.6708 89.9297 32.8828L89.43 32.9517C88.9116 32.9766 88.4079 33.1319 87.9657 33.4035C87.7359 33.6109 87.5382 33.8513 87.3792 34.1169C87.2298 34.3593 87.0582 34.5873 86.8664 34.7978C85.9961 35.5817 84.8841 36.0448 83.7146 36.1105L83.3054 36.1787C80.4321 36.6043 77.5869 37.2031 74.7857 37.9717L74.0061 38.1223ZM85.4641 24.0565C83.7758 23.7796 82.0468 23.886 80.4052 24.3677C79.7557 24.5597 79.1979 24.9806 78.835 25.5524C78.6313 26.0179 78.5181 26.518 78.5016 27.0259L78.48 27.2348C78.2698 29.3706 77.6904 31.4537 76.7675 33.3913C76.6111 33.737 76.4359 34.0708 76.2596 34.4145C75.85 35.1593 75.5039 35.9374 75.2248 36.7403C77.7846 35.9998 80.4606 35.5929 83.0701 35.1491L83.4793 35.0808C84.0828 35.1311 84.6881 35.0086 85.2246 34.7276C85.761 34.4467 86.2064 34.0188 86.5086 33.494C86.719 33.1448 86.9857 32.8326 87.2979 32.5703C87.8662 32.1871 88.5288 31.9671 89.2135 31.934L89.6735 31.861C90.6279 31.6766 91.519 31.2504 92.2615 30.6231C93.0041 29.9958 93.5733 29.1885 93.9146 28.2783C94.1574 27.5531 94.3354 26.8079 94.4465 26.0512C94.5768 24.9089 94.9233 23.8018 95.4676 22.789C94.9853 22.9513 94.5126 23.1407 94.0517 23.3563C93.5603 23.5879 93.056 23.7909 92.5411 23.9641C90.8473 24.4172 89.0775 24.5115 87.3451 24.241L85.4641 24.0565Z" fill="#D7AF9F"/>
<path d="M70.3244 43.6827C69.6148 40.2132 68.2072 36.9242 66.187 34.0157L66.9203 33.4381C69.0281 36.4538 70.4951 39.8697 71.2306 43.4748L70.3244 43.6827Z" fill="#D7AF9F"/>
<path d="M45.6501 35.7413C45.4677 35.7124 45.2943 35.6422 45.1432 35.5359C44.9921 35.4297 44.8674 35.2903 44.7785 35.1284C44.636 34.9095 44.5611 34.6535 44.5631 34.3923C41.5999 33.0947 39.0619 30.9892 37.2393 28.3166C36.683 27.6025 36.3523 26.7387 36.2895 25.8357C36.3115 25.3826 36.3951 24.9347 36.5378 24.5042C36.6246 24.218 36.6885 23.9254 36.7289 23.6292C36.7532 22.8784 36.6362 22.1296 36.3842 21.422C36.1502 20.8739 36.0276 20.2848 36.0237 19.6889C36.0197 19.093 36.1344 18.5023 36.3611 17.9512C36.6046 17.5509 36.9063 17.1891 37.2563 16.8776C37.5702 16.6194 37.8343 16.306 38.0356 15.9529C38.1143 15.7612 38.1721 15.5616 38.2078 15.3574C38.2232 15.2082 38.2397 15.0491 38.3247 14.9071C38.7507 13.8115 39.4533 12.8451 40.3642 12.102L40.8783 11.6023C41.5084 10.9536 42.5147 9.68042 42.1446 8.49605L41.6002 6.76084L42.9084 8.01208C43.6721 8.87016 44.1858 9.92126 44.3936 11.051C44.5674 12.0281 45.0051 12.939 45.6594 13.6852L45.9729 13.9589C46.4221 14.2427 46.7608 14.6715 46.9329 15.1741C47.0329 15.7002 46.9518 16.2446 46.7028 16.7187C46.5718 16.9778 46.4915 17.2595 46.4662 17.5487C46.5064 17.9002 46.6301 18.237 46.827 18.5311C46.91 18.7005 47.003 18.871 47.076 19.0394C47.3927 19.912 47.5326 20.839 47.4877 21.7662C47.4638 22.4683 47.5402 23.1701 47.7144 23.8506C47.8426 24.2147 48.0012 24.5674 48.1884 24.9049C48.3852 25.2628 48.5518 25.6365 48.6862 26.0221C49.3856 28.1051 48.5182 30.0763 47.6847 32.0108C47.2471 32.9471 46.8909 33.9193 46.6201 34.9167C46.4705 35.5849 46.0181 35.7794 45.6501 35.7413ZM43.0436 9.81556C42.753 10.721 42.2398 11.5391 41.5509 12.1946L41.0247 12.7132C40.2242 13.3542 39.6013 14.1897 39.2155 15.14C39.2021 15.2693 39.1887 15.3986 39.1743 15.5378C39.1236 15.8017 39.0464 16.0598 38.9439 16.3082C38.7042 16.7859 38.3696 17.2097 37.9605 17.5536C37.6757 17.8027 37.429 18.0922 37.2282 18.4129C36.9106 19.3147 36.9486 20.3036 37.3342 21.1784C37.8082 22.314 37.8625 23.5812 37.4873 24.7532C37.3681 25.1032 37.2998 25.4686 37.2846 25.8381C37.3501 26.5578 37.6295 27.2415 38.0869 27.801C39.8719 30.4246 42.3869 32.4673 45.3207 33.6765L45.745 33.851L45.5794 34.2863C45.5532 34.3926 45.5666 34.5048 45.6171 34.6019C45.6529 34.6716 45.7009 34.7345 45.7588 34.7874C45.768 34.7585 45.7712 34.7281 45.7681 34.6979C46.0477 33.6322 46.4242 32.5943 46.8931 31.5972C47.6984 29.7402 48.4526 27.9885 47.8654 26.279C47.7425 25.9387 47.5953 25.6076 47.425 25.2884C47.2176 24.9025 47.0406 24.501 46.8957 24.0876C46.6848 23.319 46.591 22.523 46.6172 21.7264C46.6637 20.9238 46.5522 20.1198 46.2889 19.3601C46.2237 19.2126 46.1386 19.0631 46.0635 18.9145C45.79 18.4865 45.6298 17.996 45.5977 17.4891C45.6207 17.0813 45.7234 16.6821 45.9002 16.3139C46.0696 16.0153 46.1404 15.6708 46.1025 15.3295C45.9611 15.0288 45.7361 14.7752 45.4543 14.599C45.3342 14.4961 45.2032 14.4021 45.0941 14.2903C44.3052 13.4351 43.7768 12.3725 43.5711 11.2273C43.4215 10.7474 43.2454 10.276 43.0436 9.81556Z" fill="#D7AF9F"/>
<path d="M66.6139 34.1701L66.2681 34.0137C65.9273 33.8092 65.615 33.5606 65.3393 33.2742C64.8894 32.8539 64.4083 32.4681 63.9004 32.1201L63.664 31.975C63.1628 31.7104 62.739 31.3201 62.4341 30.8424C62.3325 30.6391 62.2535 30.4253 62.1984 30.2048C62.1787 30.114 62.1544 30.0242 62.1257 29.9359C61.763 29.1503 61.2027 28.4723 60.4995 27.9681C60.1087 27.6384 59.7391 27.2846 59.3927 26.9086C58.6705 26.0379 58.1701 25.0051 57.9343 23.8986C57.6986 22.7922 57.7346 21.6451 58.0391 20.5556C58.6512 18.4431 59.8628 16.5534 61.5273 15.1157C61.7499 14.9075 61.9814 14.7102 62.2139 14.5031C62.7958 14.0261 63.3319 13.4959 63.8154 12.9194C64.516 12.0229 64.9421 10.9426 65.0419 9.80909L65.1005 9.24213L65.6473 9.39922C66.1976 9.56912 66.6769 9.91497 67.0117 10.3837C67.3464 10.8523 67.518 11.4179 67.5002 11.9936C67.494 12.1971 67.473 12.3999 67.4374 12.6004C67.3387 12.9042 67.351 13.2332 67.4721 13.5289C67.5357 13.6117 67.609 13.6868 67.6902 13.7525C67.8004 13.8328 67.9022 13.9242 67.9938 14.0252C68.3306 14.4941 68.5083 15.0586 68.5007 15.6359C68.6339 17.4593 68.7802 19.284 68.9399 21.1101C69.285 25.8407 69.378 30.3844 66.8735 33.8954L66.6139 34.1701ZM65.9241 10.5136C65.7297 11.5879 65.2803 12.5999 64.6136 13.4644C64.0995 14.0933 63.5213 14.667 62.8883 15.176L62.2335 15.7718C60.694 17.0827 59.5713 18.8152 59.0036 20.7559C58.7358 21.6929 58.696 22.6803 58.8875 23.6357C59.079 24.5912 59.4962 25.487 60.1043 26.2483C60.4207 26.5978 60.7636 26.9223 61.1299 27.219C61.961 27.8338 62.6145 28.6576 63.0243 29.6066C63.0627 29.7074 63.0923 29.8114 63.1129 29.9173C63.153 30.0721 63.2081 30.2226 63.2775 30.3667C63.5103 30.7087 63.8283 30.9842 64.2001 31.1658L64.4444 31.3318C64.9936 31.7082 65.5116 32.1283 65.9933 32.5879L66.3803 32.9295C68.4321 29.7135 68.3328 25.5211 68.0124 21.1348C67.8859 19.3121 67.7396 17.4874 67.5733 15.6606C67.578 15.2956 67.4792 14.9368 67.2882 14.6258C67.229 14.5605 67.1647 14.5001 67.0958 14.445C66.9493 14.3313 66.8176 14.1994 66.7041 14.0526C66.5666 13.8073 66.4795 13.5369 66.448 13.2574C66.4165 12.9779 66.4412 12.6949 66.5206 12.4251C66.5476 12.2605 66.5647 12.0944 66.572 11.9278C66.5808 11.662 66.5264 11.3979 66.4132 11.1572C66.3 10.9165 66.1314 10.7062 65.921 10.5435L65.9241 10.5136Z" fill="#D7AF9F"/>
<path d="M69.4714 64.9575L69.2745 64.0424C73.888 63.0344 78.6328 62.7684 83.3302 63.2543L83.4595 63.2677L83.3628 64.2027L83.2335 64.1893C78.6344 63.7124 73.9888 63.9717 69.4714 64.9575Z" fill="#D7AF9F"/>
<path d="M27.5648 48.7606C26.8021 48.6848 26.0499 48.5261 25.3216 48.2873C23.0595 47.5105 20.7329 45.5105 20.6039 42.7727C20.6368 42.4544 20.6101 42.1299 20.6372 41.7708C20.7042 41.2284 20.6655 40.6781 20.5232 40.1505C20.46 39.9922 20.3888 39.8372 20.3099 39.686C20.1932 39.4654 20.0926 39.2366 20.0088 39.0014C19.8183 38.0479 19.9453 37.0582 20.3705 36.1837L20.4378 36.0197C21.4296 33.2199 21.7226 30.2201 21.2914 27.2812L21.1309 26.209L22.0721 26.8291C24.1693 28.3888 25.895 30.3939 27.1248 32.7001C27.4645 33.2135 27.6761 33.8007 27.7419 34.4127C27.7361 34.5694 27.7199 34.7256 27.6935 34.8802C27.6643 35.0142 27.6502 35.1509 27.6514 35.288C27.7255 36.0296 28.5339 36.4751 29.3492 36.9515C29.5866 37.0867 29.8338 37.2228 30.0503 37.3659C30.8518 37.9414 31.5295 38.672 32.0434 39.5143C32.5572 40.3567 32.8967 41.2936 33.0417 42.2697C33.3071 44.1306 33.3181 46.0189 33.0743 47.8828L33.0383 48.2309L32.6977 48.3164C31.022 48.7408 29.2885 48.8908 27.5648 48.7606ZM22.3447 28.2748C22.5867 31.0131 22.2362 33.7713 21.3172 36.362L21.2987 36.5411C20.9606 37.2273 20.8386 37.9999 20.9489 38.7569C21.0163 38.9456 21.0981 39.1289 21.1938 39.305C21.2885 39.4866 21.3732 39.6732 21.4476 39.864C21.6447 40.5207 21.7 41.2118 21.6099 41.8915C21.5879 42.1818 21.5813 42.4731 21.59 42.7641C21.6947 45.057 23.7764 46.8004 25.6608 47.4377C27.8009 48.0703 30.0724 48.1107 32.2336 47.5546C32.4437 45.8831 32.4294 44.1911 32.191 42.5235C32.0697 41.6734 31.7796 40.8562 31.3379 40.1199C30.8961 39.3836 30.3115 38.7431 29.6185 38.2361L28.9551 37.8457C28.0067 37.2952 26.9194 36.6298 26.799 35.4613C26.7837 35.2705 26.7834 35.0789 26.798 34.8881C26.8202 34.77 26.8326 34.6502 26.835 34.53C26.7638 34.0694 26.5931 33.6298 26.3349 33.2417C25.3107 31.362 23.9595 29.68 22.3447 28.2748Z" fill="#D7AF9F"/>
<path d="M89.3945 69.3505C87.2261 69.1263 84.9184 67.4298 82.517 64.3062L82.3486 64.0877L82.455 63.8373C83.0958 62.2403 84.2344 60.8924 85.7019 59.9938C87.1695 59.0952 88.8876 58.6937 90.6014 58.849L91.0292 58.8932L91.3375 58.9251C91.7586 59.0323 92.1964 59.0572 92.6268 58.9982C92.8785 58.9315 93.1213 58.8351 93.3502 58.7111L93.5824 58.6044C94.7217 58.1382 95.9169 57.8225 97.1379 57.6652L100.423 57.1002L104.385 56.4142L101.248 62.2524C100.991 62.8024 100.625 63.2948 100.173 63.6995C99.6693 64.0606 99.0437 64.2089 98.4314 64.1125C98.2126 64.0899 97.9838 64.0662 97.765 64.0436L97.1681 63.9819C96.8169 63.9218 96.4557 63.9838 96.1446 64.1575C95.8241 64.4113 95.5561 64.725 95.3554 65.0812L94.8694 65.795C94.4297 66.5089 93.9294 67.1836 93.374 67.8118C92.8822 68.3679 92.2641 68.7979 91.5716 69.0657C90.8792 69.3335 90.1326 69.4311 89.3945 69.3505ZM83.4287 63.9481C86.9816 68.4777 90.3409 69.6294 92.6829 67.1069C93.2013 66.5257 93.6694 65.9015 94.0822 65.241L94.5803 64.5084C94.8536 64.0641 95.2112 63.6776 95.6329 63.3706C96.1249 63.0832 96.7003 62.9725 97.2638 63.0568L97.9303 63.1257L98.5271 63.1874C98.7132 63.2248 98.905 63.2237 99.0906 63.1841C99.2763 63.1445 99.4518 63.0673 99.6065 62.9573C99.9504 62.6301 100.227 62.2385 100.419 61.8048L102.647 57.662L100.599 58.0233L97.3039 58.5872C96.1627 58.738 95.0449 59.0311 93.9765 59.4595L93.7553 59.5572C93.4664 59.7117 93.1604 59.8319 92.8436 59.9153C92.2871 60.0006 91.7193 59.9761 91.1722 59.843L90.8837 59.8132C89.3602 59.5957 87.8074 59.882 86.4617 60.6284C85.1159 61.3748 84.0509 62.5406 83.4287 63.9481Z" fill="#D7AF9F"/>
<path d="M20.6312 96.2681C19.9905 96.1921 19.3542 96.0826 18.7249 95.9402C18.1213 95.875 17.5635 95.588 17.1594 95.1349C16.1913 93.5804 15.8383 91.7205 16.1696 89.9193C16.501 88.1182 17.4927 86.5057 18.9507 85.3975C20.3938 84.4944 21.9928 83.8688 23.6656 83.5528C24.5976 83.3397 25.5154 83.0686 26.4137 82.7413C28.3605 81.973 30.0477 80.6653 31.2773 78.9717C31.7576 78.2679 32.199 77.5383 32.5992 76.7861L32.9195 76.216L33.3726 76.6951C33.5501 76.9543 33.6609 77.2532 33.6952 77.5653C33.7296 77.8775 33.6864 78.1934 33.5695 78.4849L33.5449 78.7236C33.445 79.5779 33.5055 80.4434 33.7233 81.2755C33.7829 81.5732 33.8437 81.861 33.8834 82.1567C34.0533 82.8199 34.0548 83.515 33.8878 84.1789C33.7208 84.8429 33.3906 85.4546 32.9272 85.9585C32.6938 86.1597 32.4397 86.3355 32.1692 86.4833C31.937 86.6029 31.7194 86.7491 31.5209 86.9189C31.0878 87.4313 30.8014 88.0512 30.6919 88.7131C30.5519 89.4377 30.2581 90.1238 29.8303 90.7252C29.3127 91.2836 28.6769 91.7193 27.9693 92.0004C27.5296 92.1857 27.1135 92.4228 26.73 92.7067C26.3228 93.0825 25.9647 93.5083 25.664 93.9737C25.3093 94.5326 24.8744 95.0364 24.3733 95.4689C23.2813 96.2209 21.9352 96.5084 20.6312 96.2681ZM32.5717 78.7034C32.4016 78.9874 32.2236 79.2505 32.0346 79.5225C30.6973 81.3573 28.8669 82.775 26.756 83.6111C25.8186 83.9484 24.8629 84.2322 23.8933 84.4611C22.332 84.7495 20.8376 85.3244 19.4855 86.1566C18.2359 87.1335 17.3881 88.5348 17.1026 90.095C16.8171 91.6552 17.1137 93.266 17.9363 94.6221C18.0066 94.7199 18.232 94.8739 18.9001 95.0234C19.4929 95.1615 20.0928 95.2672 20.6971 95.34C21.2257 95.4469 21.7702 95.4475 22.299 95.3416C22.8278 95.2358 23.3302 95.0257 23.7769 94.7236C24.2205 94.3548 24.6046 93.9198 24.9156 93.4339C25.2571 92.8945 25.6731 92.4062 26.1514 91.9833C26.5901 91.6405 27.0688 91.3524 27.5772 91.1255C28.156 90.9017 28.6792 90.5544 29.1101 90.1078C29.4519 89.6046 29.6883 89.0374 29.8053 88.4404C29.947 87.6071 30.3275 86.8328 30.9005 86.2113C31.144 85.9893 31.4136 85.7977 31.7034 85.6409C31.9284 85.5277 32.1387 85.3874 32.3297 85.2231C33.181 84.4767 33.0973 83.0505 32.9765 82.274C32.9347 81.9982 32.873 81.7204 32.8222 81.4336C32.5761 80.5459 32.4912 79.6211 32.5717 78.7034Z" fill="#D7AF9F"/>
<path d="M6.28242 96.6748L5.88143 96.0803C4.18636 93.508 2.0999 91.2163 -0.302542 89.288L-0.460307 89.1612C-1.15631 88.666 -1.7567 88.0487 -2.23227 87.3392C-3.73395 84.7509 -1.65403 81.749 -0.629175 80.5883C-0.412405 80.3393 -0.194649 80.0803 0.032069 79.8323C1.28673 78.3937 2.58735 76.8996 2.71492 75.0831C2.73138 74.924 2.74784 74.7648 2.76327 74.6156C2.77046 74.2818 2.80487 73.9491 2.86616 73.6209C2.8857 73.4319 2.91348 73.1634 2.94435 72.865C2.99065 71.9824 3.17563 71.1127 3.49245 70.2877C3.83608 69.7053 4.27746 69.1864 4.7972 68.7538C5.05769 68.5388 5.29496 68.2972 5.50514 68.0328C5.53432 67.5798 5.68724 67.1436 5.94724 66.7716L6.93124 65.3251L6.75119 67.0659C6.72063 67.5041 6.59418 67.9303 6.38078 68.3144C6.49626 69.177 6.93627 69.9631 7.61116 70.5126L7.71233 70.6035C8.91765 71.452 9.75894 72.7236 10.0684 74.1648C10.1348 74.8853 10.0597 75.6118 9.84725 76.3034C9.71326 76.7602 9.63085 77.2305 9.60164 77.7056C9.69465 78.8755 10.1032 79.9983 10.7837 80.9544C11.2989 81.7603 11.6992 82.6341 11.9729 83.5506C12.6949 86.2894 11.2263 88.9222 9.66773 91.3548L8.34931 93.4101C7.8211 94.2401 7.27986 95.099 6.69369 96.0035L6.28242 96.6748ZM5.41975 69.4415L5.36483 69.4861C4.91342 69.8425 4.5283 70.2758 4.22712 70.7658C3.98975 71.4941 3.8409 72.2483 3.7837 73.0121C3.75078 73.3304 3.72094 73.6189 3.70036 73.8178C3.65351 74.0841 3.62566 74.3533 3.61703 74.6235C3.59954 74.7926 3.58102 74.9716 3.56353 75.1407C3.42499 77.2577 2.01148 78.8708 0.653925 80.4294L0.0135626 81.1775C-0.660758 81.9623 -2.73584 84.7235 -1.49827 86.8521C-1.08429 87.4636 -0.559198 87.9919 0.049713 88.4096L0.207475 88.5365C2.49699 90.3804 4.51112 92.542 6.18874 94.956C6.62194 94.2669 7.04106 93.6166 7.4602 92.9662L8.77868 90.911C10.2223 88.6174 11.5809 86.1742 10.971 83.8089C10.7114 82.9773 10.3401 82.1847 9.86755 81.4528C9.26117 80.7199 8.84858 79.8464 8.66764 78.9125C8.4867 77.9787 8.54319 77.0143 8.83194 76.1079C9.00674 75.5283 9.06959 74.9206 9.01714 74.3174C8.83944 73.0223 8.01215 72.2732 6.96462 71.3204L7.03356 71.237C6.46668 70.7404 6.02177 70.1199 5.73325 69.4236L5.45813 69.8476L5.41975 69.4415Z" fill="#D7AF9F"/>
<path d="M35.8618 147.779L34.948 147.574C36.8505 138.924 40.4303 130.732 45.4849 123.46L46.2542 123.992C41.2703 131.166 37.7397 139.247 35.8618 147.779Z" fill="#D7AF9F"/>
<path d="M44.7217 124.82L44.7721 124.332C44.6816 120.41 46.0895 116.601 48.7089 113.681C49.8272 112.495 51.1968 111.575 52.717 110.988C54.2373 110.401 55.8698 110.161 57.4947 110.287C58.1646 110.358 58.824 110.507 59.4594 110.731L60.1173 110.98C60.5421 111.17 60.985 111.317 61.4392 111.419L61.5585 111.431C62.1419 111.43 62.7161 111.286 63.2306 111.011C63.965 110.637 64.7832 110.458 65.6066 110.492L67.8446 110.724L65.693 111.406C65.2793 111.596 64.9143 111.877 64.6254 112.229C64.3365 112.58 64.1313 112.993 64.0254 113.435C63.8855 113.91 63.7719 114.391 63.6852 114.878C63.5893 115.436 63.4551 115.986 63.2835 116.525C62.9624 117.485 62.4331 118.361 61.7335 119.092C61.034 119.822 60.1816 120.389 59.2373 120.752C58.9214 120.875 58.5984 120.979 58.27 121.064C57.752 121.198 57.2502 121.389 56.7735 121.633C56.2624 121.967 55.7957 122.365 55.3844 122.816C54.7936 123.507 54.0487 124.05 53.2099 124.401C52.6208 124.571 52.0091 124.65 51.3961 124.635L50.7303 124.657C48.7163 124.69 46.8215 124.735 45.2262 124.802L44.7217 124.82ZM57.3582 111.218C55.8758 111.103 54.3864 111.322 52.9999 111.858C51.6133 112.395 50.3649 113.236 49.3465 114.32C46.9952 116.94 45.6889 120.333 45.6762 123.853C47.17 123.796 48.9234 123.756 50.7166 123.721L51.3823 123.699C51.9 123.716 52.4174 123.658 52.9183 123.526C53.6225 123.216 54.2455 122.747 54.7389 122.156C55.5864 121.154 56.7391 120.458 58.0203 120.173C58.3311 120.085 58.6319 119.995 58.9248 119.885C59.7388 119.566 60.4734 119.074 61.0771 118.441C61.6808 117.809 62.139 117.053 62.4198 116.225C62.5738 115.723 62.6971 115.212 62.7893 114.695C62.8813 114.172 63.002 113.654 63.1508 113.144C63.2977 112.663 63.5177 112.208 63.8031 111.794L63.6148 111.865C62.9059 112.25 62.0972 112.411 61.2948 112.329C60.7771 112.217 60.272 112.053 59.787 111.841L59.1679 111.606C58.5851 111.407 57.9811 111.277 57.3681 111.219L57.3582 111.218Z" fill="#D7AF9F"/>
<path d="M45.6461 123.739C47.8505 121.866 50.2998 120.25 52.5961 118.557C49.9925 119.916 47.3915 121.346 45.6461 123.739Z" fill="#D7AF9F"/>
<path d="M61.7529 113.341C62.5505 112.977 63.2813 112.481 63.9152 111.876C63.157 112.306 62.434 112.796 61.7529 113.341Z" fill="#D7AF9F"/>
<path d="M49.2947 121.914C49.5161 121.88 49.7339 121.825 49.945 121.75C49.7208 121.769 49.5012 121.825 49.2947 121.914Z" fill="#D7AF9F"/>
<path d="M53.0222 117.746C55.8427 116.784 58.5294 115.467 61.0177 113.828C58.4257 114.977 55.0102 116.313 53.0222 117.746Z" fill="#D7AF9F"/>
<path d="M47.5696 123.234C49.1267 123.242 50.6729 122.973 52.1356 122.439C50.5987 122.61 49.0738 122.875 47.5696 123.234Z" fill="#D7AF9F"/>
<path d="M47.5452 120.266C48.9326 118.71 50.1951 117.001 51.5694 115.474C49.8783 116.742 48.5015 118.381 47.5452 120.266Z" fill="#D7AF9F"/>
<path d="M46.1914 122.368C46.7611 121.04 47.3784 119.736 47.8795 118.391C48.0961 117.759 48.4086 117.164 48.8059 116.627C47.2676 118.086 46.6229 120.432 46.1914 122.368Z" fill="#D7AF9F"/>
<path d="M60.5742 118.124C61.8559 116.618 62.4167 114.695 63.2416 112.941C62.1869 114.578 61.2936 116.314 60.5742 118.124Z" fill="#D7AF9F"/>
<path d="M61.4518 112.162C59.7745 112.356 58.0865 112.444 56.3981 112.424L55.3324 112.424L55.8496 112.478C57.6533 112.859 59.52 112.825 61.3087 112.379C61.7675 112.262 62.195 112.045 62.5607 111.744C62.2256 111.962 61.8473 112.105 61.4518 112.162Z" fill="#D7AF9F"/>
<path d="M5.56445 87.2812C5.4886 90.1371 5.60953 92.9947 5.92643 95.8339C6.21522 92.9804 6.09333 90.1002 5.56445 87.2812Z" fill="#D7AF9F"/>
<path d="M5.62136 69.2512C4.98829 72.1788 4.79261 75.1839 5.04076 78.1688C5.41857 75.2112 5.61249 72.2329 5.62136 69.2512Z" fill="#D7AF9F"/>
<path d="M5.41936 80.0377C5.07697 81.065 4.96424 82.1549 5.0891 83.2306C5.25887 82.1725 5.33808 81.115 5.41936 80.0377Z" fill="#D7AF9F"/>
<path d="M3.59946 88.6873C3.20773 87.1288 2.70451 85.5788 2.30078 84.0391C2.37614 86.7461 3.14081 89.3893 4.52249 91.7184C4.11601 90.7408 3.80686 89.7255 3.59946 88.6873Z" fill="#D7AF9F"/>
<path d="M9.32702 84.5441C9.34039 84.4148 9.28512 84.2683 9.25871 84.1349C9.23299 84.3836 9.20732 84.6323 9.23133 84.8861C9.13693 87.541 8.64845 90.1671 7.78193 92.6783C9.25233 90.2386 9.80046 87.353 9.32702 84.5441Z" fill="#D7AF9F"/>
<path d="M-0.771484 83.1367C-0.765143 85.5376 -0.136191 87.8957 1.05401 89.9808C0.293207 87.8111 -0.171206 85.4005 -0.771484 83.1367Z" fill="#D7AF9F"/>
<path d="M25.6833 86.9698C27.2819 86.156 28.7323 85.0791 29.9738 83.7843C28.4787 84.7558 27.0458 85.8197 25.6833 86.9698Z" fill="#D7AF9F"/>
<path d="M17.3549 94.5033C17.5864 94.046 17.9052 93.6384 18.2933 93.3035C19.8037 91.9533 21.3816 90.6803 23.0208 89.4897C20.9255 90.3085 17.4825 92.9784 17.3549 94.5033Z" fill="#D7AF9F"/>
<path d="M23.5364 88.2042C24.3473 87.6547 25.0857 87.0274 25.8609 86.434C24.9668 86.8484 24.1736 87.4525 23.5364 88.2042Z" fill="#D7AF9F"/>
<path d="M25.1794 90.2043C26.5401 89.1097 27.7361 87.8249 28.7308 86.3895C27.4395 87.5566 26.2513 88.8329 25.1794 90.2043Z" fill="#D7AF9F"/>
<path d="M26.3042 40.4357C26.0747 40.03 25.8099 39.4798 25.625 39.1289C25.7293 39.4815 25.8246 39.8231 25.9399 40.1668C26.7473 42.6631 28.2158 45.3786 30.8857 46.1977C28.5924 44.9451 27.5036 42.6408 26.3042 40.4357Z" fill="#D7AF9F"/>
<path d="M21.9375 26.6738C22.5756 28.2352 22.9778 29.8828 23.1309 31.5626C23.4047 33.7619 23.8521 35.936 24.469 38.0647C23.9215 34.3185 24.0566 29.7079 21.9375 26.6738Z" fill="#D7AF9F"/>
<path d="M22.4844 37.9102C22.4284 39.1143 22.6079 40.3178 23.0127 41.4533C22.9065 40.2629 22.7301 39.0798 22.4844 37.9102Z" fill="#D7AF9F"/>
<path d="M24.209 31.5332C24.8304 33.1727 25.5476 34.7743 26.3569 36.3296C25.9254 34.618 25.1986 32.9949 24.209 31.5332Z" fill="#D7AF9F"/>
<path d="M21.9353 33.0167C21.502 34.8246 21.2011 36.6617 21.035 38.5133C21.6246 36.7404 21.9285 34.8851 21.9353 33.0167Z" fill="#D7AF9F"/>
<path d="M22.3184 31.75C22.1698 33.658 22.1969 35.5757 22.3994 37.4787C22.6436 35.5749 22.6163 33.6461 22.3184 31.75Z" fill="#D7AF9F"/>
<path d="M43.6934 26.7734C43.9625 29.3668 44.5352 31.9196 45.3999 34.3794C45.0982 31.7914 44.5263 29.2422 43.6934 26.7734Z" fill="#D7AF9F"/>
<path d="M42.8701 9.26525C41.3157 14.5735 42.8582 20.0714 43.5018 25.4159C43.6766 19.9349 42.1626 14.5505 42.8701 9.26525Z" fill="#D7AF9F"/>
<path d="M45.8379 31.0156C45.7273 32.2668 45.7048 33.5243 45.7704 34.7786C46.0089 33.5375 46.0317 32.2645 45.8379 31.0156Z" fill="#D7AF9F"/>
<path d="M42.9082 31.1562C43.0668 32.1416 43.349 33.1031 43.7483 34.0179C43.5779 33.0352 43.2961 32.0751 42.9082 31.1562Z" fill="#D7AF9F"/>
<path d="M38.3535 25.6083C38.3803 24.1835 38.3075 22.7484 38.3233 21.3325C37.8538 23.388 37.8738 25.5252 38.3817 27.5716C38.3364 26.9182 38.327 26.2627 38.3535 25.6083Z" fill="#D7AF9F"/>
<path d="M65.1973 27.832C65.2952 29.7017 65.7542 31.5347 66.5491 33.2298C66.1203 31.4462 65.7756 29.5305 65.1973 27.832Z" fill="#D7AF9F"/>
<path d="M65.1172 24.043C65.0914 24.8326 65.1721 25.622 65.357 26.3901C65.3752 25.6008 65.2946 24.8123 65.1172 24.043Z" fill="#D7AF9F"/>
<path d="M65.7401 10.1427C65.5138 12.331 65.0906 14.4789 64.8543 16.6662C64.7757 18.3973 64.6663 20.1352 64.4884 21.8561C64.9652 20.173 65.2815 18.4486 65.4332 16.7059C65.7663 14.5351 65.8692 12.3352 65.7401 10.1427Z" fill="#D7AF9F"/>
<path d="M84.0391 30.2517L83.5102 30.4081C81.4877 30.932 79.6004 31.8816 77.9743 33.1933C76.739 34.3635 75.5994 35.6307 74.5663 36.9828C75.8406 35.9384 76.9621 34.7173 78.2531 33.7047C78.6143 33.4204 78.9624 33.1648 79.3394 32.9223C78.0141 34.213 76.8201 35.6319 75.7747 37.1581C77.4825 35.6156 78.9865 33.7102 80.5272 32.1303C81.4354 31.5723 82.3738 31.0653 83.3383 30.6115L84.0391 30.2517Z" fill="#D7AF9F"/>
<path d="M96.1909 22.4112C94.0081 23.4924 92.2719 25.2129 90.3604 26.684C89.694 27.1982 88.9473 27.6136 88.262 28.1157C88.3945 28.0396 88.5324 27.9732 88.6746 27.9171C89.6249 27.5366 90.5311 27.0539 91.377 26.4775C92.7686 25.4653 94.0037 24.2158 95.3149 23.1048C94.5576 24.3032 94.0569 25.5483 93.373 26.8147C92.7734 27.8485 91.8576 29.4125 91.2207 30.6134C92.2038 29.4437 93.0806 28.1886 93.8405 26.863C94.4534 25.6999 94.8927 24.0765 95.3362 22.9964C95.6212 22.865 95.8966 22.6321 96.1909 22.4112Z" fill="#D7AF9F"/>
<path d="M90.3662 48.2894C90.657 47.9125 90.9926 47.5725 91.3656 47.2768C92.4632 46.385 93.6802 45.5055 94.8573 44.622C92.9905 45.3047 91.4084 46.5967 90.3662 48.2894Z" fill="#D7AF9F"/>
<path d="M102.82 40.931L102.587 41.0476C102.735 40.9538 102.876 40.8509 103.011 40.7396C101.155 41.6736 99.1283 42.218 97.2713 43.1619C97.9426 42.9901 98.6258 42.7994 99.341 42.5918C98.5188 42.9592 97.7056 43.3375 96.916 43.7787C94.7304 44.968 92.7937 46.5664 91.2114 48.4867C94.5586 45.2841 98.3734 43.8791 102.417 41.3316C102.761 41.1159 103.193 40.8288 103.494 40.6388L102.82 40.931Z" fill="#D7AF9F"/>
<path d="M104.665 39.0403C105.987 37.8305 107.169 36.4757 108.189 35.0015C106.874 36.219 105.693 37.5729 104.665 39.0403Z" fill="#D7AF9F"/>
<path d="M104.092 42.5304C106.462 40.222 107.594 36.9511 109.096 33.9999C106.97 36.6654 105.905 39.8728 104.092 42.5304Z" fill="#D7AF9F"/>
<path d="M84.2763 63.9151C86.4596 63.9428 88.6252 63.52 90.6378 62.673C88.5023 63.0051 86.3901 63.5004 84.2763 63.9151Z" fill="#D7AF9F"/>
<path d="M92.6282 61.7039C95.8876 60.8575 98.9852 59.4796 101.796 57.6256C98.6779 58.811 95.629 60.2952 92.6282 61.7039Z" fill="#D7AF9F"/>
<path d="M130.102 64.8648C127.091 67.1471 124.214 69.6946 120.933 71.386C124.784 70.206 127.942 67.4764 130.58 64.5221L130.752 64.3187L130.102 64.8648Z" fill="#D7AF9F"/>
<path d="M111.001 79.3362C112.843 78.6031 114.571 77.6104 116.132 76.3884C114.338 77.2177 112.621 78.2042 111.001 79.3362Z" fill="#D7AF9F"/>
<path d="M110.591 78.3589C111.148 77.9001 111.651 77.3786 112.089 76.8048C111.523 77.2545 111.019 77.7771 110.591 78.3589Z" fill="#D7AF9F"/>
<path d="M110.475 76.1663C110.68 75.983 110.866 75.78 111.03 75.5602C110.813 75.7298 110.625 75.9346 110.475 76.1663Z" fill="#D7AF9F"/>
<path d="M116.885 77.5733C116.161 78.0581 115.405 78.4905 114.62 78.8671C116.633 78.2805 118.47 77.2068 119.97 75.741C119.03 76.2672 117.513 77.1357 116.885 77.5733Z" fill="#D7AF9F"/>
<path d="M116.203 96.2208C113.847 95.2834 111.463 94.4235 109.158 93.3809C113.443 96.0915 118.193 97.9838 123.168 98.9619C120.783 98.2125 118.509 97.163 116.203 96.2208Z" fill="#D7AF9F"/>
<path d="M127.094 98.4238C128.903 99.3881 130.934 99.8616 132.984 99.7971C130.948 99.5564 129.073 98.8296 127.094 98.4238Z" fill="#D7AF9F"/>
<path d="M84.6133 98.7559C87.4681 102.841 91.2909 106.122 94.3453 110.027C91.9474 105.607 88.057 102.299 84.6133 98.7559Z" fill="#D7AF9F"/>
<path d="M83.7891 100.52C84.1284 101.258 84.5803 101.939 85.1285 102.538C84.7214 101.84 84.2741 101.166 83.7891 100.52Z" fill="#D7AF9F"/>
<path d="M86.2988 99.291C86.4236 99.4361 86.5655 99.5656 86.7214 99.6765C86.5951 99.5329 86.4534 99.4037 86.2988 99.291Z" fill="#D7AF9F"/>
<path d="M93.4863 103.855C93.9689 104.813 94.549 105.719 95.2175 106.558C94.7663 105.582 94.1839 104.673 93.4863 103.855Z" fill="#D7AF9F"/>
</g>
<g clip-path="url(#clip2_3540_912)">
<path d="M133.113 232.81C133.09 192.753 145.849 153.734 169.533 121.429L170.287 121.987C146.726 154.133 134.039 192.959 134.075 232.814L133.113 232.81Z" fill="#D7AF9F"/>
<path d="M159.843 148.668C159.301 148.411 158.782 148.109 158.291 147.763L157.815 147.414L158.25 147.035C167.472 138.808 179.337 134.158 191.693 133.929L191.882 134.019C192.121 134.155 192.339 134.326 192.527 134.526L192.832 134.792L192.606 135.128C189.929 139.237 186.674 142.939 182.942 146.121C181.837 147.118 180.592 147.947 179.245 148.58C177.609 149.184 175.893 149.542 174.153 149.645C169.069 150.181 163.761 150.534 159.843 148.668ZM159.37 147.335C159.653 147.513 159.946 147.674 160.247 147.819C163.985 149.599 169.104 149.223 174.027 148.699C175.701 148.611 177.352 148.278 178.929 147.71C180.182 147.104 181.342 146.321 182.373 145.385C185.941 142.356 189.065 138.84 191.654 134.94L191.582 134.906C179.708 135.142 168.294 139.538 159.33 147.327L159.37 147.335Z" fill="#D7AF9F"/>
<path d="M167.69 129.49L167.991 128.858C169.307 126.171 171.558 124.057 174.322 122.912C181.179 119.624 189.001 118.956 196.315 121.035L197.084 121.257L196.518 121.818C193.991 124.415 191.126 126.66 188.001 128.495C184.741 130.461 180.959 131.385 177.16 131.141C175.795 130.969 174.444 130.696 173.119 130.325C171.571 129.869 169.976 129.589 168.366 129.49L167.69 129.49ZM195.264 121.708C188.387 119.956 181.114 120.675 174.714 123.741C172.363 124.709 170.388 126.41 169.082 128.591C170.516 128.744 171.935 129.015 173.324 129.404C174.6 129.748 175.9 129.997 177.212 130.147C180.818 130.351 184.402 129.468 187.501 127.614C190.329 125.984 192.938 123.999 195.264 121.708Z" fill="#D7AF9F"/>
<path d="M167.768 123.768L169.05 122.052C174.203 115.118 178.113 107.34 180.603 99.0667L180.772 98.5267C181.533 95.9982 182.31 93.3889 184.26 91.5487C185.008 90.8861 185.821 90.301 186.687 89.8022C187.834 89.1956 188.845 88.3619 189.659 87.3519L190.499 86.1236L190.509 87.6129C190.581 89.04 190.818 90.4539 191.217 91.8262C191.43 92.7033 191.654 93.607 191.796 94.5167C192.705 100.332 190.237 106.91 185.198 112.097C180.842 116.592 175.358 119.596 170.034 122.521L167.768 123.768ZM189.655 88.7789C188.902 89.4693 188.075 90.0747 187.19 90.5843C186.367 91.0514 185.594 91.5998 184.882 92.2211C183.116 93.8833 182.372 96.3756 181.645 98.7872L181.485 99.3315C179.159 107.039 175.618 114.327 170.996 120.919C175.789 118.272 180.633 115.451 184.51 111.449C189.343 106.462 191.718 100.194 190.851 94.6646C190.713 93.7906 190.495 92.9002 190.282 92.0455C190 90.9747 189.789 89.8865 189.651 88.7879L189.655 88.7789Z" fill="#D7AF9F"/>
<path d="M164.421 122.583L164.874 120.284C165.648 116.469 165.38 112.516 164.099 108.84C163.762 107.871 163.345 106.886 162.938 105.928C161.784 103.163 160.567 100.369 160.975 97.3729C161.463 93.718 164.156 90.9242 167.121 88.1162L168.395 86.9287L167.891 88.5934C167.403 90.222 168.455 91.8747 169.479 93.4697L170.098 94.4955C172.331 98.25 172.833 103.196 171.494 108.451C170.291 112.824 168.326 116.95 165.69 120.64L164.421 122.583ZM166.789 89.6971C164.348 92.0567 162.288 94.4983 161.871 97.4675C161.504 100.216 162.645 102.82 163.766 105.536C164.179 106.508 164.601 107.506 164.946 108.501C166.044 111.641 166.434 114.985 166.088 118.293C168.092 115.195 169.605 111.806 170.573 108.245C171.82 103.301 171.366 98.5772 169.258 95.026L168.63 94.0183C167.683 92.757 167.066 91.279 166.834 89.7186L166.789 89.6971Z" fill="#D7AF9F"/>
<path d="M151.329 138.612L150.964 137.796C146.094 127.159 144.656 115.011 146.957 104.411L147.303 102.848L147.855 104.34C148.728 106.694 150.528 108.681 152.265 110.593C154.449 112.984 156.67 115.438 157.202 118.67C157.421 120.442 157.316 122.238 156.893 123.972C155.966 128.839 154.252 133.522 151.819 137.838L151.329 138.612ZM147.575 106.067C145.87 116.399 147.208 127.004 151.428 136.588C153.552 132.575 155.068 128.27 155.928 123.812C156.338 122.196 156.45 120.519 156.257 118.863C155.775 115.898 153.728 113.638 151.562 111.255C150.018 109.702 148.679 107.959 147.575 106.067Z" fill="#D7AF9F"/>
<path d="M145.214 159.968L144.511 159.467C141.729 157.315 139.138 154.926 136.77 152.325C134.214 149.69 131.321 146.718 130.196 142.871C128.708 137.831 130.535 132.599 132.703 127.23L132.914 126.787L133.501 127.067C138.665 129.526 142.585 134.715 144.307 141.217C145.848 147.123 145.546 153.502 145.292 159.13L145.214 159.968ZM133.377 128.049C131.354 133.088 129.744 138.004 131.081 142.594C132.152 146.228 134.963 149.117 137.437 151.668C139.573 153.993 141.869 156.167 144.307 158.174C144.563 152.613 144.748 146.898 143.318 141.41C141.765 135.299 138.142 130.439 133.377 128.049Z" fill="#D7AF9F"/>
<path d="M161.884 134.334L161.28 133.625C161.911 133.097 162.588 132.626 163.302 132.217C163.761 131.927 164.221 131.636 164.658 131.324C165.095 131.011 165.609 130.558 166.067 130.156C166.85 129.413 167.725 128.773 168.669 128.249L169.092 129.082C168.218 129.578 167.408 130.177 166.68 130.869C166.209 131.276 165.73 131.701 165.209 132.073C164.688 132.446 164.255 132.727 163.791 133.004C163.124 133.4 162.486 133.844 161.884 134.334Z" fill="#D7AF9F"/>
<path d="M161.799 132.953C162.174 131.883 162.366 130.757 162.366 129.624C162.366 129.391 162.357 129.154 162.347 128.917C162.338 128.68 162.32 128.162 162.335 127.804C162.391 126.938 162.543 126.082 162.787 125.25C163.421 122.915 164.339 120.666 165.521 118.555L166.334 119.009C165.19 121.057 164.301 123.237 163.686 125.501C163.457 126.268 163.315 127.058 163.262 127.857C163.246 128.215 163.258 128.564 163.247 128.958C163.237 129.352 163.27 129.445 163.266 129.687C163.263 130.931 163.05 132.167 162.634 133.34L161.799 132.953Z" fill="#D7AF9F"/>
<path d="M181.089 139.126C174 142.175 166.555 144.389 159.526 147.521L158.806 147.777L159.105 147.709L158.754 147.863C158.896 147.798 159.043 147.746 159.189 147.693C164.976 146.489 170.634 144.733 176.086 142.448C172.996 143.424 169.895 144.307 166.795 145.234C172.012 143.384 177.112 141.219 182.066 138.75C182.898 138.26 181.44 138.994 181.089 139.126Z" fill="#D7AF9F"/>
<path d="M151.716 136.846C152.504 131.794 153.571 122.367 150.629 118.031C151.717 120.399 151.422 123.205 151.428 125.821C151.342 129.491 151.569 133.154 151.519 136.818C151.517 137.194 151.514 137.736 151.523 137.995C151.588 137.627 151.674 137.236 151.716 136.846Z" fill="#D7AF9F"/>
<path d="M149.791 126.373C150.092 128.118 150.289 129.88 150.38 131.649C150.575 133.403 151.012 135.649 151.318 137.123C151.36 133.522 151.255 129.717 149.791 126.373Z" fill="#D7AF9F"/>
<path d="M182.411 125.113C177.343 125.546 171.955 126.138 167.777 129.354C169.481 128.477 171.286 127.812 173.151 127.371C176.012 126.596 178.196 126.196 180.819 125.595C181.465 125.449 182.096 125.24 182.755 125.066L182.411 125.113Z" fill="#D7AF9F"/>
<path d="M184.205 103.76C182.441 106.37 180.53 108.877 178.481 111.269C175.921 114.481 173.525 117.77 171.128 121.059C170.982 121.262 170.826 121.458 170.661 121.645C170.929 121.429 171.18 121.205 171.421 120.977C176.586 116.015 181.426 110.434 184.205 103.76Z" fill="#D7AF9F"/>
<path d="M167.034 115.144C167.565 112.19 167.763 109.185 167.622 106.187C167.527 105.033 167.672 103.873 168.048 102.779C167.6 103.457 167.309 104.227 167.197 105.032C166.448 108.396 166.903 111.836 166.866 115.241C166.869 115.375 166.832 115.778 166.829 115.899C166.896 115.643 166.972 115.391 167.034 115.144Z" fill="#D7AF9F"/>
</g>
<g clip-path="url(#clip3_3540_912)">
<path d="M282.758 219.194C287.515 179.421 279.458 139.167 259.758 104.289L258.944 104.754C278.54 139.459 286.548 179.513 281.802 219.084L282.758 219.194Z" fill="#D7AF9F"/>
<path d="M272.728 152.158C273.107 152.03 273.476 151.905 273.845 151.78L274.366 151.604L274.717 151.485C274.878 151.431 275.304 151.287 275.201 150.857C275.176 150.737 275.105 150.632 275.003 150.564C274.901 150.496 274.776 150.47 274.656 150.493C271.228 145.694 266.453 142.022 260.935 139.94C255.392 137.87 249.457 137.06 243.561 137.568L243.065 137.598L243.136 138.091C243.685 141.513 245.484 144.61 248.185 146.783C250.843 148.888 253.883 150.459 257.137 151.41C263.167 153.352 268.408 153.618 272.728 152.158ZM273.724 150.765L273.459 150.855C269.099 152.698 263.736 152.537 257.424 150.447C254.287 149.526 251.358 148.007 248.798 145.974C246.409 144.059 244.756 141.376 244.121 138.381C249.726 137.973 255.353 138.787 260.613 140.767C265.861 142.763 270.417 146.24 273.727 150.775L273.724 150.765Z" fill="#D7AF9F"/>
<path d="M266.163 132.482C266.732 132.291 267.283 132.052 267.811 131.767L268.325 131.477L267.937 131.049C259.752 121.79 248.521 115.77 236.279 114.081L236.08 114.149C235.826 114.256 235.59 114.399 235.379 114.575L235.045 114.804L235.23 115.164C237.403 119.561 240.198 123.622 243.527 127.222C244.506 128.344 245.645 129.314 246.907 130.102C248.46 130.894 250.122 131.453 251.838 131.761C256.823 132.894 262.051 133.872 266.163 132.482ZM266.79 131.215C266.488 131.357 266.178 131.483 265.862 131.592C261.94 132.917 256.901 131.939 252.074 130.836C250.423 130.551 248.823 130.025 247.324 129.275C246.151 128.525 245.092 127.61 244.179 126.559C240.994 123.129 238.307 119.269 236.197 115.091L236.273 115.065C248.036 116.703 258.85 122.417 266.831 131.211L266.79 131.215Z" fill="#D7AF9F"/>
<path d="M260.637 112.512L260.413 111.848C259.423 109.025 257.438 106.66 254.829 105.196C248.409 101.12 240.721 99.5325 233.212 100.732L232.422 100.862L232.918 101.486C235.12 104.363 237.7 106.932 240.586 109.123C243.59 111.461 247.237 112.825 251.038 113.032C252.414 113.023 253.788 112.911 255.148 112.699C256.739 112.43 258.355 112.34 259.966 112.432L260.637 112.512ZM234.176 101.525C241.212 100.598 248.349 102.172 254.342 105.973C256.561 107.212 258.321 109.135 259.361 111.454C257.919 111.437 256.477 111.539 255.052 111.76C253.745 111.951 252.425 112.045 251.104 112.039C247.499 111.815 244.045 110.515 241.187 108.307C238.571 106.354 236.215 104.075 234.176 101.525Z" fill="#D7AF9F"/>
<path d="M261.237 106.82L260.167 104.965C255.869 97.4696 252.906 89.2845 251.411 80.7748L251.308 80.2187C250.851 77.618 250.387 74.9351 248.668 72.8773C248.004 72.1309 247.266 71.4538 246.465 70.8562C245.398 70.1183 244.493 69.1709 243.804 68.0718L243.115 66.7528L242.928 68.2304C242.688 69.639 242.285 71.015 241.728 72.3305C241.412 73.1762 241.083 74.0472 240.834 74.9337C239.245 80.6008 240.918 87.4244 245.309 93.1711C249.102 98.1486 254.193 101.78 259.134 105.314L261.237 106.82ZM243.639 69.4892C244.305 70.2638 245.054 70.9627 245.874 71.5733C246.635 72.1344 247.338 72.7703 247.972 73.4715C249.529 75.3308 249.973 77.8936 250.41 80.3742L250.504 80.9335C251.903 88.8622 254.558 96.5169 258.368 103.609C253.921 100.415 249.445 97.0404 246.068 92.6082C241.859 87.0853 240.241 80.5809 241.755 75.1923C241.995 74.3407 242.318 73.4823 242.63 72.6588C243.037 71.6288 243.374 70.5731 243.642 69.4987L243.639 69.4892Z" fill="#D7AF9F"/>
<path d="M264.699 106.039L264.521 103.703C264.203 99.8231 264.937 95.9291 266.644 92.4303C267.092 91.5082 267.623 90.5794 268.141 89.676C269.613 87.0673 271.152 84.4362 271.101 81.4133C271.048 77.7263 268.705 74.6338 266.092 71.495L264.967 70.1652L265.272 71.8778C265.563 73.5527 264.323 75.0694 263.118 76.5322L262.382 77.4776C259.721 80.9419 258.638 85.7943 259.346 91.1704C260.024 95.6544 261.487 99.9838 263.669 103.96L264.699 106.039ZM266.235 73.104C268.38 75.7356 270.137 78.4036 270.2 81.4012C270.24 84.1744 268.799 86.6248 267.364 89.1891C266.84 90.1052 266.303 91.0466 265.842 91.9941C264.381 94.982 263.598 98.2563 263.551 101.582C261.927 98.2693 260.825 94.7248 260.285 91.0748C259.632 86.0178 260.64 81.3808 263.153 78.1037L263.896 77.1773C264.986 76.0368 265.773 74.6422 266.187 73.12L266.235 73.104Z" fill="#D7AF9F"/>
<path d="M275.804 123.503L276.263 122.735C282.356 112.749 285.219 100.856 284.188 90.058L284.029 88.4648L283.305 89.8814C282.16 92.1156 280.137 93.8759 278.186 95.5695C275.735 97.6858 273.239 99.8592 272.329 103.006C271.902 104.739 271.794 106.536 272.01 108.308C272.354 113.25 273.502 118.103 275.409 122.676L275.804 123.503ZM283.378 91.6299C283.851 102.091 281.268 112.463 275.944 121.481C274.31 117.246 273.313 112.791 272.987 108.262C272.77 106.609 272.858 104.931 273.244 103.309C274.073 100.422 276.374 98.4199 278.806 96.3101C280.523 94.9502 282.059 93.3775 283.378 91.6299Z" fill="#D7AF9F"/>
<path d="M279.352 145.432L280.109 145.017C283.127 143.21 285.982 141.143 288.641 138.841C291.49 136.527 294.714 133.917 296.286 130.23C298.36 125.402 297.164 119.99 295.645 114.402L295.488 113.938L294.872 114.146C289.454 115.977 284.948 120.666 282.469 126.919C280.241 132.602 279.787 138.972 279.374 144.59L279.352 145.432ZM294.88 115.135C296.293 120.379 297.31 125.45 295.441 129.85C293.947 133.332 290.814 135.869 288.056 138.109C285.66 140.166 283.123 142.053 280.465 143.757C280.869 138.206 281.36 132.508 283.429 127.228C285.694 121.343 289.866 116.946 294.88 115.135Z" fill="#D7AF9F"/>
<path d="M287.919 159.067C288.539 157.433 290.888 156.67 293.039 155.975L293.986 155.655C297.256 154.686 300.3 153.076 302.941 150.919C306.045 148.17 307.689 144.448 307.334 140.99C306.958 138.581 306.022 136.294 304.602 134.313L304.309 133.852L303.896 134.224C294.921 142.271 289.41 150.298 287.049 158.77L287.919 159.067ZM291.734 155.424C290.631 155.757 289.58 156.24 288.609 156.86C291.171 149.481 296.262 142.399 304.091 135.298C305.286 137.029 306.071 139.009 306.385 141.089C306.47 142.826 306.145 144.559 305.437 146.148C304.729 147.736 303.658 149.136 302.309 150.235C299.768 152.297 296.846 153.84 293.711 154.777L291.74 155.443L291.734 155.424Z" fill="#D7AF9F"/>
<path d="M272.391 133.83L272.625 132.928C270.845 132.41 269.122 131.716 267.48 130.856L267.079 131.699C268.772 132.59 270.552 133.305 272.391 133.83Z" fill="#D7AF9F"/>
<path d="M273.058 133.489C273.246 131.55 273.781 129.661 274.635 127.91C275.48 126.137 276.033 124.24 276.272 122.29L275.342 122.225C275.107 124.071 274.577 125.868 273.773 127.547C272.873 129.379 272.308 131.357 272.105 133.388L273.058 133.489Z" fill="#D7AF9F"/>
<path d="M265.831 118.007L266.514 117.375C265.95 116.776 265.334 116.229 264.673 115.738C264.251 115.395 263.829 115.052 263.433 114.69C263.036 114.328 262.578 113.818 262.172 113.364C261.481 112.534 260.689 111.795 259.813 111.163L259.294 111.94C260.103 112.536 260.837 113.227 261.479 113.999C261.898 114.459 262.324 114.938 262.797 115.37C263.27 115.801 263.666 116.131 264.094 116.462C264.71 116.933 265.291 117.45 265.831 118.007Z" fill="#D7AF9F"/>
<path d="M266.078 116.647C265.832 115.54 265.775 114.399 265.909 113.273C265.936 113.042 265.973 112.808 266.01 112.574C266.047 112.34 266.127 111.827 266.154 111.47C266.2 110.604 266.151 109.735 266.007 108.88C265.653 106.487 265.007 104.146 264.084 101.909L263.222 102.264C264.117 104.432 264.742 106.703 265.084 109.023C265.221 109.812 265.269 110.614 265.227 111.413C265.2 111.771 265.148 112.116 265.112 112.508C265.075 112.9 265.031 112.989 265.007 113.229C264.862 114.466 264.928 115.718 265.203 116.932L266.078 116.647Z" fill="#D7AF9F"/>
<path d="M252.802 142.455C260.559 143.729 267.516 147.574 274.569 150.827C268.593 148.761 262.685 146.398 256.65 144.406C255.804 144.122 254.968 143.771 254.104 143.556L254.814 143.939C255.603 144.369 256.379 144.825 257.15 145.261C255.967 144.605 254.716 144.088 253.556 143.435L253.312 143.275C252.861 143.017 252.431 142.724 252.024 142.401C251.619 142.169 252.673 142.414 252.802 142.455Z" fill="#D7AF9F"/>
<path d="M246.194 120.496C252.873 124.361 260.004 127.44 266.614 131.381L267.298 131.72L267.01 131.617L267.34 131.811C267.207 131.73 267.067 131.661 266.928 131.592C261.324 129.712 255.913 127.299 250.77 124.385C253.723 125.72 256.697 126.963 259.666 128.251C254.704 125.797 249.896 123.044 245.268 120.006C244.501 119.421 245.861 120.323 246.194 120.496Z" fill="#D7AF9F"/>
<path d="M279.778 143.599C280.086 142.355 280.286 140.261 280.738 138.694C282.565 133.194 285.562 128.155 289.521 123.924C287.471 127.014 285.663 130.257 284.113 133.626C282.45 136.726 281.211 140.034 280.429 143.464L280.589 143.314C281.349 142.625 282.108 141.904 282.858 141.218L282.785 141.316C282.023 142.37 281.196 143.376 280.309 144.327C280.264 144.374 280.209 144.409 280.148 144.43C280.087 144.45 280.022 144.456 279.959 144.446C279.582 144.394 279.744 143.748 279.778 143.599Z" fill="#D7AF9F"/>
<path d="M275.63 121.705C275.444 116.595 275.5 107.108 278.934 103.15C277.574 105.373 277.535 108.194 277.22 110.791C276.871 114.445 276.213 118.056 275.829 121.701C275.787 122.074 275.726 122.612 275.686 122.868C275.665 122.495 275.625 122.097 275.63 121.705Z" fill="#D7AF9F"/>
<path d="M278.777 111.531C278.272 113.229 277.869 114.955 277.569 116.7C277.168 118.419 276.469 120.598 275.991 122.026C276.374 118.445 276.928 114.679 278.777 111.531Z" fill="#D7AF9F"/>
<path d="M246.536 106.424C251.518 107.454 256.798 108.678 260.567 112.365C258.978 111.293 257.264 110.419 255.464 109.761C252.715 108.653 250.593 107.998 248.06 107.092C247.436 106.87 246.834 106.588 246.2 106.337L246.536 106.424Z" fill="#D7AF9F"/>
<path d="M247.279 85.0102C248.721 87.8104 250.323 90.5257 252.075 93.1427C254.237 96.6344 256.228 100.184 258.219 103.733C258.34 103.952 258.471 104.165 258.614 104.37C258.373 104.125 258.15 103.872 257.937 103.617C253.395 98.0799 249.25 91.9654 247.279 85.0102Z" fill="#D7AF9F"/>
<path d="M262.985 98.343C262.807 95.3466 262.966 92.3397 263.46 89.379C263.69 88.2452 263.683 87.0759 263.44 85.9449C263.805 86.6709 264.003 87.4698 264.019 88.2826C264.365 91.7122 263.506 95.0742 263.141 98.4593C263.122 98.5922 263.111 98.9971 263.099 99.1173C263.063 98.855 263.018 98.5958 262.985 98.343Z" fill="#D7AF9F"/>
</g>
<defs>
<clipPath id="clip0_3540_912">
<rect width="113.43" height="163.23" fill="white" transform="matrix(-0.998355 -0.0573427 -0.0573427 0.998355 453.604 10.5039)"/>
</clipPath>
<clipPath id="clip1_3540_912">
<rect width="168.54" height="192.57" fill="white" transform="translate(-23.1875) rotate(5.90529)"/>
</clipPath>
<clipPath id="clip2_3540_912">
<rect width="66.34" height="157.1" fill="white" transform="translate(154.537 69) rotate(25.4614)"/>
</clipPath>
<clipPath id="clip3_3540_912">
<rect width="66.34" height="157.1" fill="white" transform="matrix(-0.947361 0.320166 0.320166 0.947361 280.848 54)"/>
</clipPath>
</defs>
</svg>
