<svg width="294" height="92" viewBox="0 0 294 92" fill="none" xmlns="http://www.w3.org/2000/svg">
<g clip-path="url(#clip0_3248_14958)">
<path d="M156.439 22.0948C155.653 22.3787 154.914 22.7785 154.249 23.2805C153.608 23.7705 153.035 24.3421 152.546 24.9805C152.115 25.5516 151.748 26.1669 151.45 26.8158C151.319 27.119 151.209 27.4059 151.116 27.6766C151.023 27.9473 150.952 28.218 150.897 28.4454C150.843 28.6728 150.804 28.9002 150.777 29.0951C150.749 29.2615 150.737 29.43 150.738 29.5986C150.738 29.8747 150.738 30.0425 150.826 30.0642C150.914 30.0859 151.023 29.983 151.209 29.7881L151.949 28.9814C152.102 28.819 152.277 28.6511 152.453 28.44C152.628 28.2289 152.83 28.0827 153.033 27.8986C153.466 27.5291 153.927 27.1942 154.413 26.897C154.899 26.6125 155.415 26.3819 155.952 26.2094C156.421 26.0637 156.907 25.9764 157.398 25.9496C157.765 25.9313 158.133 25.9604 158.493 26.0362C158.563 26.0504 158.633 26.0684 158.701 26.0903C158.763 26.1001 158.824 26.1164 158.882 26.1391L159.041 26.1824L159.167 26.2257L159.999 26.4801C160.282 26.5654 160.557 26.6759 160.82 26.8104C161.396 27.0973 161.987 27.5792 162.628 27.5467C162.799 27.5351 162.965 27.4841 163.112 27.3975C163.26 27.311 163.384 27.1915 163.477 27.0486C163.763 26.6109 163.887 26.0885 163.827 25.5706C163.757 24.7733 163.44 24.017 162.918 23.405C162.291 22.6606 161.454 22.1177 160.514 21.8458C159.918 21.675 159.299 21.5983 158.679 21.6184C157.911 21.6537 157.154 21.8147 156.439 22.0948Z" fill="url(#paint0_linear_3248_14958)"/>
<path d="M131.418 27.5734C132.064 27.6059 132.65 27.124 133.23 26.8371C133.492 26.7027 133.765 26.5922 134.046 26.5068L134.879 26.2524L135.005 26.2091L135.163 26.1658C135.222 26.1431 135.282 26.1268 135.344 26.117C135.414 26.0945 135.485 26.0764 135.558 26.0629C135.917 25.9869 136.286 25.9577 136.653 25.9763C137.144 26.0036 137.63 26.0909 138.099 26.2361C138.634 26.4087 139.148 26.6393 139.632 26.9237C140.119 27.2195 140.581 27.5545 141.012 27.9253C141.215 28.1094 141.412 28.2881 141.598 28.4667C141.784 28.6454 141.949 28.8186 142.097 29.0081L142.836 29.8148C143.028 30.0097 143.159 30.118 143.219 30.0909C143.279 30.0638 143.318 29.9014 143.312 29.6253C143.309 29.4569 143.296 29.2888 143.274 29.1218C143.241 28.9269 143.203 28.7103 143.153 28.4721C143.104 28.2339 143.017 27.9795 142.934 27.7033C142.852 27.4272 142.726 27.1619 142.6 26.8425C142.303 26.1938 141.936 25.5785 141.505 25.0072C141.029 24.3601 140.467 23.7792 139.835 23.2801C139.169 22.7777 138.431 22.378 137.644 22.0944C136.915 21.8254 136.145 21.679 135.366 21.6613C134.744 21.6413 134.124 21.718 133.526 21.8887C132.588 22.1616 131.753 22.7044 131.127 23.4479C130.602 24.0583 130.283 24.8152 130.213 25.6135C130.156 26.1313 130.279 26.6528 130.563 27.0916C130.658 27.2322 130.784 27.349 130.933 27.4326C131.081 27.5163 131.247 27.5645 131.418 27.5734Z" fill="url(#paint1_linear_3248_14958)"/>
<path d="M134.057 18.1967C145.689 21.3855 144.249 30.0209 144.249 30.0209V30.2374C144.25 30.4763 144.347 30.7049 144.518 30.8733C144.69 31.0416 144.922 31.1362 145.163 31.1362H145.421C145.511 31.1361 145.598 31.1713 145.663 31.2341C145.727 31.2969 145.764 31.3823 145.766 31.4718V33.1285C145.766 33.1773 145.755 33.2255 145.733 33.2693L143.487 37.974V38.0011C144.714 39.6253 146.494 44.2759 146.866 45.2613C146.873 45.2738 146.883 45.2843 146.895 45.2917C146.907 45.299 146.921 45.3029 146.935 45.3029C146.949 45.3029 146.963 45.299 146.975 45.2917C146.987 45.2843 146.997 45.2738 147.003 45.2613C147.37 44.2759 149.15 39.6253 150.377 38.0011V37.974L148.137 33.2693C148.115 33.2255 148.104 33.1773 148.104 33.1285V31.4718C148.104 31.3828 148.14 31.2974 148.203 31.2345C148.267 31.1715 148.354 31.1362 148.444 31.1362H148.526C148.816 31.1362 149.095 31.0221 149.3 30.819C149.506 30.6159 149.621 30.3405 149.621 30.0534C149.621 30.0534 148.181 21.391 159.813 18.2075C162.282 17.5308 153.695 17.1247 150.245 20.9578C155.766 13.3458 147.704 1.1697 146.921 0.0273438C146.138 1.1697 138.077 13.3458 143.602 20.9578C140.169 17.1193 131.587 17.52 134.057 18.1967Z" fill="url(#paint2_linear_3248_14958)"/>
<path d="M160.601 43.9184C159.813 43.7851 159.018 43.7019 158.219 43.6694C156.876 43.6082 155.53 43.648 154.194 43.7885C153.646 43.8481 153.098 43.9293 152.666 43.9997C152.233 44.07 151.833 44.1567 151.527 44.2325L150.568 44.4923L151.549 44.3841C151.866 44.3841 152.255 44.3407 152.699 44.3083C153.142 44.2758 153.657 44.2758 154.221 44.3083C155.535 44.312 156.847 44.3825 158.153 44.5194C158.887 44.6006 159.643 44.7089 160.431 44.8713C161.22 45.0337 162.041 45.1907 162.874 45.4127C166.209 46.1761 169.215 47.0369 171.428 47.5783C172.523 47.8436 173.432 48.0439 174.057 48.163L175.026 48.3579L171.576 47.1073C168.807 46.0558 165.976 45.1716 163.098 44.4598C162.25 44.2 161.412 44.0592 160.601 43.9184Z" fill="url(#paint3_linear_3248_14958)"/>
<path d="M162.929 40.5999C162.72 40.8253 162.495 41.0352 162.255 41.228C161.879 41.5181 161.482 41.7805 161.067 42.013L159.889 42.6627C159.577 42.8413 159.38 42.9767 159.391 43.0254C159.402 43.0741 159.643 43.1012 160.01 43.0958C160.475 43.0931 160.94 43.0587 161.401 42.9929C161.965 42.9193 162.517 42.7756 163.044 42.5652C163.475 42.4015 163.87 42.1549 164.205 41.8397C164.411 41.6474 164.577 41.4161 164.692 41.1595C164.807 40.9028 164.868 40.626 164.873 40.3455C164.88 40.1552 164.83 39.967 164.731 39.8041C164.698 39.7487 164.654 39.7011 164.601 39.6646C164.548 39.6281 164.488 39.6036 164.424 39.5929C164.288 39.5904 164.153 39.6161 164.027 39.6683C163.902 39.7205 163.789 39.7981 163.696 39.8961C163.438 40.1235 163.192 40.3347 162.929 40.5999Z" fill="url(#paint4_linear_3248_14958)"/>
<path d="M157.72 42.3704C158.151 42.1886 158.558 41.954 158.93 41.672C159.239 41.4451 159.5 41.1599 159.697 40.8328C159.819 40.6337 159.9 40.4123 159.935 40.1817C159.97 39.9511 159.958 39.716 159.899 39.4901C159.79 39.1437 159.576 38.9812 159.379 39.0029C159.269 39.0314 159.165 39.0822 159.076 39.1521C158.986 39.222 158.912 39.3094 158.859 39.4089C158.716 39.6201 158.563 39.8421 158.415 40.1128C158.298 40.3414 158.162 40.5604 158.01 40.7679C157.775 41.084 157.515 41.3809 157.232 41.6557C156.641 42.2405 156.066 42.7385 156.137 42.8306C156.69 42.7816 157.228 42.6252 157.72 42.3704Z" fill="url(#paint5_linear_3248_14958)"/>
<path d="M165.727 43.8908C166.241 43.9256 166.757 43.9256 167.271 43.8908C167.889 43.8522 168.5 43.7376 169.089 43.5497C169.58 43.4017 170.036 43.1588 170.431 42.8351C170.674 42.6402 170.875 42.3988 171.022 42.1253C171.169 41.8518 171.259 41.5518 171.285 41.2433C171.296 41.1343 171.287 41.0242 171.258 40.9185C171.24 40.8302 171.211 40.7446 171.17 40.664C171.139 40.6012 171.094 40.5457 171.039 40.5009C170.985 40.4562 170.921 40.4232 170.853 40.4042C170.702 40.3917 170.55 40.4102 170.407 40.4587C170.263 40.5071 170.132 40.5844 170.02 40.6857C169.746 40.8914 169.473 41.1026 169.144 41.3733C168.898 41.6078 168.632 41.8215 168.35 42.0121C167.915 42.3057 167.457 42.5646 166.981 42.7863L165.628 43.4144C165.267 43.5876 165.042 43.7175 165.053 43.7717C165.064 43.8258 165.321 43.8637 165.727 43.8908Z" fill="url(#paint6_linear_3248_14958)"/>
<path d="M196.93 54.1782C196.406 54.0381 195.868 53.9564 195.325 53.9346C195.276 54.0104 195.796 54.411 196.689 54.8658C197.582 55.3206 198.814 55.8728 200.145 56.4088C202.467 57.3574 204.844 58.1673 207.264 58.8342C208.473 59.1402 209.719 59.2733 210.966 59.2295C211.957 59.1645 212.609 58.8938 212.658 58.504C212.708 58.1142 212.215 57.6919 211.366 57.2588C210.27 56.7369 209.118 56.3391 207.932 56.0731C206.558 55.7483 203.398 55.261 200.594 54.8008C199.208 54.568 197.883 54.3514 196.93 54.1782Z" fill="url(#paint7_linear_3248_14958)"/>
<path d="M204.4 48.8937C204.4 49.0789 204.456 49.26 204.56 49.414C204.664 49.568 204.812 49.6881 204.985 49.759C205.158 49.8299 205.349 49.8484 205.533 49.8123C205.716 49.7761 205.885 49.6869 206.018 49.5559C206.15 49.425 206.24 49.2581 206.277 49.0764C206.314 48.8947 206.295 48.7064 206.223 48.5352C206.151 48.3641 206.03 48.2178 205.874 48.1149C205.718 48.012 205.535 47.957 205.348 47.957C205.097 47.957 204.856 48.0557 204.678 48.2314C204.5 48.407 204.4 48.6452 204.4 48.8937Z" fill="url(#paint8_linear_3248_14958)"/>
<path d="M200.95 52.0019C201.361 52.0019 201.695 51.6722 201.695 51.2656C201.695 50.859 201.361 50.5293 200.95 50.5293C200.539 50.5293 200.205 50.859 200.205 51.2656C200.205 51.6722 200.539 52.0019 200.95 52.0019Z" fill="url(#paint9_linear_3248_14958)"/>
<path d="M207.134 44.8553C207.256 44.8542 207.374 44.8177 207.474 44.7505C207.574 44.6832 207.652 44.5881 207.697 44.4772C207.743 44.3664 207.754 44.2446 207.73 44.1273C207.706 44.0101 207.647 43.9025 207.561 43.8183C207.475 43.734 207.365 43.6768 207.247 43.6538C207.128 43.6309 207.005 43.6432 206.893 43.6893C206.781 43.7353 206.686 43.813 206.619 43.9126C206.551 44.0122 206.516 44.1292 206.516 44.2489C206.516 44.329 206.532 44.4083 206.563 44.4822C206.594 44.5561 206.64 44.6232 206.697 44.6796C206.755 44.736 206.823 44.7805 206.898 44.8107C206.973 44.8408 207.053 44.856 207.134 44.8553Z" fill="url(#paint10_linear_3248_14958)"/>
<path d="M122.638 47.5295C124.828 46.9881 127.851 46.1327 131.192 45.3639C132.024 45.1582 132.835 45.0066 133.634 44.8225C134.434 44.6384 135.179 44.5518 135.913 44.4706C137.219 44.3336 138.531 44.2632 139.845 44.2594C140.392 44.2594 140.94 44.2594 141.367 44.2594C141.794 44.2594 142.2 44.3082 142.517 44.3352L143.492 44.4435L142.539 44.1836C142.232 44.1078 141.849 44.0375 141.4 43.9508C140.951 43.8642 140.442 43.7992 139.872 43.7397C138.535 43.5992 137.19 43.5594 135.847 43.6206C135.048 43.6531 134.253 43.7362 133.465 43.8696C132.654 44.0104 131.822 44.1511 130.967 44.3623C128.09 45.0733 125.259 45.9574 122.49 47.0097L119.023 48.3253L119.993 48.1304C120.633 47.9951 121.532 47.7839 122.638 47.5295Z" fill="url(#paint11_linear_3248_14958)"/>
<path d="M89.0243 43.1769C89.2064 43.591 89.4131 43.9941 89.6432 44.3842C89.88 44.7854 90.1434 45.1706 90.4318 45.5374C90.5796 45.7214 90.722 45.9109 90.8863 46.0788C90.9684 46.1654 91.0451 46.2574 91.1327 46.344L91.3847 46.6039C91.4668 46.6905 91.5599 46.7717 91.6475 46.853L91.9213 47.102L92.469 47.5568L92.7483 47.7896L93.044 48.0061L93.3342 48.2281C93.4328 48.3039 93.5259 48.3797 93.63 48.4447L94.2488 48.867C94.4569 49.0077 94.676 49.1323 94.895 49.2622C95.1141 49.3921 95.3331 49.5166 95.5577 49.6358L95.8972 49.8144C96.0122 49.8794 96.1327 49.9281 96.2477 49.9822L96.6037 50.1447C96.7187 50.1988 96.8391 50.2529 96.9596 50.2963L97.6935 50.5832L98.4382 50.8322C98.5642 50.8756 98.6902 50.908 98.8216 50.9405L99.1995 51.0434C100.231 51.3087 101.279 51.5058 102.337 51.6335C102.6 51.6714 102.885 51.6931 103.132 51.7256L103.531 51.7689L103.931 51.8013L104.736 51.8609L105.536 51.9096L106.346 51.9475L107.151 51.98H107.973H108.794H109.616L110.437 51.9313C110.985 51.9313 111.532 51.8392 112.08 51.7851C112.354 51.758 112.628 51.7147 112.896 51.6822C113.164 51.6498 113.444 51.6173 113.712 51.5685C114.26 51.4819 114.807 51.4007 115.355 51.2978C116.45 51.1029 117.485 50.8647 118.537 50.6265C119.588 50.3883 120.629 50.123 121.658 49.8523C122.688 49.5816 123.701 49.3109 124.703 49.0456C125.705 48.7803 126.696 48.5042 127.682 48.266C129.648 47.7246 131.543 47.2211 133.372 46.8096C134.287 46.6039 135.19 46.4307 136.072 46.2682C136.954 46.1058 137.813 46.0354 138.651 45.9705C140.212 45.8565 141.78 45.9457 143.317 46.2358C143.987 46.3638 144.642 46.5578 145.272 46.8151C145.832 47.0413 146.345 47.368 146.784 47.7788C146.825 47.8176 146.863 47.8592 146.899 47.9033C146.805 48.0303 146.72 48.1642 146.647 48.3039C146.529 48.5479 146.444 48.8065 146.395 49.0727C146.395 49.1322 146.395 49.1972 146.395 49.2622C146.395 49.3272 146.395 49.3867 146.395 49.4463C146.387 49.567 146.387 49.6882 146.395 49.809C146.42 50.0296 146.473 50.2461 146.554 50.4533C146.655 50.7311 146.807 50.9881 147.003 51.2112L146.926 51.2978C146.746 51.4865 146.51 51.6151 146.253 51.666C146.094 51.7 145.929 51.7 145.771 51.666C145.715 51.6513 145.658 51.6405 145.601 51.6335C145.601 51.6335 145.601 51.6335 145.639 51.6335C145.678 51.6522 145.719 51.6685 145.76 51.6822C145.923 51.7319 146.094 51.7467 146.264 51.7256C146.541 51.6829 146.799 51.5583 147.003 51.3682C147.036 51.3682 147.058 51.3087 147.085 51.2816L147.167 51.3682C147.374 51.5576 147.633 51.682 147.912 51.7256C148.081 51.7467 148.253 51.7319 148.416 51.6822C148.457 51.6685 148.497 51.6522 148.536 51.6335H148.575C148.517 51.6399 148.46 51.6508 148.405 51.666C148.246 51.7 148.082 51.7 147.923 51.666C147.665 51.6151 147.43 51.4865 147.249 51.2978L147.173 51.2112C147.366 50.9867 147.518 50.7301 147.622 50.4533C147.702 50.2461 147.756 50.0296 147.781 49.809C147.789 49.6882 147.789 49.567 147.781 49.4463C147.781 49.3867 147.781 49.3217 147.781 49.2622C147.781 49.2026 147.781 49.1322 147.753 49.0727C147.709 48.8061 147.626 48.5472 147.507 48.3039C147.433 48.163 147.347 48.0289 147.249 47.9033C147.287 47.8592 147.327 47.8176 147.37 47.7788C147.809 47.368 148.322 47.0413 148.881 46.8151C149.512 46.5578 150.167 46.3638 150.836 46.2358C152.373 45.9457 153.942 45.8565 155.502 45.9705C156.34 46.0354 157.2 46.1275 158.082 46.2682C158.963 46.409 159.861 46.5877 160.776 46.8096C162.611 47.2211 164.505 47.7463 166.471 48.266C167.452 48.5205 168.443 48.7749 169.451 49.0456C170.458 49.3163 171.466 49.587 172.495 49.8523C173.525 50.1176 174.566 50.3937 175.612 50.6265C176.658 50.8593 177.725 51.1029 178.799 51.2978C179.346 51.4007 179.894 51.4819 180.414 51.5685C180.683 51.6173 180.962 51.6443 181.23 51.6822C181.499 51.7201 181.778 51.758 182.041 51.7851C182.588 51.8392 183.136 51.9042 183.684 51.9313L184.505 51.98H185.327H186.148H186.97L187.775 51.9475L188.58 51.9096L189.385 51.8609L190.19 51.8013L190.589 51.7689L190.989 51.7256C191.252 51.6931 191.537 51.6714 191.783 51.6335C192.84 51.5058 193.886 51.3087 194.916 51.0434L195.299 50.9405C195.425 50.908 195.557 50.8756 195.677 50.8322L196.427 50.5832L197.161 50.2963C197.282 50.2529 197.402 50.1988 197.517 50.1447L197.868 49.9822C197.988 49.9329 198.105 49.8768 198.218 49.8144L198.558 49.6358C198.788 49.5166 199.012 49.3975 199.226 49.2622C199.439 49.1268 199.664 49.0077 199.872 48.867L200.485 48.4447C200.589 48.3797 200.688 48.3039 200.786 48.2281L201.077 48.0061L201.367 47.7896C201.466 47.7138 201.553 47.6326 201.646 47.5568L202.194 47.102L202.462 46.853L202.731 46.6039L202.983 46.344C203.07 46.2574 203.147 46.1654 203.229 46.0788C203.388 45.9055 203.536 45.716 203.684 45.5374C203.972 45.1706 204.235 44.7854 204.472 44.3842C204.7 43.993 204.907 43.5899 205.091 43.1769C205.263 42.7712 205.409 42.3553 205.529 41.9316C205.991 40.3706 206.003 38.7128 205.562 37.1457C205.366 36.4656 205.072 35.8166 204.691 35.2183C204.357 34.6895 203.962 34.2008 203.514 33.7619C203.103 33.3606 202.656 32.9981 202.177 32.6791L201.822 32.4517L201.635 32.3435L201.444 32.2406C201.318 32.1702 201.186 32.1107 201.055 32.0511L200.858 31.9645L200.661 31.8833C200.129 31.6788 199.579 31.5265 199.018 31.4285C198.484 31.3313 197.944 31.2734 197.402 31.2552C196.354 31.228 195.307 31.3316 194.286 31.5638C193.794 31.6748 193.31 31.814 192.835 31.9807C192.599 32.0619 192.369 32.1594 192.139 32.2514C192.024 32.2947 191.915 32.3489 191.805 32.3976C191.696 32.4463 191.581 32.5005 191.471 32.56L191.148 32.7224L190.83 32.9065L190.672 32.9931L190.518 33.0906L190.217 33.2855L189.927 33.4912L189.784 33.5941L189.642 33.7078L189.368 33.9298L189.105 34.1626C189.018 34.2384 188.936 34.3196 188.853 34.4062L188.607 34.6498C188.459 34.8285 188.3 34.9909 188.163 35.1912C187.883 35.5448 187.638 35.9237 187.43 36.3227C187.38 36.4256 187.331 36.5231 187.287 36.6259L187.216 36.7721L187.156 36.9291L187.041 37.2323L186.948 37.5463L186.898 37.7033L186.866 37.8603L186.8 38.1743C186.8 38.2772 186.8 38.3855 186.761 38.4883V38.6453C186.759 38.6976 186.759 38.7501 186.761 38.8024V39.1109C186.761 39.2138 186.761 39.3167 186.761 39.4195V39.5711V39.7227C186.761 39.8256 186.761 39.923 186.8 40.0205L186.86 40.3129L186.893 40.459L186.937 40.5998L187.019 40.8759C187.052 40.9679 187.09 41.0546 187.123 41.1466C187.139 41.1909 187.157 41.2342 187.178 41.2765L187.238 41.4065L187.358 41.6555L187.495 41.8937L187.566 42.0128L187.643 42.1265L187.796 42.3485C187.846 42.4189 187.906 42.4893 187.961 42.5542C188.069 42.6903 188.184 42.8204 188.306 42.9441C188.758 43.4001 189.293 43.7675 189.883 44.0269C190.391 44.2574 190.936 44.3968 191.493 44.4383C191.957 44.4772 192.425 44.4443 192.879 44.3409L193.026 44.3084L193.169 44.2651L193.437 44.1839C193.607 44.1135 193.766 44.0539 193.908 43.989L194.286 43.7832L194.407 43.702C194.857 43.6006 195.254 43.3406 195.524 42.9707C195.795 42.6008 195.92 42.1462 195.876 41.6919C195.832 41.2376 195.622 40.8146 195.286 40.5019C194.95 40.1892 194.51 40.0082 194.048 39.9928C193.587 39.9773 193.136 40.1284 192.779 40.4179C192.422 40.7073 192.184 41.1153 192.109 41.5657C192.034 42.016 192.128 42.4779 192.372 42.8651C192.616 43.2522 192.995 43.5382 193.437 43.6695L193.295 43.7074L193.048 43.7507H192.917H192.78C192.379 43.7959 191.973 43.785 191.575 43.7183C191.109 43.6411 190.659 43.4874 190.244 43.2635C189.768 43.0111 189.341 42.6754 188.985 42.2727C188.897 42.1644 188.799 42.0562 188.717 41.9371L188.574 41.8288L188.459 41.6393L188.399 41.5418L188.35 41.4444L188.246 41.2441C188.213 41.1737 188.185 41.1033 188.158 41.0275L188.109 40.9246L188.076 40.8109C188.076 40.7406 188.027 40.6648 187.999 40.589C187.972 40.5132 187.961 40.4374 187.944 40.3616L187.912 40.2479V40.1288C187.912 40.0476 187.884 39.9718 187.868 39.8906V39.6469V39.5278V39.1218V38.8727C187.868 38.8294 187.868 38.7915 187.868 38.7482V38.6237C187.868 38.5371 187.868 38.4559 187.906 38.3692C187.944 38.2826 187.95 38.2014 187.966 38.1202L187.999 37.9903L188.043 37.8657L188.125 37.6167L188.229 37.3676L188.284 37.2431L188.344 37.124L188.47 36.8804C189.306 35.5 190.553 34.4089 192.041 33.7565C192.134 33.7078 192.232 33.6645 192.336 33.6212L192.638 33.4966C192.84 33.4154 193.048 33.3342 193.262 33.2692C193.686 33.1235 194.12 33.0059 194.56 32.9173C195.459 32.7254 196.379 32.6453 197.298 32.6791C197.767 32.696 198.234 32.7485 198.695 32.8361C199.157 32.9215 199.61 33.0521 200.047 33.2259L200.206 33.2909L200.365 33.3613C200.472 33.4082 200.576 33.4606 200.677 33.5183L200.83 33.5995L200.984 33.6861L201.29 33.881C201.683 34.1488 202.049 34.4514 202.386 34.7852C202.755 35.1443 203.082 35.5439 203.36 35.9762C203.671 36.4648 203.912 36.993 204.078 37.5463C204.256 38.1663 204.348 38.8074 204.352 39.452C204.352 39.6199 204.352 39.7931 204.352 39.9664C204.352 40.1396 204.313 40.3129 204.297 40.5078C204.25 40.8734 204.177 41.2352 204.078 41.5906C203.977 41.9583 203.855 42.3199 203.711 42.6734C203.548 43.0438 203.365 43.4052 203.163 43.7562C202.959 44.1096 202.733 44.4495 202.484 44.774C202.353 44.9364 202.232 45.1042 202.09 45.2612C202.019 45.337 201.953 45.4183 201.876 45.494L201.657 45.7268C201.586 45.8026 201.504 45.873 201.427 45.9488C201.351 46.0246 201.274 46.095 201.192 46.1708L200.677 46.6093L200.414 46.8259L200.146 47.037L199.872 47.2482C199.784 47.3214 199.693 47.3901 199.598 47.4539L199.05 47.8545C198.859 47.9845 198.656 48.1036 198.459 48.2281C198.262 48.3526 198.054 48.4663 197.851 48.58L197.539 48.7533L197.216 48.9049L196.893 49.0619C196.789 49.1106 196.679 49.1647 196.57 49.208L195.896 49.4787L195.206 49.717C195.091 49.7603 194.971 49.7928 194.856 49.8252L194.5 49.9281C193.524 50.193 192.533 50.3956 191.531 50.5345C191.279 50.5724 191.017 50.5994 190.765 50.6319L190.376 50.6752L189.987 50.7131L189.204 50.7889L188.415 50.8485C188.152 50.8485 187.868 50.8864 187.621 50.8972L186.827 50.9459H186.039H185.644C185.507 50.9459 185.376 50.9459 185.245 50.9459H184.45C184.188 50.9459 183.903 50.9459 183.656 50.908C183.109 50.908 182.588 50.8377 182.057 50.7943C181.794 50.7943 181.51 50.7348 181.263 50.7077C181.017 50.6807 180.716 50.6536 180.464 50.6103C179.916 50.5345 179.407 50.4641 178.875 50.3721C177.819 50.1988 176.767 49.9877 175.721 49.7657C174.675 49.5437 173.64 49.3055 172.616 49.0565L169.555 48.3039C168.547 48.0549 167.539 47.8167 166.559 47.5838C164.593 47.1074 162.676 46.6202 160.814 46.2412C159.889 46.0517 158.969 45.8947 158.076 45.7702C157.183 45.6456 156.296 45.5698 155.442 45.5265C153.842 45.4507 152.238 45.5817 150.672 45.9163C149.982 46.0692 149.309 46.2886 148.662 46.5714C148.074 46.8313 147.541 47.1987 147.09 47.6542L146.997 47.7517L146.91 47.6542C146.46 47.1987 145.926 46.8313 145.338 46.5714C144.691 46.2894 144.018 46.0701 143.328 45.9163C141.762 45.582 140.159 45.4509 138.558 45.5265C137.704 45.5698 136.822 45.6456 135.924 45.7702C135.026 45.8947 134.106 46.0517 133.186 46.2412C131.324 46.6202 129.407 47.1074 127.441 47.5838C126.461 47.8167 125.453 48.0549 124.446 48.3039L121.384 49.0565C120.355 49.3055 119.32 49.5383 118.274 49.7657C117.228 49.9931 116.182 50.1988 115.125 50.3721C114.577 50.4641 114.062 50.5345 113.531 50.6103C113.268 50.6536 112.984 50.6752 112.737 50.7077C112.491 50.7402 112.189 50.7727 111.938 50.7943C111.39 50.8377 110.875 50.8918 110.344 50.908C110.081 50.908 109.796 50.9405 109.55 50.9459H108.783C108.652 50.9459 108.515 50.9459 108.383 50.9459H107.989H107.2L106.401 50.8972C106.138 50.8972 105.875 50.881 105.612 50.8485L104.824 50.7889L104.041 50.7131L103.652 50.6752L103.263 50.6319C103.006 50.5994 102.748 50.5724 102.496 50.5345C101.495 50.3961 100.503 50.1936 99.528 49.9281L99.1721 49.8252C99.0571 49.7928 98.9366 49.7603 98.8216 49.717L98.1316 49.4787L97.458 49.208C97.3484 49.1647 97.2389 49.1106 97.1294 49.0619L96.8063 48.9049L96.4887 48.7533L96.1765 48.58C95.9684 48.4663 95.7603 48.358 95.5686 48.2281C95.3769 48.0982 95.1688 47.9845 94.9772 47.8545L94.4295 47.4539C94.3347 47.3901 94.2433 47.3214 94.1557 47.2482L93.8819 47.037L93.6135 46.8259L93.3507 46.6093L92.8359 46.1708L92.6004 45.9488C92.5237 45.873 92.4416 45.8026 92.3704 45.7268L92.1459 45.494L91.9378 45.2612C91.7954 45.1042 91.6694 44.9364 91.5435 44.774C91.2951 44.4495 91.0683 44.1096 90.8644 43.7562C90.6599 43.4065 90.4771 43.0449 90.3168 42.6734C90.0321 41.9777 89.8335 41.2505 89.7253 40.5078C89.7253 40.3291 89.687 40.1558 89.676 39.9664C89.6651 39.7769 89.676 39.6199 89.676 39.452C89.674 38.8071 89.7662 38.1652 89.9498 37.5463C90.1154 36.993 90.3568 36.4648 90.6672 35.9762C90.9473 35.5469 91.2742 35.1493 91.642 34.7906C91.9799 34.4584 92.3464 34.1558 92.7373 33.8864L93.044 33.6915L93.1973 33.6049L93.3507 33.5237C93.4513 33.4649 93.5555 33.4125 93.6628 33.3667L93.8162 33.2963L93.9805 33.2314C94.4156 33.0582 94.8668 32.9276 95.3276 32.8415C95.7903 32.7542 96.2589 32.7017 96.7296 32.6845C97.6488 32.65 98.5688 32.73 99.4678 32.9228C99.9097 33.0113 100.345 33.1289 100.771 33.2747C100.985 33.3396 101.187 33.4208 101.395 33.5021L101.697 33.6266C101.795 33.6699 101.899 33.7132 101.992 33.7619C103.479 34.4161 104.725 35.5068 105.563 36.8858L105.689 37.1294L105.749 37.2485L105.804 37.3731C105.837 37.4597 105.87 37.5409 105.908 37.6221L105.99 37.8711L106.034 37.9957C106.037 38.0389 106.037 38.0823 106.034 38.1256L106.1 38.3746C106.1 38.4613 106.127 38.5425 106.138 38.6291V38.7536C106.138 38.7969 106.138 38.8348 106.138 38.8781V39.1272V39.5008V39.6199C106.138 39.7011 106.138 39.7823 106.138 39.8635C106.138 39.9447 106.138 40.0205 106.1 40.1017V40.2208L106.067 40.3345L106.012 40.5619C105.985 40.6377 105.963 40.7135 105.935 40.7839C105.925 40.8225 105.912 40.8605 105.897 40.8976L105.853 41.0004C105.826 41.0762 105.793 41.1466 105.766 41.217L105.662 41.4173L105.612 41.5148L105.552 41.6122L105.437 41.8017L105.311 41.9804C105.229 42.0995 105.13 42.2078 105.043 42.316C104.687 42.7188 104.26 43.0544 103.783 43.3068C103.009 43.7227 102.123 43.8928 101.248 43.7941H101.111H100.979L100.727 43.7507L100.59 43.7128C101.034 43.5814 101.414 43.2948 101.66 42.9065C101.905 42.5183 101.999 42.055 101.924 41.6032C101.849 41.1514 101.61 40.7421 101.252 40.4516C100.894 40.1612 100.442 40.0096 99.9788 40.0251C99.516 40.0406 99.0747 40.2222 98.7374 40.5359C98.4001 40.8496 98.1899 41.274 98.1461 41.7298C98.1023 42.1856 98.2279 42.6415 98.4993 43.0125C98.7708 43.3834 99.1696 43.6439 99.6211 43.7453L99.7416 43.8265L100.119 44.0323C100.262 44.0972 100.421 44.1568 100.59 44.2272L100.859 44.3084L101.001 44.3517L101.149 44.3842C101.601 44.4876 102.067 44.5205 102.529 44.4816C103.097 44.4441 103.654 44.3046 104.172 44.0702C104.761 43.8096 105.296 43.4423 105.749 42.9874C105.871 42.8637 105.986 42.7336 106.094 42.5976C106.149 42.5326 106.209 42.4622 106.259 42.3918L106.412 42.1699C106.412 42.132 106.467 42.0941 106.489 42.0562L106.56 41.9371L106.697 41.6988L106.817 41.4498L106.877 41.3199C106.898 41.2775 106.916 41.2342 106.932 41.1899C106.965 41.0979 106.998 41.0113 107.036 40.9192L107.118 40.6431L107.162 40.5023L107.195 40.3562C107.195 40.2587 107.233 40.1613 107.255 40.0638C107.277 39.9664 107.283 39.8689 107.294 39.766V39.6145V39.4629C107.294 39.36 107.294 39.2571 107.294 39.1543C107.294 39.0514 107.294 38.9485 107.294 38.8457C107.296 38.7934 107.296 38.741 107.294 38.6887V38.5317C107.294 38.4288 107.294 38.3205 107.25 38.2176C107.206 38.1148 107.211 38.0065 107.19 37.9036C107.18 37.8506 107.167 37.7981 107.151 37.7466L107.107 37.5896L107.014 37.2756L106.899 36.9724L106.839 36.8154L106.768 36.6692L106.625 36.3661C106.415 35.9681 106.17 35.5895 105.892 35.2345C105.755 35.045 105.596 34.8826 105.448 34.6931L105.202 34.4495C105.119 34.3629 105.037 34.2817 104.95 34.2059L104.687 33.9731L104.413 33.7511L104.271 33.6374L104.128 33.5345L103.838 33.3288L103.531 33.1339L103.378 33.0364L103.225 32.9498L102.907 32.7657L102.584 32.6033C102.474 32.5438 102.365 32.495 102.25 32.4409L101.916 32.2947C101.686 32.2027 101.456 32.1052 101.22 32.024C100.743 31.8566 100.257 31.7174 99.7635 31.6072C98.744 31.3747 97.6988 31.271 96.6529 31.2986C96.1016 31.315 95.5524 31.3729 95.01 31.4718C94.4579 31.5715 93.9169 31.7238 93.3945 31.9266L93.1973 32.0078L93.0002 32.0944C92.8688 32.154 92.7373 32.2135 92.6114 32.2839L92.4197 32.3868L92.2335 32.495L91.8775 32.7224C91.3979 33.04 90.9504 33.4027 90.5413 33.8052C90.0931 34.2454 89.6963 34.7339 89.3584 35.2616C88.9793 35.8611 88.6862 36.5098 88.4876 37.189C88.0514 38.757 88.0646 40.414 88.526 41.9749C88.6647 42.3861 88.8312 42.7877 89.0243 43.1769ZM147.238 48.4176C147.353 48.6363 147.438 48.8694 147.49 49.1106L147.523 49.2893C147.523 49.3434 147.523 49.403 147.523 49.4625C147.531 49.5724 147.531 49.6828 147.523 49.7928C147.506 50.0009 147.463 50.2062 147.397 50.4045C147.312 50.6645 147.182 50.9081 147.014 51.1246C146.847 50.9078 146.719 50.6642 146.636 50.4045C146.567 50.2069 146.525 50.0012 146.51 49.7928C146.502 49.6828 146.502 49.5724 146.51 49.4625C146.507 49.4048 146.507 49.347 146.51 49.2893L146.537 49.1106C146.591 48.8692 146.678 48.6362 146.795 48.4176C146.853 48.3074 146.921 48.2023 146.997 48.1036C147.087 48.201 147.168 48.3061 147.238 48.4176Z" fill="url(#paint12_linear_3248_14958)"/>
<path d="M131.071 42.5645C131.599 42.7749 132.151 42.9186 132.714 42.9922C133.175 43.0582 133.64 43.0926 134.105 43.0951C134.467 43.0951 134.708 43.0951 134.719 43.0247C134.73 42.9543 134.538 42.8407 134.226 42.662L133.048 42.0123C132.633 41.7798 132.236 41.5174 131.86 41.2273C131.619 41.036 131.394 40.8259 131.186 40.5993C130.924 40.334 130.677 40.1228 130.442 39.9225C130.347 39.8244 130.233 39.7467 130.107 39.6945C129.981 39.6423 129.845 39.6167 129.708 39.6193C129.645 39.63 129.585 39.6545 129.533 39.6911C129.481 39.7276 129.438 39.7752 129.407 39.8305C129.307 39.9934 129.258 40.1816 129.264 40.3719C129.268 40.6521 129.328 40.9289 129.442 41.1856C129.556 41.4423 129.721 41.6737 129.927 41.8661C130.261 42.168 130.649 42.4049 131.071 42.5645Z" fill="url(#paint13_linear_3248_14958)"/>
<path d="M136.05 40.7454C135.901 40.5369 135.767 40.318 135.65 40.0903C135.503 39.8196 135.349 39.5977 135.207 39.3865C135.153 39.287 135.079 39.1996 134.99 39.1297C134.9 39.0598 134.797 39.009 134.687 38.9805C134.489 38.9805 134.276 39.1212 134.139 39.4677C134.078 39.6931 134.064 39.9283 134.098 40.1591C134.132 40.3899 134.213 40.6115 134.336 40.8104C134.535 41.1375 134.798 41.4227 135.108 41.6496C135.479 41.9304 135.884 42.165 136.313 42.348C136.812 42.6043 137.357 42.7607 137.918 42.8082C137.972 42.7378 137.37 42.218 136.822 41.6333C136.544 41.3555 136.286 41.0588 136.05 40.7454Z" fill="url(#paint14_linear_3248_14958)"/>
<path d="M123.634 42.8244C124.028 43.1472 124.482 43.39 124.97 43.5391C125.562 43.727 126.174 43.8416 126.794 43.8801C127.308 43.915 127.824 43.915 128.338 43.8801C128.738 43.8801 129.001 43.8098 129.012 43.7502C129.023 43.6906 128.798 43.5661 128.437 43.3929L127.084 42.7649C126.608 42.5431 126.15 42.2842 125.715 41.9907C125.433 41.8 125.167 41.5863 124.921 41.3518C124.609 41.0811 124.319 40.87 124.045 40.6642C123.933 40.563 123.802 40.4857 123.659 40.4372C123.515 40.3887 123.363 40.3702 123.213 40.3827C123.144 40.4011 123.08 40.4338 123.025 40.4786C122.971 40.5235 122.926 40.5794 122.895 40.6426C122.852 40.7228 122.821 40.8084 122.802 40.897C122.785 41.0046 122.785 41.1142 122.802 41.2219C122.824 41.5306 122.91 41.8317 123.053 42.107C123.196 42.3824 123.394 42.6264 123.634 42.8244Z" fill="url(#paint15_linear_3248_14958)"/>
<path d="M83.0822 59.2295C84.329 59.2733 85.5757 59.1402 86.7843 58.8342C89.2046 58.1682 91.5821 57.3582 93.9036 56.4088C95.2398 55.8674 96.4775 55.326 97.3647 54.8658C98.2518 54.4056 98.7721 54.0104 98.7283 53.9346C98.1859 53.9561 97.6476 54.0378 97.1237 54.1782C96.1653 54.3514 94.8455 54.568 93.4436 54.8008C90.6397 55.261 87.4798 55.7483 86.1052 56.0731C84.9186 56.3374 83.7665 56.7352 82.6715 57.2588C81.8227 57.6919 81.3407 58.1088 81.3791 58.504C81.4174 58.8992 82.091 59.1537 83.0822 59.2295Z" fill="url(#paint16_linear_3248_14958)"/>
<path d="M88.717 49.8303C88.9043 49.8303 89.0875 49.7753 89.2433 49.6724C89.3991 49.5695 89.5205 49.4232 89.5923 49.2521C89.664 49.0809 89.6827 48.8926 89.6462 48.7109C89.6096 48.5292 89.5194 48.3624 89.3869 48.2314C89.2544 48.1004 89.0856 48.0112 88.9018 47.975C88.718 47.9389 88.5275 47.9574 88.3544 48.0283C88.1813 48.0992 88.0333 48.2193 87.9292 48.3733C87.8251 48.5273 87.7695 48.7084 87.7695 48.8937C87.771 49.1416 87.8713 49.379 88.0486 49.5544C88.226 49.7297 88.4661 49.8289 88.717 49.8303Z" fill="url(#paint17_linear_3248_14958)"/>
<path d="M93.1159 52.0019C93.5272 52.0019 93.8607 51.6722 93.8607 51.2656C93.8607 50.859 93.5272 50.5293 93.1159 50.5293C92.7045 50.5293 92.3711 50.859 92.3711 51.2656C92.3711 51.6722 92.7045 52.0019 93.1159 52.0019Z" fill="url(#paint18_linear_3248_14958)"/>
<path d="M86.9317 44.8553C87.053 44.8553 87.1716 44.8197 87.2725 44.7531C87.3733 44.6865 87.452 44.5918 87.4984 44.481C87.5448 44.3702 87.5569 44.2483 87.5333 44.1306C87.5096 44.013 87.4512 43.905 87.3654 43.8202C87.2796 43.7354 87.1704 43.6776 87.0514 43.6542C86.9324 43.6308 86.8091 43.6428 86.697 43.6887C86.5849 43.7346 86.4891 43.8123 86.4217 43.9121C86.3543 44.0118 86.3184 44.129 86.3184 44.2489C86.3184 44.4098 86.383 44.564 86.498 44.6777C86.613 44.7914 86.769 44.8553 86.9317 44.8553Z" fill="url(#paint19_linear_3248_14958)"/>
<path d="M10.8321 77.9071C10.982 77.9766 11.1456 78.0127 11.3112 78.0127C11.4769 78.0127 11.6405 77.9766 11.7904 77.9071C12.0795 77.758 12.3035 77.5096 12.4202 77.2087C12.5041 76.9875 12.5243 76.7477 12.4786 76.5159C12.433 76.284 12.3232 76.0693 12.1615 75.8954C11.9998 75.7215 11.7925 75.5953 11.5627 75.5309C11.3328 75.4665 11.0894 75.4663 10.8594 75.5303C10.7013 75.5744 10.5547 75.652 10.4299 75.7576C10.3051 75.8632 10.205 75.9944 10.1366 76.1421C9.9933 76.4715 9.98583 76.8432 10.1158 77.1779C10.2457 77.5127 10.5027 77.784 10.8321 77.9341V77.9071Z" fill="url(#paint20_linear_3248_14958)"/>
<path d="M9.91146 74.7293C10.0235 74.8084 10.1513 74.8628 10.2864 74.889C10.4215 74.9151 10.5607 74.9124 10.6946 74.8809C10.9366 74.7941 11.14 74.6257 11.2689 74.4054C11.3979 74.1851 11.4442 73.9269 11.3997 73.6762C11.3553 73.4254 11.2229 73.1982 11.0259 73.0344C10.8288 72.8705 10.5797 72.7806 10.3222 72.7803C10.1815 72.8001 10.0465 72.8484 9.92556 72.9221C9.8046 72.9958 9.70029 73.0934 9.61912 73.2087C9.53794 73.324 9.48165 73.4545 9.45375 73.5923C9.42585 73.73 9.42693 73.8719 9.45692 74.0093C9.47973 74.1534 9.53174 74.2914 9.60985 74.4151C9.68796 74.5389 9.79055 74.6457 9.91146 74.7293Z" fill="url(#paint21_linear_3248_14958)"/>
<path d="M9.34904 71.2808C9.34592 71.4003 9.36771 71.5192 9.41305 71.63C9.4584 71.7409 9.52633 71.8413 9.61263 71.9251C9.69892 72.0089 9.80173 72.0743 9.91466 72.1171C10.0276 72.1599 10.1482 72.1793 10.2691 72.1741C10.5001 72.1528 10.7145 72.0459 10.8693 71.875C11.024 71.704 11.1077 71.4815 11.1035 71.2522C11.0994 71.0228 11.0077 70.8034 10.8469 70.638C10.686 70.4727 10.4679 70.3735 10.2362 70.3604C10.1157 70.3595 9.99627 70.383 9.88531 70.4294C9.77435 70.4759 9.6742 70.5444 9.59106 70.6307C9.50792 70.7169 9.44355 70.8191 9.40192 70.9309C9.3603 71.0427 9.3423 71.1618 9.34904 71.2808Z" fill="url(#paint22_linear_3248_14958)"/>
<path d="M9.67074 69.001C9.65609 69.0906 9.66012 69.1822 9.68259 69.2702C9.70505 69.3582 9.74548 69.4408 9.80138 69.5128C9.85728 69.5848 9.92748 69.6447 10.0077 69.6889C10.0878 69.7331 10.1763 69.7606 10.2677 69.7698C10.4521 69.7928 10.6383 69.7424 10.7851 69.6297C10.932 69.517 11.0276 69.3512 11.0508 69.1688C11.074 68.9865 11.023 68.8025 10.909 68.6573C10.795 68.5121 10.6274 68.4176 10.4429 68.3946C10.3517 68.3826 10.2589 68.3888 10.1701 68.413C10.0814 68.4372 9.99849 68.4789 9.92641 68.5355C9.85432 68.5921 9.79452 68.6625 9.75059 68.7425C9.70666 68.8225 9.6795 68.9104 9.67074 69.001Z" fill="url(#paint23_linear_3248_14958)"/>
<path d="M10.5906 67.8157C10.72 67.8311 10.8507 67.8003 10.9593 67.7289C11.0678 67.6575 11.147 67.5501 11.1826 67.4262C11.2182 67.3022 11.208 67.1698 11.1537 67.0526C11.0994 66.9355 11.0046 66.8413 10.8863 66.7871C10.7569 66.7717 10.6262 66.8025 10.5176 66.8739C10.4091 66.9453 10.3299 67.0526 10.2943 67.1766C10.2587 67.3005 10.2689 67.433 10.3232 67.5502C10.3775 67.6673 10.4723 67.7615 10.5906 67.8157Z" fill="url(#paint24_linear_3248_14958)"/>
<path d="M12.5736 80.4138C12.7101 80.4343 12.8494 80.425 12.9818 80.3866C13.1142 80.3483 13.2366 80.2818 13.3403 80.1918C13.5428 80.011 13.6698 79.762 13.6963 79.4934C13.7296 79.2386 13.6673 78.9804 13.521 78.768C13.3666 78.5583 13.1412 78.4103 12.8858 78.3511C12.619 78.2901 12.3389 78.3266 12.0972 78.4539C11.9767 78.5212 11.8726 78.6138 11.7922 78.7251C11.7118 78.8364 11.657 78.9637 11.6317 79.0982C11.5838 79.3957 11.6555 79.6999 11.8316 79.9457C12.0076 80.1916 12.2739 80.3596 12.5736 80.4138Z" fill="url(#paint25_linear_3248_14958)"/>
<path d="M13.9096 81.9188C14.0097 81.9998 14.1253 82.0598 14.2496 82.0952C14.3739 82.1305 14.5042 82.1405 14.6325 82.1245C14.746 82.1062 14.854 82.0632 14.9487 81.9986C15.0434 81.934 15.1225 81.8494 15.1801 81.751C15.3002 81.5605 15.3448 81.333 15.3054 81.112C15.2659 80.891 15.1453 80.6922 14.9666 80.5539C14.7879 80.4155 14.5638 80.3473 14.3374 80.3624C14.1109 80.3775 13.8981 80.4748 13.7398 80.6357C13.6581 80.7277 13.5971 80.836 13.5611 80.9532C13.5251 81.0704 13.5147 81.1938 13.5308 81.3153C13.5469 81.4367 13.589 81.5534 13.6543 81.6575C13.7196 81.7615 13.8067 81.8506 13.9096 81.9188Z" fill="url(#paint26_linear_3248_14958)"/>
<path d="M16.6148 81.6971C16.4511 81.6372 16.2708 81.6388 16.1083 81.7017C15.9457 81.7646 15.8122 81.8843 15.7331 82.0382C15.6953 82.1187 15.6758 82.2065 15.6758 82.2953C15.6758 82.3841 15.6953 82.4719 15.7331 82.5525C15.7711 82.642 15.8278 82.7225 15.8996 82.7887C15.9713 82.855 16.0564 82.9055 16.1493 82.9369C16.3249 83.0073 16.5214 83.0073 16.697 82.9369C16.7795 82.8984 16.8527 82.8427 16.9113 82.7735C16.9699 82.7043 17.0126 82.6234 17.0365 82.5362C17.0772 82.3698 17.0566 82.1944 16.9783 82.0415C16.9 81.8887 16.7692 81.7685 16.6093 81.7025L16.6148 81.6971Z" fill="url(#paint27_linear_3248_14958)"/>
<path d="M17.6387 82.6718C17.6481 82.7972 17.7013 82.9155 17.7892 83.0063C17.8772 83.0971 17.9944 83.1548 18.1207 83.1695C18.247 83.1843 18.3745 83.1551 18.4814 83.087C18.5883 83.0189 18.6679 82.9161 18.7066 82.7964C18.6972 82.671 18.6439 82.5527 18.556 82.4619C18.468 82.3711 18.3509 82.3134 18.2246 82.2986C18.0983 82.2839 17.9707 82.3131 17.8638 82.3812C17.7569 82.4493 17.6773 82.5521 17.6387 82.6718Z" fill="url(#paint28_linear_3248_14958)"/>
<path d="M21.5064 37.4214C21.7929 37.5541 22.1194 37.5753 22.421 37.4809C22.7428 37.3901 23.0171 37.1808 23.1877 36.8962C23.2696 36.7545 23.3194 36.5968 23.3336 36.4341C23.3478 36.2715 23.326 36.1077 23.2698 35.9542C23.1407 35.6203 22.8841 35.3499 22.5554 35.201C22.2267 35.0522 21.852 35.0369 21.5119 35.1583C21.356 35.2138 21.2149 35.3036 21.0992 35.4208C20.9834 35.538 20.8961 35.6796 20.8438 35.8351C20.7367 36.1413 20.7524 36.4765 20.8876 36.7717C21.0024 37.0584 21.2238 37.2909 21.5064 37.4214Z" fill="url(#paint29_linear_3248_14958)"/>
<path d="M24.0202 38.6507C24.2423 38.8044 24.5142 38.8713 24.7833 38.8383C25.0524 38.8053 25.2996 38.6748 25.4769 38.472C25.5636 38.3604 25.626 38.2324 25.6604 38.0959C25.6948 37.9595 25.7003 37.8174 25.6767 37.6787C25.653 37.54 25.6007 37.4076 25.523 37.2898C25.4453 37.172 25.3439 37.0713 25.225 36.994C25.107 36.907 24.9725 36.8444 24.8294 36.81C24.6864 36.7756 24.5378 36.77 24.3926 36.7937C24.2571 36.8145 24.1278 36.8639 24.0134 36.9387C23.8991 37.0134 23.8024 37.1117 23.73 37.2268C23.5912 37.4575 23.5441 37.7309 23.5978 37.994C23.6514 38.2571 23.8019 38.4911 24.0202 38.6507Z" fill="url(#paint30_linear_3248_14958)"/>
<path d="M25.9257 38.8728C25.774 39.0463 25.6947 39.2704 25.7038 39.4996C25.713 39.7288 25.8099 39.946 25.975 40.1072C26.141 40.268 26.3622 40.3612 26.5945 40.3683C26.8269 40.3753 27.0534 40.2956 27.2291 40.1451C27.3997 39.9742 27.4947 39.7433 27.4932 39.5032C27.4917 39.2631 27.3937 39.0334 27.2209 38.8647C27.048 38.6959 26.8145 38.602 26.5716 38.6035C26.3287 38.6051 26.0964 38.7019 25.9257 38.8728Z" fill="url(#paint31_linear_3248_14958)"/>
<path d="M27.6399 40.5891C27.5273 40.7093 27.4614 40.865 27.4539 41.0286C27.4463 41.1922 27.4976 41.3531 27.5987 41.4829C27.6998 41.6126 27.844 41.7028 28.006 41.7374C28.1679 41.772 28.337 41.7488 28.4832 41.6719C28.5584 41.6191 28.6217 41.5516 28.6694 41.4735C28.7171 41.3955 28.748 41.3086 28.7604 41.2183C28.7727 41.1279 28.7661 41.036 28.741 40.9483C28.716 40.8606 28.673 40.7789 28.6147 40.7082C28.5599 40.6354 28.4907 40.5743 28.4114 40.5287C28.332 40.483 28.2441 40.4537 28.153 40.4426C28.0619 40.4314 27.9695 40.4387 27.8813 40.4639C27.7931 40.4891 27.7109 40.5317 27.6399 40.5891Z" fill="url(#paint32_linear_3248_14958)"/>
<path d="M28.6639 42.9117C28.7311 43.0291 28.8402 43.1175 28.9698 43.1596C29.0995 43.2017 29.2404 43.1943 29.3649 43.1391C29.4653 43.0597 29.5342 42.948 29.5597 42.8234C29.5852 42.6988 29.5655 42.5694 29.5041 42.4577C29.4427 42.3461 29.3436 42.2593 29.224 42.2126C29.1044 42.166 28.9721 42.1624 28.8501 42.2025C28.7348 42.2761 28.6517 42.3899 28.6172 42.5212C28.5827 42.6526 28.5994 42.7919 28.6639 42.9117Z" fill="url(#paint33_linear_3248_14958)"/>
<path d="M18.96 36.4141C19.219 36.4577 19.4853 36.4077 19.7102 36.2733C19.9449 36.1349 20.1187 35.9148 20.1976 35.6561C20.2372 35.5255 20.247 35.3878 20.2261 35.2529C20.2053 35.1181 20.1544 34.9895 20.0771 34.8765C19.997 34.7506 19.8914 34.6423 19.7671 34.5584C19.6427 34.4746 19.5022 34.417 19.3543 34.3893C19.2066 34.358 19.054 34.3572 18.906 34.387C18.7581 34.4169 18.618 34.4766 18.4945 34.5625C18.3807 34.6404 18.2861 34.7427 18.2178 34.8617C18.1496 34.9808 18.1093 35.1135 18.1002 35.2501C18.0817 35.5194 18.1657 35.7859 18.3356 35.9972C18.4853 36.2069 18.7073 36.3552 18.96 36.4141Z" fill="url(#paint34_linear_3248_14958)"/>
<path d="M16.6426 36.1333C16.8668 36.1059 17.0734 35.9993 17.2244 35.8331C17.3753 35.667 17.4604 35.4525 17.464 35.2292C17.461 35.1067 17.4314 34.9863 17.3773 34.8761C17.3231 34.7659 17.2456 34.6685 17.1501 34.5905C17.0545 34.5124 16.9432 34.4556 16.8235 34.4238C16.7038 34.392 16.5786 34.386 16.4564 34.4062C16.3252 34.422 16.1986 34.4642 16.0846 34.5303C15.9706 34.5965 15.8716 34.6851 15.7937 34.7906C15.7191 34.8809 15.6669 34.9871 15.6412 35.1008C15.6155 35.2146 15.6171 35.3327 15.6459 35.4457C15.705 35.6571 15.837 35.8415 16.0189 35.967C16.2009 36.0925 16.4214 36.1513 16.6426 36.1333Z" fill="url(#paint35_linear_3248_14958)"/>
<path d="M14.1836 36.4421C14.3443 36.5014 14.5212 36.5014 14.6819 36.4421C14.8351 36.3692 14.9587 36.247 15.0324 36.0956C15.1081 35.9364 15.1217 35.7552 15.0707 35.5867C15.045 35.5015 15.0001 35.4231 14.9394 35.3575C14.8787 35.2919 14.8038 35.2407 14.7202 35.2077C14.5354 35.139 14.3309 35.1434 14.1493 35.2201C13.9678 35.2967 13.8231 35.4397 13.7454 35.6191C13.7146 35.7027 13.7021 35.7917 13.7087 35.8804C13.7154 35.969 13.7409 36.0553 13.7838 36.1335C13.873 36.2824 14.0158 36.3926 14.1836 36.4421Z" fill="url(#paint36_linear_3248_14958)"/>
<path d="M13.1329 37.1616C13.2387 37.0782 13.3096 36.9591 13.3318 36.8271C13.3541 36.6951 13.3261 36.5597 13.2533 36.4469C13.1582 36.3617 13.0359 36.3122 12.9076 36.3071C12.7794 36.302 12.6534 36.3415 12.5516 36.4189C12.4499 36.4963 12.3789 36.6065 12.351 36.7304C12.3231 36.8543 12.3401 36.9839 12.399 37.0966C12.4912 37.1957 12.6175 37.2573 12.7532 37.2693C12.8889 37.2813 13.0243 37.2429 13.1329 37.1616Z" fill="url(#paint37_linear_3248_14958)"/>
<path d="M112.359 73.3106C112.294 73.0129 112.14 72.531 112.02 71.9246C111.886 71.2346 111.839 70.531 111.878 69.8294C111.918 69.146 112.024 68.4679 112.195 67.8046C112.255 67.5231 112.327 67.2957 112.354 67.117C112.381 66.9384 112.381 66.8138 112.354 66.7759C112.327 66.738 112.201 66.7759 112.031 66.8355C111.795 66.9384 111.572 67.0693 111.368 67.2253C110.699 67.7181 110.125 68.3272 109.676 69.0227C109.126 69.847 108.734 70.7647 108.521 71.7297C108.344 72.4879 108.314 73.2724 108.433 74.0415C108.585 74.9487 109.09 75.761 109.84 76.3046C110.112 76.4957 110.433 76.6082 110.766 76.6294C111.044 76.6494 111.32 76.5749 111.549 76.4183C111.779 76.2607 111.966 76.0509 112.097 75.8065C112.222 75.5572 112.316 75.2935 112.376 75.0215C112.409 74.8829 112.43 74.7415 112.436 74.5992C112.458 74.4558 112.469 74.311 112.469 74.166C112.469 74.0253 112.469 73.8737 112.469 73.7329C112.469 73.5922 112.392 73.4622 112.359 73.3106Z" fill="url(#paint38_linear_3248_14958)"/>
<path d="M109.676 65.8074C110.381 64.9662 110.953 64.0243 111.373 63.0138C111.499 62.6781 111.614 62.3803 111.707 62.1259C111.801 61.8714 111.828 61.7631 111.784 61.7198C111.74 61.6765 111.609 61.7198 111.379 61.8227C111.081 61.9918 110.8 62.1895 110.541 62.4128C109.784 63.0229 108.974 63.5663 108.12 64.037C107.186 64.5441 106.207 64.9681 105.196 65.3039C104.26 65.6233 103.433 65.8453 102.934 66.0239C102.035 66.3332 101.193 66.7869 100.443 67.3666C99.8182 67.908 99.4568 68.4494 99.5663 68.9908C99.6758 69.5322 100.245 69.9274 101.105 70.0736C102.191 70.2441 103.302 70.1245 104.325 69.7271C105.218 69.374 106.065 68.914 106.844 68.3574C107.901 67.6386 108.854 66.7807 109.676 65.8074Z" fill="url(#paint39_linear_3248_14958)"/>
<path d="M293.781 74.3612C293.181 70.9864 291.853 67.779 289.887 64.9571L289.088 63.8743C288.951 63.6956 288.819 63.5115 288.677 63.3329L288.223 62.8185C287.916 62.4775 287.626 62.1201 287.292 61.7953L286.268 60.837C284.819 59.5714 283.188 58.5275 281.426 57.7402C279.66 56.9842 277.791 56.4881 275.879 56.2676L275.178 56.1918C274.948 56.1918 274.718 56.1377 274.482 56.1377L273.108 56.0944C272.648 56.0944 272.199 56.1214 271.744 56.1377H271.071L270.408 56.2081C268.688 56.3801 266.983 56.6805 265.309 57.1068C264.515 57.3288 263.716 57.5345 262.944 57.7619C262.171 57.9893 261.41 58.2329 260.665 58.4819C257.692 59.4727 254.948 60.5609 252.396 61.5787L249.921 62.5641C251.413 61.6798 252.816 60.6555 254.11 59.5052C255.444 58.3241 256.642 57.0004 257.681 55.5584C258.631 54.2324 259.439 52.8116 260.09 51.3192C260.68 49.9757 261.146 48.5823 261.481 47.1559C261.799 45.8186 262.692 40.9731 263.075 40.0798C263.379 39.2772 263.734 38.4942 264.137 37.7355C265.572 35.3913 267.39 33.4043 269.86 32.3215C271.728 31.5262 273.739 31.1106 275.774 31.0994C277.808 31.0883 279.823 31.4818 281.7 32.2565C281.892 32.3323 280.348 30.6811 279.334 30.1288C278.321 29.6178 277.238 29.2531 276.12 29.046C273.88 28.5804 271.383 28.5804 269.313 29.6416C268.228 30.2357 267.21 30.9436 266.279 31.753C264.928 32.862 263.786 34.1981 262.905 35.6998C262.596 36.2706 262.352 36.8734 262.177 37.4973C262.177 37.3998 262.177 37.297 262.177 37.1995C262.15 36.7325 262.15 36.2643 262.177 35.7973C262.299 34.8103 262.233 33.8092 261.98 32.8467C261.612 31.4336 261.021 30.0869 260.227 28.8566C259.285 27.3823 258.155 26.034 256.865 24.8448C255.478 23.5547 253.936 22.4366 252.276 21.5152C250.609 20.5803 248.824 19.8667 246.969 19.3929C245.243 18.9491 243.46 18.7665 241.679 18.8515C240.267 18.9131 238.873 19.185 237.544 19.6582C235.543 20.3845 233.766 21.6098 232.385 23.2152C231.317 24.4429 230.543 25.8941 230.124 27.4597C229.829 28.4939 229.799 29.5839 230.036 30.6323C230.097 30.958 230.238 31.2638 230.446 31.5233C230.654 31.7829 230.923 31.9881 231.23 32.1212C232.325 32.5164 233.738 31.5798 235.288 30.497C236.065 29.9556 236.892 29.3546 237.747 28.8728C238.617 28.3552 239.533 27.9184 240.485 27.568C241.149 27.3131 241.832 27.1104 242.528 26.9617C243.579 26.7468 244.653 26.6595 245.726 26.7018C247.088 26.7577 248.44 26.9647 249.756 27.319C251.19 27.6994 252.58 28.2274 253.902 28.8945C255.176 29.5271 256.377 30.295 257.484 31.1846C258.408 31.9227 259.237 32.7699 259.953 33.7075C260.45 34.3935 260.871 35.1305 261.208 35.9056C261.393 36.3265 261.532 36.7657 261.624 37.2158C261.613 39.2127 261.43 41.2051 261.076 43.1712C260.858 44.3914 260.558 45.596 260.178 46.7769C259.759 48.0835 259.226 49.3515 258.584 50.5667C257.213 53.1997 255.318 55.5326 253.015 57.4262C256.925 53.1762 258.009 47.2154 248.574 39.7062C248.283 39.4788 247.873 39.8632 248.026 40.2043C249.389 43.6313 253.075 55.0224 245.216 61.9036C244.521 62.1743 243.815 62.445 243.086 62.6615C239.22 63.8371 235.221 64.53 231.18 64.7243C226.811 64.9456 222.43 64.7735 218.092 64.2099C213.741 63.6519 209.442 62.7466 205.239 61.5029C201.181 60.301 197.331 58.7959 193.612 57.3396C190.071 55.9552 186.459 54.7535 182.791 53.7393C181.931 53.4794 181.055 53.3007 180.206 53.095C179.785 52.9867 179.352 52.9218 178.93 52.8405L177.676 52.6078C176.844 52.4832 176.033 52.3804 175.223 52.2829C174.412 52.1855 173.624 52.1584 172.857 52.1205H170.595L168.459 52.2504C167.107 52.3695 165.82 52.4886 164.626 52.6348C162.558 52.8498 160.519 53.2781 158.542 53.9125C157.636 54.2143 156.773 54.6291 155.973 55.1469L155.546 55.3148C153.075 56.3319 150.812 57.7869 148.87 59.608C148.195 60.2262 147.573 60.898 147.008 61.6166C146.441 60.8992 145.816 60.2276 145.141 59.608C143.199 57.7869 140.936 56.3319 138.465 55.3148L138.038 55.1469C137.239 54.6291 136.375 54.2143 135.47 53.9125C133.492 53.2781 131.453 52.8498 129.385 52.6348C128.186 52.4886 126.899 52.3695 125.552 52.2504L123.416 52.1205H121.154C120.388 52.1584 119.599 52.2288 118.789 52.2829C117.978 52.337 117.146 52.4832 116.335 52.6078L115.081 52.8405C114.659 52.9218 114.227 52.9867 113.805 53.095C112.962 53.3007 112.08 53.4794 111.22 53.7393C107.553 54.7838 103.942 56.0163 100.404 57.4316C96.6858 58.8717 92.8359 60.3931 88.7779 61.595C84.5745 62.8386 80.2761 63.7439 75.9249 64.302C71.5868 64.8655 67.2059 65.0377 62.8363 64.8163C58.7963 64.6221 54.7967 63.9291 50.9306 62.7536C50.2023 62.5208 49.4958 62.2663 48.8003 61.9956C40.9417 55.1144 44.6273 43.7234 45.9909 40.2963C46.1278 39.9552 45.7171 39.5709 45.4433 39.7982C36.0075 47.3074 37.0918 53.2683 41.0019 57.5182C39.8739 56.5867 38.8395 55.5497 37.9132 54.4214C36.9584 53.2446 36.1272 51.9748 35.4324 50.6316C34.791 49.4165 34.2578 48.1484 33.8388 46.8418C33.4588 45.661 33.1588 44.4564 32.9407 43.2361C32.5865 41.2701 32.4033 39.2777 32.393 37.2807C32.4872 36.8314 32.6266 36.3925 32.8092 35.9705C33.1367 35.1736 33.5517 34.4147 34.0469 33.7075C34.7645 32.7499 35.5996 31.8843 36.5332 31.1304C37.6394 30.2408 38.8404 29.4729 40.1147 28.8403C41.4375 28.1742 42.8269 27.6461 44.2604 27.2648C45.5772 26.9179 46.9291 26.7181 48.291 26.6693C49.3638 26.627 50.4378 26.7143 51.4892 26.9292C52.1852 27.0779 52.8682 27.2806 53.5319 27.5355C54.4835 27.8859 55.4001 28.3227 56.2701 28.8403C57.1244 29.3438 57.9513 29.9231 58.729 30.4645C60.2788 31.5798 61.6698 32.4948 62.787 32.0887C63.0937 31.9556 63.3629 31.7504 63.571 31.4909C63.7791 31.2314 63.9198 30.9255 63.9809 30.5999C64.2174 29.5514 64.1873 28.4614 63.8932 27.4273C63.4734 25.8617 62.7001 24.4105 61.6315 23.1827C60.255 21.5824 58.4836 20.3609 56.4892 19.6365C55.1599 19.1634 53.7659 18.8914 52.3545 18.8298C50.5735 18.7449 48.7899 18.9274 47.0643 19.3712C45.2087 19.845 43.4245 20.5586 41.7577 21.4935C40.0968 22.415 38.5557 23.5331 37.1684 24.8231C35.8798 26.0138 34.7499 27.3619 33.8059 28.8349C33.0127 30.0653 32.4212 31.412 32.0535 32.825C31.8006 33.7875 31.7337 34.7886 31.8563 35.7756C31.8836 36.2427 31.8836 36.7108 31.8563 37.1779C31.8563 37.2753 31.8563 37.3782 31.8563 37.4756C31.6718 36.8639 31.4202 36.2739 31.1061 35.7161C30.2255 34.2143 29.0835 32.8782 27.7326 31.7693C26.8009 30.9599 25.7837 30.252 24.6987 29.6578C22.6286 28.575 20.1314 28.575 17.8916 29.0623C16.7734 29.2702 15.6909 29.6348 14.6769 30.1451C13.6638 30.6865 12.1194 32.3486 12.3111 32.2728C14.1882 31.498 16.2037 31.1045 18.2378 31.1157C20.2718 31.1268 22.2828 31.5424 24.1511 32.3378C26.6209 33.3935 28.4391 35.3967 29.8739 37.7518C30.2795 38.5094 30.6344 39.2925 30.9363 40.096C31.3197 40.9893 32.2178 45.8348 32.5299 47.1721C32.8657 48.5985 33.3313 49.992 33.9209 51.3355C34.5723 52.8278 35.3799 54.2486 36.3306 55.5746C37.3696 57.0166 38.5671 58.3403 39.9012 59.5214C41.195 60.6717 42.598 61.6961 44.0906 62.5803L41.6153 61.595C39.0688 60.5771 36.3196 59.4889 33.3459 58.4982C32.6011 58.2491 31.8344 58.0217 31.0677 57.7781C30.3011 57.5345 29.496 57.345 28.7019 57.123C27.0278 56.6967 25.3234 56.3963 23.6034 56.2243L22.9408 56.1539H22.2672C21.8127 56.1539 21.3636 56.1052 20.909 56.1106L19.529 56.1539C19.299 56.1539 19.0635 56.1864 18.8335 56.2081L18.1325 56.2839C16.2222 56.5039 14.3549 57 12.5904 57.7565C10.8268 58.5424 9.19296 59.5864 7.74381 60.8533L6.71972 61.8115C6.38566 62.1364 6.09541 62.4937 5.78874 62.8348L5.3342 63.3491C5.19181 63.5278 5.06038 63.7119 4.92347 63.8905L4.12391 64.9733C2.16578 67.7971 0.845283 71.0044 0.252105 74.3774C-0.0157327 75.9665 -0.0562883 77.5848 0.131626 79.185C0.325807 80.7031 0.756222 82.1824 1.40762 83.5704L1.9224 84.5449C2.09765 84.8589 2.30575 85.1459 2.47004 85.4436C2.60834 85.6677 2.75823 85.8845 2.91911 86.0933C3.87237 87.61 5.21111 88.8532 6.80187 89.699L7.07569 89.8777L7.47546 90.0888L8.26954 90.5057L9.06362 90.836L9.45792 90.993C9.58387 91.0471 9.72078 91.0796 9.85222 91.1283L10.6244 91.3719C10.8763 91.4586 11.1337 91.4965 11.3801 91.5614L12.114 91.7347L12.8314 91.8538C14.7153 92.157 18.012 92.0216 21.3581 91.1446C24.2332 90.3866 26.2869 88.8382 27.2178 88.3347C28.3179 87.6916 29.3239 86.9029 30.208 85.9904C27.5149 87.0021 24.6787 87.592 21.8017 87.7392C18.0175 87.8637 14.2771 86.8025 11.4568 84.2417C9.17936 82.0476 7.55417 79.2781 6.75806 76.2344C6.37594 74.9148 6.13367 73.5594 6.03517 72.1902C5.97853 71.082 6.11373 69.9724 6.43495 68.9093C7.00582 66.7419 8.21868 64.7925 9.91793 63.3112C11.1239 62.2856 12.4696 61.4327 13.9157 60.7775C15.386 60.1482 16.938 59.7254 18.5268 59.5214L19.1237 59.451C19.3193 59.4178 19.5169 59.3979 19.7152 59.3915L20.909 59.3319C21.3088 59.3319 21.7086 59.3319 22.1084 59.3319H22.6998L23.2968 59.3752C24.8678 59.4915 26.4287 59.7158 27.9681 60.0466C28.7348 60.2252 29.496 60.3877 30.2463 60.588C30.9966 60.7883 31.7413 60.9724 32.4752 61.1781C35.405 61.9902 38.1816 62.8943 40.7993 63.7281C43.417 64.5618 45.8814 65.3523 48.1596 65.9316C50.4377 66.5109 52.5407 66.9873 54.3807 67.3067C55.9636 67.5707 57.5594 67.7514 59.1616 67.8481L60.9141 67.9077H61.6972C62.0039 67.9402 62.3051 67.9673 62.6118 67.9889C67.1915 68.3215 71.7936 68.1909 76.3465 67.5991C80.8872 67.0255 85.3654 66.0433 89.7254 64.6647C93.7261 63.3157 97.6558 61.769 101.5 60.0303C105.147 58.444 108.586 56.9823 111.905 55.8886C114.934 54.8315 118.073 54.1107 121.264 53.7393L123.416 53.5769H125.47C126.614 53.5769 127.699 53.5769 128.723 53.6364C125.727 53.7953 122.797 54.5678 120.119 55.9049C118.933 56.5015 117.807 57.2085 116.757 58.0163C116.092 58.5299 115.461 59.0851 114.867 59.6784C114.648 59.8767 114.453 60.1003 114.287 60.3443C114.336 60.3931 115.191 59.5214 116.965 58.3033C118.042 57.5792 119.182 56.9506 120.371 56.4246C121.927 55.7373 123.562 55.2392 125.24 54.9412C127.241 54.5791 129.284 54.5007 131.308 54.7084C132.417 54.8295 133.515 55.0322 134.593 55.3148C135.72 55.6203 136.82 56.0187 137.879 56.5058C141.096 57.9515 143.868 60.2137 145.913 63.0622C143.579 66.7158 142.659 71.0806 143.323 75.3519C143.434 76.0917 143.591 76.824 143.794 77.5446C144 78.2646 144.251 78.9715 144.544 79.6615C144.834 80.3517 145.169 81.0227 145.546 81.6701C145.437 81.8108 145.333 81.9516 145.218 82.0869C144.808 82.5953 144.368 83.0781 143.898 83.5325C143.662 83.749 143.416 83.9494 143.18 84.1605C143.054 84.2634 142.945 84.3771 142.813 84.4691L142.425 84.7398L142.036 85.0159L141.844 85.1513L141.636 85.265L140.815 85.7306C140.253 86.0044 139.673 86.2396 139.079 86.4344C138.788 86.5423 138.489 86.6291 138.186 86.6943C137.885 86.7592 137.584 86.835 137.282 86.8892L136.368 87.0083L136.143 87.0353H135.913H135.459H135.004H134.555C134.254 87.0353 133.953 87.0353 133.657 86.9704L132.775 86.835C132.631 86.8135 132.488 86.7809 132.348 86.7376L131.921 86.6293L131.494 86.521C131.357 86.4831 131.22 86.4236 131.083 86.3802C130.809 86.2774 130.535 86.1908 130.273 86.0825C129.752 85.8563 129.247 85.5958 128.761 85.3029L128.4 85.0863C128.278 85.02 128.163 84.944 128.055 84.8589L127.392 84.3662C127.174 84.1988 126.968 84.018 126.773 83.8248L126.472 83.5487C126.369 83.4664 126.276 83.3739 126.193 83.2726C125.5 82.5451 124.929 81.7136 124.5 80.8092C124.084 79.9557 123.809 79.0418 123.684 78.1022C123.684 77.9886 123.657 77.8803 123.641 77.7666C123.619 77.656 123.608 77.5436 123.608 77.4309C123.608 77.2089 123.608 76.9924 123.608 76.7704C123.608 76.5484 123.608 76.3373 123.635 76.1261V75.8067L123.684 75.4927C123.717 75.287 123.75 75.0867 123.778 74.8809C123.805 74.6752 123.882 74.4857 123.931 74.2962C123.958 74.1988 123.975 74.1013 124.008 74.0039L124.106 73.7277L124.303 73.1863C124.836 71.9392 125.629 70.8175 126.631 69.8946C127.46 69.133 128.461 68.5764 129.55 68.2704C130.62 67.9798 131.741 67.9244 132.835 68.108C133.886 68.2938 134.883 68.706 135.754 69.3153L136.072 69.5373C136.176 69.6185 136.269 69.7051 136.368 69.7918L136.658 70.0408L136.91 70.3061L137.036 70.4415C137.075 70.486 137.112 70.533 137.145 70.5822L137.37 70.8637C137.436 70.9666 137.496 71.0695 137.562 71.1669C137.625 71.2668 137.684 71.3698 137.737 71.4755L137.896 71.7949C137.945 71.8978 137.978 72.0115 138.022 72.1198C138.107 72.3367 138.176 72.5592 138.23 72.7857C138.331 73.2334 138.379 73.6913 138.372 74.15C138.365 74.5995 138.304 75.0465 138.191 75.4819C138.126 75.693 138.071 75.9042 137.989 76.1099C137.909 76.3126 137.816 76.5097 137.709 76.7L137.556 76.9815C137.502 77.0741 137.442 77.1627 137.375 77.2468C137.315 77.3335 137.26 77.4255 137.195 77.5121L136.987 77.7503C136.621 78.1968 136.17 78.567 135.658 78.8393C135.147 79.1116 134.586 79.2807 134.007 79.3366C133.304 79.4138 132.592 79.3305 131.926 79.093C131.319 78.873 130.761 78.5384 130.283 78.1077C129.906 77.7556 129.603 77.3324 129.393 76.8628C129.183 76.3932 129.071 75.8869 129.062 75.3736C129.055 74.9784 129.098 74.5838 129.188 74.1988C129.267 73.9057 129.366 73.6181 129.484 73.3379C129.533 73.2242 129.583 73.116 129.615 73.0239C129.655 72.9487 129.69 72.8709 129.719 72.7911C129.769 72.6558 129.78 72.5637 129.719 72.5258C129.659 72.4879 129.588 72.4988 129.457 72.5691C129.372 72.6116 129.292 72.6604 129.216 72.7153C129.128 72.7857 129.029 72.8723 128.925 72.9698C128.67 73.2308 128.451 73.5238 128.274 73.8414C128.034 74.2911 127.868 74.7753 127.781 75.2761C127.675 75.9205 127.699 76.5792 127.852 77.2144C128.046 77.9912 128.421 78.7124 128.947 79.3204C129.54 80.0065 130.274 80.5601 131.099 80.9446C132.042 81.3903 133.078 81.6074 134.122 81.578C135.292 81.5476 136.434 81.2174 137.436 80.6198C137.573 80.5494 137.688 80.4519 137.819 80.3707C137.95 80.2895 138.076 80.1975 138.191 80.0946C138.435 79.9023 138.664 79.6924 138.876 79.4666L139.194 79.1363L139.484 78.7736C139.577 78.6491 139.681 78.5299 139.769 78.3946L140.021 77.994C140.189 77.72 140.341 77.4361 140.475 77.144C140.607 76.845 140.724 76.5396 140.826 76.229C141.027 75.5892 141.149 74.9274 141.187 74.2583C141.232 73.5664 141.19 72.8717 141.061 72.1902C140.993 71.8422 140.903 71.4987 140.793 71.1615C140.732 70.9937 140.683 70.8204 140.612 70.6526C140.541 70.4848 140.464 70.3223 140.387 70.1545C140.313 69.9884 140.227 69.8274 140.13 69.6727C140.037 69.5157 139.949 69.3532 139.851 69.1962L139.528 68.7469C139.467 68.6711 139.418 68.5953 139.358 68.5249L139.172 68.3137L138.799 67.8969L138.394 67.5233C138.257 67.4042 138.126 67.2743 137.983 67.1552L137.54 66.8249C136.313 65.9218 134.896 65.3037 133.394 65.0166C131.833 64.7253 130.225 64.7845 128.69 65.1899C127.105 65.6143 125.647 66.4111 124.44 67.5125C124.126 67.7886 123.834 68.0872 123.564 68.4058C123.412 68.5613 123.269 68.7258 123.137 68.8985L122.732 69.4399C122.455 69.8208 122.202 70.2186 121.976 70.6309C121.849 70.8414 121.738 71.0603 121.642 71.286L121.324 71.9736L121.067 72.7045L120.941 73.0781C120.902 73.2026 120.875 73.3325 120.842 73.4625C120.776 73.7223 120.716 74.0039 120.651 74.2529C120.585 74.5019 120.568 74.7943 120.53 75.0758C120.53 75.2112 120.497 75.3519 120.475 75.4927V75.915C120.475 76.2019 120.442 76.4889 120.448 76.7758L120.497 77.6583C120.503 77.8072 120.52 77.9556 120.546 78.1022L120.612 78.5462C121.02 81.099 122.229 83.4606 124.068 85.2974C124.181 85.4197 124.302 85.5354 124.429 85.6439L124.807 85.9742C125.052 86.2049 125.312 86.4201 125.585 86.6185L126.423 87.214C126.562 87.3154 126.709 87.4076 126.861 87.4901L127.31 87.75C127.92 88.0959 128.553 88.4016 129.205 88.6649C129.533 88.7949 129.873 88.8978 130.212 89.0114C130.382 89.0656 130.552 89.1306 130.722 89.1793L131.269 89.2984L131.817 89.4229C131.997 89.4663 132.18 89.4988 132.365 89.5204L133.46 89.6665C133.827 89.7099 134.194 89.7044 134.555 89.7207C134.736 89.7207 134.922 89.7207 135.103 89.7207L135.65 89.6882L136.198 89.6557H136.477L136.751 89.6178L137.846 89.4446C138.208 89.3688 138.569 89.2713 138.942 89.1793C139.313 89.0877 139.679 88.9738 140.037 88.8382C140.752 88.5855 141.448 88.2815 142.118 87.9286L143.093 87.3439L143.339 87.1978L143.569 87.0299L144.024 86.6888L144.484 86.3478C144.637 86.2341 144.769 86.0933 144.911 85.9688C145.19 85.7143 145.459 85.4599 145.749 85.1946C146.209 84.7127 146.652 84.2201 147.063 83.6949C147.473 84.2171 147.91 84.7177 148.372 85.1946C148.646 85.4599 148.92 85.736 149.21 85.9688C149.352 86.0933 149.484 86.2341 149.637 86.3478L150.097 86.6888L150.552 87.0299L150.787 87.1978L151.028 87.3439L152.008 87.9286C152.676 88.2824 153.37 88.5865 154.084 88.8382C154.442 88.9738 154.807 89.0877 155.179 89.1793C155.546 89.2713 155.908 89.3688 156.274 89.4446L157.37 89.6178L157.649 89.6557H157.923L158.47 89.6882L159.018 89.7207C159.204 89.7207 159.391 89.7207 159.566 89.7207C159.933 89.7207 160.3 89.7207 160.661 89.6665L161.756 89.5204C161.941 89.4993 162.124 89.4668 162.304 89.4229L162.852 89.2984L163.399 89.1793C163.569 89.1306 163.739 89.0656 163.909 89.0114C164.248 88.8978 164.588 88.7949 164.916 88.6649C165.567 88.4016 166.201 88.0959 166.811 87.75L167.26 87.4901C167.412 87.4076 167.558 87.3154 167.698 87.214L168.536 86.6185C168.809 86.4201 169.069 86.2049 169.314 85.9742L169.692 85.6439C169.82 85.5368 169.941 85.421 170.053 85.2974C171.892 83.4606 173.101 81.099 173.509 78.5462L173.574 78.1022C173.601 77.9556 173.618 77.8072 173.624 77.6583L173.673 76.7758C173.673 76.4889 173.673 76.2019 173.646 75.915V75.4927C173.646 75.3519 173.607 75.2112 173.591 75.0758C173.552 74.7997 173.514 74.5344 173.47 74.2529C173.427 73.9714 173.344 73.7115 173.279 73.4625C173.246 73.3325 173.218 73.2026 173.18 73.0781C173.142 72.9535 173.098 72.829 173.054 72.7045L172.797 71.9736C172.693 71.7408 172.583 71.5134 172.479 71.286C172.383 71.0603 172.272 70.8414 172.145 70.6309C171.919 70.2186 171.666 69.8208 171.389 69.4399L170.984 68.8985C170.852 68.7258 170.709 68.5613 170.557 68.4058C170.287 68.0872 169.994 67.7886 169.681 67.5125C168.474 66.4111 167.016 65.6143 165.431 65.1899C163.896 64.7845 162.288 64.7253 160.727 65.0166C159.225 65.3037 157.808 65.9218 156.581 66.8249L156.138 67.1552C155.995 67.2743 155.864 67.4042 155.727 67.5233L155.322 67.8969L154.949 68.3137L154.763 68.5249C154.703 68.5953 154.653 68.6711 154.593 68.7469L154.27 69.1962C154.172 69.3532 154.084 69.5157 153.991 69.6727C153.894 69.8274 153.808 69.9884 153.733 70.1545C153.657 70.3223 153.586 70.4902 153.509 70.6526C153.432 70.815 153.388 70.9937 153.328 71.1615C153.218 71.4987 153.128 71.8422 153.06 72.1902C152.931 72.8717 152.889 73.5664 152.934 74.2583C152.972 74.9274 153.094 75.5892 153.295 76.229C153.396 76.5396 153.513 76.845 153.646 77.144C153.78 77.4361 153.932 77.72 154.1 77.994L154.352 78.3946C154.44 78.5299 154.544 78.6491 154.637 78.7736L154.927 79.1363C155.031 79.25 155.141 79.3583 155.245 79.4666C155.457 79.6924 155.686 79.9023 155.929 80.0946C156.044 80.1975 156.176 80.2787 156.302 80.3707C156.428 80.4628 156.554 80.5494 156.685 80.6198C157.687 81.2174 158.829 81.5476 159.998 81.578C161.043 81.6074 162.079 81.3903 163.021 80.9446C163.847 80.5601 164.581 80.0065 165.174 79.3204C165.7 78.7124 166.075 77.9912 166.269 77.2144C166.422 76.5792 166.446 75.9205 166.34 75.2761C166.253 74.7753 166.087 74.2911 165.847 73.8414C165.614 73.5285 165.338 73.2496 165.026 73.0131L164.741 72.7586C164.662 72.7048 164.58 72.6559 164.495 72.6125C164.363 72.5421 164.275 72.5312 164.237 72.5691C164.199 72.607 164.204 72.6991 164.237 72.8344C164.267 72.9142 164.301 72.992 164.341 73.0672C164.374 73.1593 164.423 73.2676 164.473 73.3812C164.593 73.6605 164.692 73.9482 164.768 74.2421C164.859 74.6271 164.901 75.0217 164.894 75.4169C164.886 75.9302 164.773 76.4365 164.563 76.9061C164.354 77.3757 164.051 77.799 163.673 78.151C163.195 78.5817 162.637 78.9164 162.03 79.1363C161.364 79.3738 160.653 79.4571 159.949 79.38C159.371 79.324 158.81 79.1549 158.298 78.8826C157.787 78.6103 157.335 78.2401 156.97 77.7936L156.811 77.5608C156.745 77.4742 156.691 77.3822 156.63 77.2956C156.564 77.2114 156.504 77.1228 156.45 77.0303L156.296 76.7487C156.19 76.5584 156.097 76.3613 156.017 76.1586C155.935 75.9529 155.88 75.7417 155.814 75.5306C155.701 75.0955 155.642 74.6482 155.639 74.1988C155.628 73.7401 155.674 73.2819 155.776 72.8344C155.832 72.6086 155.902 72.3862 155.984 72.1685C156.028 72.0602 156.061 71.9465 156.11 71.8437L156.269 71.5243C156.322 71.4185 156.38 71.3155 156.444 71.2156C156.51 71.1182 156.57 71.0153 156.636 70.9125L156.86 70.6309C156.894 70.5817 156.93 70.5347 156.97 70.4902L157.096 70.3548L157.348 70.0895L157.638 69.8405L157.934 69.586L158.251 69.3641C159.125 68.7548 160.123 68.3426 161.176 68.1567C162.27 67.9724 163.392 68.0278 164.462 68.3192C165.551 68.6251 166.551 69.1817 167.381 69.9434C168.372 70.8672 169.156 71.9869 169.681 73.2297L169.878 73.7711L169.976 74.0472C170.009 74.1446 170.026 74.2421 170.053 74.3395C170.102 74.529 170.152 74.7293 170.206 74.9242C170.261 75.1191 170.267 75.3303 170.299 75.536L170.349 75.85V76.1694C170.349 76.3806 170.382 76.5972 170.382 76.8137C170.382 77.0303 170.382 77.2523 170.354 77.4742C170.354 77.5869 170.343 77.6993 170.321 77.8099C170.321 77.9236 170.294 78.0319 170.278 78.1456C170.153 79.0851 169.878 79.999 169.462 80.8526C169.029 81.7577 168.455 82.5892 167.758 83.3159C167.675 83.4172 167.582 83.5097 167.479 83.592L167.178 83.8681C166.983 84.0613 166.777 84.2421 166.559 84.4095L165.896 84.9022C165.788 84.9873 165.673 85.0633 165.551 85.1296L165.19 85.3462C164.704 85.6392 164.199 85.8996 163.679 86.1258C163.416 86.2341 163.131 86.3207 162.868 86.4236C162.731 86.4669 162.594 86.5264 162.457 86.5643L162.03 86.6726L161.608 86.7809C161.467 86.8242 161.322 86.8568 161.176 86.8783L160.294 87.0137C159.998 87.057 159.697 87.057 159.396 87.0787H158.947H158.492H158.038H157.808L157.583 87.0516L156.669 86.9325C156.368 86.8783 156.066 86.8025 155.765 86.7376C155.462 86.6724 155.163 86.5856 154.872 86.4777C154.278 86.2829 153.698 86.0477 153.136 85.7739L152.315 85.3083L152.107 85.1946L151.915 85.0592L151.526 84.7831L151.138 84.5124C151.006 84.4204 150.897 84.3067 150.771 84.2038C150.535 83.9927 150.289 83.7924 150.053 83.5758C149.584 83.1214 149.143 82.6386 148.733 82.1303L148.405 81.7134C148.783 81.066 149.117 80.395 149.407 79.7048C149.7 79.0148 149.951 78.3079 150.157 77.5879C151.177 73.9975 151.048 70.1835 149.79 66.6679C149.343 65.4202 148.757 64.2255 148.043 63.1055C150.087 60.2572 152.857 57.995 156.072 56.5491C157.132 56.062 158.231 55.6636 159.358 55.3581C160.436 55.0755 161.534 54.8728 162.643 54.7517C164.667 54.544 166.71 54.6224 168.711 54.9845C170.389 55.2825 172.024 55.7806 173.58 56.4679C174.769 56.9939 175.909 57.6225 176.986 58.3466C178.76 59.5647 179.615 60.4364 179.664 60.3877C179.498 60.1436 179.303 59.92 179.084 59.7217C178.491 59.1295 177.862 58.5744 177.2 58.0596C176.147 57.2519 175.02 56.5449 173.832 55.9482C171.155 54.6074 168.225 53.8312 165.228 53.6689C166.252 53.6364 167.337 53.6202 168.481 53.6093H170.535L172.687 53.7718C175.903 54.1323 179.068 54.8478 182.123 55.9049C185.409 56.9877 188.864 58.4603 192.528 60.0466C196.369 61.7776 200.295 63.3171 204.291 64.6593C208.651 66.0379 213.13 67.0201 217.67 67.5937C222.223 68.1855 226.825 68.3161 231.405 67.9835C231.712 67.9835 232.018 67.9348 232.32 67.9023H233.108L234.855 67.8427C236.457 67.746 238.053 67.5652 239.636 67.3013C241.482 66.9819 243.585 66.5488 245.857 65.9262C248.13 65.3036 250.6 64.5619 253.217 63.7227C255.835 62.8835 258.612 61.9848 261.542 61.1727C262.275 60.967 263.02 60.7829 263.771 60.5826C264.521 60.3822 265.282 60.2361 266.049 60.0412C267.588 59.7104 269.149 59.4861 270.72 59.3698L271.317 59.3265H271.908C272.308 59.3265 272.708 59.2994 273.108 59.3265L274.302 59.3861C274.5 59.3922 274.698 59.4121 274.893 59.4456L275.49 59.516C277.073 59.7232 278.62 60.1478 280.085 60.7775C281.534 61.4285 282.883 62.2778 284.093 63.3004C285.794 64.7802 287.008 66.7301 287.576 68.8985C287.896 69.962 288.033 71.071 287.982 72.1793C287.879 73.5484 287.635 74.9035 287.253 76.2236C286.448 79.2708 284.811 82.0407 282.522 84.2309C279.701 86.7917 275.95 87.8529 272.177 87.7283C269.3 87.5812 266.464 86.9912 263.771 85.9796C264.655 86.8921 265.661 87.6808 266.761 88.3239C267.686 88.8274 269.745 90.3758 272.62 91.1337C275.966 92.0108 279.263 92.1462 281.147 91.843L281.864 91.7239L282.598 91.5506C282.845 91.4856 283.102 91.4477 283.354 91.3611L284.126 91.1175C284.258 91.0688 284.395 91.0363 284.521 90.9821L284.915 90.8251L285.714 90.4949L286.503 90.078L286.903 89.8669L287.177 89.6882C288.767 88.8405 290.107 87.5978 291.065 86.0825C291.218 85.8713 291.372 85.6602 291.508 85.4328C291.645 85.2054 291.903 84.8481 292.056 84.5341L292.571 83.5596C293.222 82.1715 293.653 80.6923 293.847 79.1742C294.053 77.5748 294.031 75.9545 293.781 74.3612ZM148.005 67.2255C148.812 69.7376 148.985 72.4067 148.509 75C148.391 75.6476 148.234 76.2876 148.038 76.9166C147.836 77.5435 147.596 78.1582 147.321 78.7573C147.222 78.9793 147.112 79.1959 147.003 79.4178C146.888 79.1959 146.778 78.9793 146.68 78.7573C146.404 78.1582 146.165 77.5435 145.962 76.9166C145.767 76.2876 145.61 75.6476 145.491 75C145.015 72.4067 145.188 69.7376 145.995 67.2255C146.259 66.3932 146.597 65.5853 147.003 64.8109C147.405 65.5865 147.74 66.3942 148.005 67.2255Z" fill="url(#paint40_linear_3248_14958)"/>
<path d="M281.574 76.2725C281.462 76.5656 281.462 76.8891 281.574 77.1821C281.692 77.4845 281.918 77.7333 282.21 77.8805C282.358 77.9515 282.521 77.9883 282.686 77.9883C282.851 77.9883 283.014 77.9515 283.163 77.8805C283.492 77.7304 283.749 77.459 283.879 77.1243C284.009 76.7895 284.001 76.4179 283.858 76.0885C283.792 75.9393 283.693 75.8068 283.567 75.7009C283.442 75.595 283.295 75.5183 283.135 75.4767C282.824 75.3926 282.493 75.4245 282.204 75.5662C281.915 75.708 281.689 75.9497 281.569 76.2455L281.574 76.2725Z" fill="url(#paint41_linear_3248_14958)"/>
<path d="M282.506 73.6629C282.464 73.9245 282.52 74.1923 282.665 74.4155C282.812 74.6445 283.04 74.8107 283.305 74.8811C283.439 74.9125 283.578 74.9153 283.713 74.8892C283.849 74.863 283.976 74.8086 284.088 74.7295C284.209 74.6459 284.312 74.539 284.39 74.4153C284.468 74.2916 284.52 74.1535 284.543 74.0094C284.573 73.8721 284.574 73.7302 284.546 73.5924C284.518 73.4547 284.462 73.3241 284.381 73.2088C284.3 73.0935 284.195 72.996 284.074 72.9223C283.953 72.8486 283.818 72.8003 283.678 72.7804C283.406 72.7571 283.136 72.8346 282.919 72.9978C282.702 73.161 282.555 73.3981 282.506 73.6629Z" fill="url(#paint42_linear_3248_14958)"/>
<path d="M282.895 71.2537C282.893 71.4826 282.979 71.7038 283.134 71.874C283.288 72.0442 283.502 72.1511 283.732 72.174C283.964 72.1609 284.182 72.0618 284.343 71.8964C284.504 71.731 284.596 71.5116 284.6 71.2823C284.604 71.0529 284.52 70.8304 284.365 70.6595C284.211 70.4885 283.996 70.3817 283.765 70.3604C283.534 70.3751 283.316 70.4749 283.155 70.6402C282.994 70.8054 282.901 71.0242 282.895 71.2537Z" fill="url(#paint43_linear_3248_14958)"/>
<path d="M283.557 68.3946C283.465 68.406 283.377 68.4351 283.297 68.4801C283.217 68.5252 283.147 68.5854 283.091 68.6573C282.977 68.8025 282.926 68.9865 282.949 69.1688C282.972 69.3512 283.068 69.517 283.215 69.6297C283.361 69.7424 283.548 69.7928 283.732 69.7698C283.823 69.7606 283.912 69.7331 283.992 69.6889C284.072 69.6447 284.142 69.5848 284.198 69.5128C284.254 69.4408 284.295 69.3582 284.317 69.2702C284.34 69.1822 284.344 69.0906 284.329 69.001C284.32 68.9104 284.293 68.8225 284.249 68.7425C284.205 68.6625 284.145 68.5921 284.073 68.5355C284.001 68.4789 283.918 68.4372 283.83 68.413C283.741 68.3888 283.648 68.3826 283.557 68.3946Z" fill="url(#paint44_linear_3248_14958)"/>
<path d="M283.135 66.7656C283.017 66.8198 282.922 66.914 282.868 67.0311C282.814 67.1483 282.804 67.2807 282.839 67.4047C282.875 67.5287 282.954 67.636 283.063 67.7074C283.171 67.7788 283.302 67.8096 283.431 67.7942C283.549 67.74 283.644 67.6458 283.699 67.5287C283.753 67.4115 283.763 67.2791 283.728 67.1551C283.692 67.0312 283.613 66.9238 283.504 66.8524C283.396 66.781 283.265 66.7502 283.135 66.7656Z" fill="url(#paint45_linear_3248_14958)"/>
<path d="M281.126 78.3515C280.868 78.4096 280.641 78.5576 280.485 78.7684C280.339 78.9809 280.276 79.239 280.31 79.4939C280.336 79.7624 280.463 80.0114 280.665 80.1923C280.769 80.2822 280.892 80.3487 281.024 80.3871C281.156 80.4254 281.296 80.4347 281.432 80.4143C281.732 80.36 281.998 80.192 282.174 79.9462C282.35 79.7003 282.422 79.3961 282.374 79.0987C282.349 78.9642 282.294 78.8368 282.214 78.7255C282.133 78.6142 282.029 78.5217 281.909 78.4544C281.67 78.325 281.39 78.2883 281.126 78.3515Z" fill="url(#paint46_linear_3248_14958)"/>
<path d="M279.006 80.5551C278.834 80.6976 278.718 80.8963 278.68 81.1155C278.642 81.3347 278.684 81.5602 278.798 81.7516C278.856 81.85 278.935 81.9346 279.03 81.9992C279.124 82.0638 279.232 82.1068 279.346 82.1252C279.475 82.141 279.606 82.1309 279.731 82.0955C279.856 82.0602 279.973 82.0003 280.074 81.9194C280.175 81.8491 280.26 81.7584 280.323 81.6532C280.385 81.5481 280.425 81.431 280.438 81.3096C280.452 81.1883 280.439 81.0655 280.401 80.9494C280.363 80.8333 280.3 80.7266 280.217 80.6363C280.056 80.485 279.848 80.3939 279.626 80.3791C279.405 80.3643 279.186 80.4265 279.006 80.5551Z" fill="url(#paint47_linear_3248_14958)"/>
<path d="M277.291 82.932C277.467 83.0024 277.663 83.0024 277.839 82.932C277.932 82.9006 278.017 82.8501 278.089 82.7838C278.16 82.7176 278.217 82.6371 278.255 82.5476C278.293 82.467 278.312 82.3793 278.312 82.2904C278.312 82.2016 278.293 82.1139 278.255 82.0333C278.176 81.8794 278.042 81.7597 277.88 81.6968C277.717 81.6339 277.537 81.6323 277.373 81.6922C277.214 81.7582 277.083 81.8784 277.004 82.0312C276.926 82.1841 276.905 82.3594 276.946 82.5259C276.97 82.6146 277.013 82.6969 277.073 82.7671C277.132 82.8373 277.207 82.8936 277.291 82.932Z" fill="url(#paint48_linear_3248_14958)"/>
<path d="M276.361 82.6718C276.322 82.5521 276.243 82.4493 276.136 82.3812C276.029 82.3131 275.901 82.2839 275.775 82.2986C275.649 82.3134 275.531 82.3711 275.444 82.4619C275.356 82.5527 275.302 82.671 275.293 82.7964C275.332 82.9161 275.411 83.0189 275.518 83.087C275.625 83.1551 275.753 83.1843 275.879 83.1695C276.005 83.1548 276.122 83.0971 276.21 83.0063C276.298 82.9155 276.351 82.7972 276.361 82.6718Z" fill="url(#paint49_linear_3248_14958)"/>
<path d="M272.506 35.1583C272.166 35.0369 271.791 35.0522 271.462 35.201C271.133 35.3499 270.877 35.6203 270.748 35.9542C270.691 36.1077 270.67 36.2715 270.684 36.4341C270.698 36.5968 270.748 36.7545 270.83 36.8962C270.996 37.1776 271.264 37.3864 271.58 37.4809C271.882 37.5753 272.208 37.5541 272.495 37.4214C272.784 37.2957 273.013 37.0623 273.13 36.7717C273.265 36.4765 273.281 36.1413 273.174 35.8351C273.121 35.6796 273.034 35.538 272.918 35.4208C272.803 35.3036 272.661 35.2138 272.506 35.1583Z" fill="url(#paint50_linear_3248_14958)"/>
<path d="M269.625 36.7937C269.48 36.77 269.332 36.7756 269.189 36.81C269.046 36.8444 268.911 36.907 268.793 36.994C268.674 37.0712 268.572 37.172 268.495 37.29C268.417 37.408 268.365 37.5406 268.342 37.6795C268.319 37.8184 268.325 37.9606 268.36 38.097C268.395 38.2334 268.459 38.3611 268.547 38.472C268.68 38.6185 268.852 38.7261 269.042 38.7833C269.233 38.8405 269.436 38.8452 269.63 38.7967C269.823 38.7482 269.999 38.6485 270.139 38.5083C270.279 38.368 270.378 38.1926 270.425 38.001C270.484 37.7351 270.434 37.4572 270.288 37.2268C270.216 37.1112 270.12 37.0126 270.005 36.9378C269.891 36.863 269.761 36.8138 269.625 36.7937Z" fill="url(#paint51_linear_3248_14958)"/>
<path d="M267.981 40.1072C268.146 39.946 268.243 39.7288 268.252 39.4996C268.261 39.2704 268.182 39.0463 268.03 38.8728C267.86 38.7019 267.627 38.6051 267.385 38.6035C267.142 38.602 266.908 38.6959 266.735 38.8647C266.562 39.0334 266.464 39.2631 266.463 39.5032C266.461 39.7433 266.556 39.9742 266.727 40.1451C266.903 40.2956 267.129 40.3753 267.362 40.3683C267.594 40.3612 267.815 40.268 267.981 40.1072Z" fill="url(#paint52_linear_3248_14958)"/>
<path d="M266.459 41.531C266.568 41.3914 266.619 41.2159 266.6 41.0406C266.582 40.8652 266.496 40.7036 266.361 40.589C266.288 40.5327 266.205 40.4915 266.116 40.468C266.027 40.4445 265.934 40.4392 265.843 40.4524C265.752 40.4655 265.664 40.4969 265.586 40.5446C265.507 40.5923 265.439 40.6553 265.386 40.7298C265.328 40.8004 265.285 40.8821 265.26 40.9698C265.235 41.0576 265.228 41.1494 265.24 41.2398C265.253 41.3301 265.284 41.417 265.331 41.495C265.379 41.5731 265.442 41.6406 265.518 41.6934C265.666 41.7906 265.846 41.8278 266.021 41.7976C266.196 41.7674 266.353 41.672 266.459 41.531Z" fill="url(#paint53_linear_3248_14958)"/>
<path d="M265.177 42.2132C265.056 42.1731 264.923 42.1767 264.804 42.2234C264.684 42.27 264.585 42.3568 264.523 42.4685C264.462 42.5801 264.442 42.7096 264.468 42.8342C264.493 42.9587 264.562 43.0705 264.663 43.1498C264.785 43.19 264.917 43.1864 265.037 43.1397C265.156 43.093 265.255 43.0063 265.317 42.8946C265.378 42.7829 265.398 42.6535 265.372 42.5289C265.347 42.4043 265.278 42.2926 265.177 42.2132Z" fill="url(#paint54_linear_3248_14958)"/>
<path d="M275.522 34.5625C275.399 34.4766 275.259 34.4169 275.111 34.387C274.963 34.3572 274.81 34.358 274.663 34.3893C274.514 34.4124 274.371 34.4656 274.244 34.5458C274.117 34.6259 274.007 34.7311 273.923 34.8549C273.847 34.9685 273.797 35.097 273.777 35.2316C273.756 35.3662 273.765 35.5036 273.803 35.6345C273.882 35.8931 274.056 36.1133 274.29 36.2517C274.515 36.3861 274.781 36.436 275.04 36.3924C275.296 36.3427 275.524 36.2021 275.681 35.9972C275.851 35.7859 275.935 35.5194 275.917 35.2501C275.908 35.1135 275.867 34.9808 275.799 34.8617C275.731 34.7427 275.636 34.6404 275.522 34.5625Z" fill="url(#paint55_linear_3248_14958)"/>
<path d="M277.543 34.4062C277.421 34.386 277.295 34.392 277.176 34.4238C277.056 34.4556 276.945 34.5124 276.849 34.5905C276.754 34.6685 276.676 34.7659 276.622 34.8761C276.568 34.9863 276.538 35.1067 276.535 35.2292C276.539 35.4525 276.624 35.667 276.775 35.8331C276.926 35.9993 277.132 36.1059 277.357 36.1333C277.581 36.15 277.805 36.0873 277.987 35.9565C278.17 35.8256 278.3 35.6351 278.353 35.4187C278.382 35.3059 278.383 35.1884 278.359 35.0748C278.334 34.9613 278.283 34.8549 278.211 34.7636C278.129 34.6633 278.028 34.5801 277.913 34.5187C277.798 34.4574 277.673 34.4192 277.543 34.4062Z" fill="url(#paint56_linear_3248_14958)"/>
<path d="M279.854 35.2075C279.679 35.1365 279.482 35.1365 279.307 35.2075C279.224 35.2412 279.149 35.2926 279.088 35.3582C279.028 35.4237 278.983 35.5017 278.956 35.5865C278.905 35.7551 278.919 35.9363 278.994 36.0954C279.068 36.2469 279.192 36.369 279.345 36.4419C279.506 36.5013 279.683 36.5013 279.843 36.4419C280.013 36.3898 280.156 36.2756 280.243 36.1225C280.286 36.0444 280.312 35.9581 280.318 35.8694C280.325 35.7808 280.312 35.6917 280.281 35.6082C280.243 35.5155 280.185 35.4319 280.111 35.3629C280.037 35.2939 279.95 35.241 279.854 35.2075Z" fill="url(#paint57_linear_3248_14958)"/>
<path d="M280.747 36.4469C280.688 36.5596 280.671 36.6893 280.699 36.8131C280.727 36.937 280.798 37.0472 280.899 37.1246C281.001 37.202 281.127 37.2416 281.255 37.2364C281.384 37.2313 281.506 37.1818 281.601 37.0966C281.66 36.9839 281.677 36.8543 281.649 36.7304C281.621 36.6065 281.55 36.4963 281.448 36.4189C281.347 36.3415 281.221 36.302 281.092 36.3071C280.964 36.3122 280.842 36.3617 280.747 36.4469Z" fill="url(#paint58_linear_3248_14958)"/>
<path d="M184.347 69.0229C183.898 68.3273 183.324 67.7183 182.655 67.2254C182.45 67.0694 182.228 66.9385 181.992 66.8356C181.822 66.7598 181.713 66.7382 181.669 66.7761C181.625 66.814 181.62 66.9385 181.669 67.1172C181.718 67.2958 181.767 67.5232 181.828 67.8047C181.999 68.4681 182.105 69.1461 182.145 69.8296C182.184 70.5311 182.136 71.2347 182.003 71.9248C181.882 72.5312 181.729 73.0076 181.663 73.3108C181.63 73.4624 181.62 73.6085 181.598 73.7547C181.576 73.9009 181.598 74.0471 181.598 74.1878C181.598 74.3328 181.609 74.4776 181.63 74.621C181.64 74.763 181.66 74.9042 181.691 75.0433C181.751 75.3153 181.844 75.579 181.97 75.8283C182.1 76.0727 182.288 76.2825 182.518 76.4401C182.747 76.5967 183.023 76.6712 183.301 76.6512C183.634 76.6309 183.955 76.5183 184.226 76.3264C184.976 75.7828 185.482 74.9705 185.634 74.0633C185.753 73.2942 185.723 72.5097 185.546 71.7515C185.322 70.776 184.915 69.8505 184.347 69.0229Z" fill="url(#paint59_linear_3248_14958)"/>
<path d="M193.558 67.3665C192.807 66.7867 191.966 66.3331 191.066 66.0238C190.568 65.8451 189.741 65.6232 188.804 65.3037C187.793 64.9679 186.815 64.544 185.88 64.0369C185.027 63.5662 184.217 63.0227 183.459 62.4127C183.2 62.1893 182.92 61.9917 182.621 61.8225C182.391 61.7143 182.255 61.6764 182.216 61.7197C182.178 61.763 182.216 61.9146 182.293 62.1257C182.37 62.3369 182.501 62.6671 182.627 63.0136C183.047 64.0242 183.619 64.966 184.325 65.8072C185.145 66.7901 186.097 67.6572 187.156 68.3843C187.937 68.9423 188.785 69.4024 189.681 69.7541C190.701 70.1517 191.812 70.2714 192.895 70.1005C193.755 69.9381 194.325 69.5321 194.434 69.0177C194.544 68.5034 194.182 67.8862 193.558 67.3665Z" fill="url(#paint60_linear_3248_14958)"/>
</g>
<defs>
<linearGradient id="paint0_linear_3248_14958" x1="157.31" y1="21.6617" x2="157.31" y2="30.0696" gradientUnits="userSpaceOnUse">
<stop stop-color="#D7AF9F"/>
<stop offset="0.5" stop-color="#EEDDD4"/>
<stop offset="1" stop-color="#D7AF9F"/>
</linearGradient>
<linearGradient id="paint1_linear_3248_14958" x1="136.774" y1="21.6613" x2="136.774" y2="30.0693" gradientUnits="userSpaceOnUse">
<stop stop-color="#D7AF9F"/>
<stop offset="0.5" stop-color="#EEDDD4"/>
<stop offset="1" stop-color="#D7AF9F"/>
</linearGradient>
<linearGradient id="paint2_linear_3248_14958" x1="146.949" y1="0.000273778" x2="146.949" y2="45.3046" gradientUnits="userSpaceOnUse">
<stop stop-color="#D7AF9F"/>
<stop offset="0.5" stop-color="#EEDDD4"/>
<stop offset="1" stop-color="#D7AF9F"/>
</linearGradient>
<linearGradient id="paint3_linear_3248_14958" x1="162.797" y1="43.6423" x2="162.797" y2="48.3092" gradientUnits="userSpaceOnUse">
<stop stop-color="#D7AF9F"/>
<stop offset="0.5" stop-color="#EEDDD4"/>
<stop offset="1" stop-color="#D7AF9F"/>
</linearGradient>
<linearGradient id="paint4_linear_3248_14958" x1="162.124" y1="39.6092" x2="162.124" y2="43.0958" gradientUnits="userSpaceOnUse">
<stop stop-color="#D7AF9F"/>
<stop offset="0.5" stop-color="#EEDDD4"/>
<stop offset="1" stop-color="#D7AF9F"/>
</linearGradient>
<linearGradient id="paint5_linear_3248_14958" x1="158.037" y1="38.9921" x2="158.037" y2="42.836" gradientUnits="userSpaceOnUse">
<stop stop-color="#D7AF9F"/>
<stop offset="0.5" stop-color="#EEDDD4"/>
<stop offset="1" stop-color="#D7AF9F"/>
</linearGradient>
<linearGradient id="paint6_linear_3248_14958" x1="168.169" y1="40.3771" x2="168.169" y2="43.9124" gradientUnits="userSpaceOnUse">
<stop stop-color="#D7AF9F"/>
<stop offset="0.5" stop-color="#EEDDD4"/>
<stop offset="1" stop-color="#D7AF9F"/>
</linearGradient>
<linearGradient id="paint7_linear_3248_14958" x1="204" y1="53.9183" x2="204" y2="59.2457" gradientUnits="userSpaceOnUse">
<stop stop-color="#D7AF9F"/>
<stop offset="0.5" stop-color="#EEDDD4"/>
<stop offset="1" stop-color="#D7AF9F"/>
</linearGradient>
<linearGradient id="paint8_linear_3248_14958" x1="205.348" y1="47.957" x2="205.348" y2="49.8303" gradientUnits="userSpaceOnUse">
<stop stop-color="#D7AF9F"/>
<stop offset="0.5" stop-color="#EEDDD4"/>
<stop offset="1" stop-color="#D7AF9F"/>
</linearGradient>
<linearGradient id="paint9_linear_3248_14958" x1="200.95" y1="50.5293" x2="200.95" y2="52.0019" gradientUnits="userSpaceOnUse">
<stop stop-color="#D7AF9F"/>
<stop offset="0.5" stop-color="#EEDDD4"/>
<stop offset="1" stop-color="#D7AF9F"/>
</linearGradient>
<linearGradient id="paint10_linear_3248_14958" x1="207.134" y1="43.6426" x2="207.134" y2="44.8553" gradientUnits="userSpaceOnUse">
<stop stop-color="#D7AF9F"/>
<stop offset="0.5" stop-color="#EEDDD4"/>
<stop offset="1" stop-color="#D7AF9F"/>
</linearGradient>
<linearGradient id="paint11_linear_3248_14958" x1="131.269" y1="43.6422" x2="131.269" y2="48.3091" gradientUnits="userSpaceOnUse">
<stop stop-color="#D7AF9F"/>
<stop offset="0.5" stop-color="#EEDDD4"/>
<stop offset="1" stop-color="#D7AF9F"/>
</linearGradient>
<linearGradient id="paint12_linear_3248_14958" x1="147.03" y1="31.2607" x2="147.03" y2="52.0017" gradientUnits="userSpaceOnUse">
<stop stop-color="#D7AF9F"/>
<stop offset="0.5" stop-color="#EEDDD4"/>
<stop offset="1" stop-color="#D7AF9F"/>
</linearGradient>
<linearGradient id="paint13_linear_3248_14958" x1="131.942" y1="39.6085" x2="131.942" y2="43.0951" gradientUnits="userSpaceOnUse">
<stop stop-color="#D7AF9F"/>
<stop offset="0.5" stop-color="#EEDDD4"/>
<stop offset="1" stop-color="#D7AF9F"/>
</linearGradient>
<linearGradient id="paint14_linear_3248_14958" x1="136.028" y1="38.9913" x2="136.028" y2="42.8352" gradientUnits="userSpaceOnUse">
<stop stop-color="#D7AF9F"/>
<stop offset="0.5" stop-color="#EEDDD4"/>
<stop offset="1" stop-color="#D7AF9F"/>
</linearGradient>
<linearGradient id="paint15_linear_3248_14958" x1="125.891" y1="40.3773" x2="125.891" y2="43.9126" gradientUnits="userSpaceOnUse">
<stop stop-color="#D7AF9F"/>
<stop offset="0.5" stop-color="#EEDDD4"/>
<stop offset="1" stop-color="#D7AF9F"/>
</linearGradient>
<linearGradient id="paint16_linear_3248_14958" x1="90.0646" y1="53.9183" x2="90.0646" y2="59.2457" gradientUnits="userSpaceOnUse">
<stop stop-color="#D7AF9F"/>
<stop offset="0.5" stop-color="#EEDDD4"/>
<stop offset="1" stop-color="#D7AF9F"/>
</linearGradient>
<linearGradient id="paint17_linear_3248_14958" x1="88.717" y1="47.957" x2="88.717" y2="49.8303" gradientUnits="userSpaceOnUse">
<stop stop-color="#D7AF9F"/>
<stop offset="0.5" stop-color="#EEDDD4"/>
<stop offset="1" stop-color="#D7AF9F"/>
</linearGradient>
<linearGradient id="paint18_linear_3248_14958" x1="93.1159" y1="50.5293" x2="93.1159" y2="52.0019" gradientUnits="userSpaceOnUse">
<stop stop-color="#D7AF9F"/>
<stop offset="0.5" stop-color="#EEDDD4"/>
<stop offset="1" stop-color="#D7AF9F"/>
</linearGradient>
<linearGradient id="paint19_linear_3248_14958" x1="86.9317" y1="43.6426" x2="86.9317" y2="44.8553" gradientUnits="userSpaceOnUse">
<stop stop-color="#D7AF9F"/>
<stop offset="0.5" stop-color="#EEDDD4"/>
<stop offset="1" stop-color="#D7AF9F"/>
</linearGradient>
<linearGradient id="paint20_linear_3248_14958" x1="11.2647" y1="75.4545" x2="11.2647" y2="77.9991" gradientUnits="userSpaceOnUse">
<stop stop-color="#D7AF9F"/>
<stop offset="0.5" stop-color="#EEDDD4"/>
<stop offset="1" stop-color="#D7AF9F"/>
</linearGradient>
<linearGradient id="paint21_linear_3248_14958" x1="10.4755" y1="72.7749" x2="10.4755" y2="74.908" gradientUnits="userSpaceOnUse">
<stop stop-color="#D7AF9F"/>
<stop offset="0.5" stop-color="#EEDDD4"/>
<stop offset="1" stop-color="#D7AF9F"/>
</linearGradient>
<linearGradient id="paint22_linear_3248_14958" x1="10.2253" y1="70.3604" x2="10.2253" y2="72.1741" gradientUnits="userSpaceOnUse">
<stop stop-color="#D7AF9F"/>
<stop offset="0.5" stop-color="#EEDDD4"/>
<stop offset="1" stop-color="#D7AF9F"/>
</linearGradient>
<linearGradient id="paint23_linear_3248_14958" x1="10.3389" y1="68.3838" x2="10.3389" y2="69.7752" gradientUnits="userSpaceOnUse">
<stop stop-color="#D7AF9F"/>
<stop offset="0.5" stop-color="#EEDDD4"/>
<stop offset="1" stop-color="#D7AF9F"/>
</linearGradient>
<linearGradient id="paint24_linear_3248_14958" x1="10.7056" y1="66.7437" x2="10.7056" y2="67.8049" gradientUnits="userSpaceOnUse">
<stop stop-color="#D7AF9F"/>
<stop offset="0.5" stop-color="#EEDDD4"/>
<stop offset="1" stop-color="#D7AF9F"/>
</linearGradient>
<linearGradient id="paint25_linear_3248_14958" x1="12.6613" y1="78.324" x2="12.6613" y2="80.4246" gradientUnits="userSpaceOnUse">
<stop stop-color="#D7AF9F"/>
<stop offset="0.5" stop-color="#EEDDD4"/>
<stop offset="1" stop-color="#D7AF9F"/>
</linearGradient>
<linearGradient id="paint26_linear_3248_14958" x1="14.4353" y1="80.365" x2="14.4353" y2="82.1299" gradientUnits="userSpaceOnUse">
<stop stop-color="#D7AF9F"/>
<stop offset="0.5" stop-color="#EEDDD4"/>
<stop offset="1" stop-color="#D7AF9F"/>
</linearGradient>
<linearGradient id="paint27_linear_3248_14958" x1="16.3574" y1="81.6538" x2="16.3574" y2="82.991" gradientUnits="userSpaceOnUse">
<stop stop-color="#D7AF9F"/>
<stop offset="0.5" stop-color="#EEDDD4"/>
<stop offset="1" stop-color="#D7AF9F"/>
</linearGradient>
<linearGradient id="paint28_linear_3248_14958" x1="18.1699" y1="82.2387" x2="18.1699" y2="83.262" gradientUnits="userSpaceOnUse">
<stop stop-color="#D7AF9F"/>
<stop offset="0.5" stop-color="#EEDDD4"/>
<stop offset="1" stop-color="#D7AF9F"/>
</linearGradient>
<linearGradient id="paint29_linear_3248_14958" x1="22.0376" y1="35.0717" x2="22.0376" y2="37.5351" gradientUnits="userSpaceOnUse">
<stop stop-color="#D7AF9F"/>
<stop offset="0.5" stop-color="#EEDDD4"/>
<stop offset="1" stop-color="#D7AF9F"/>
</linearGradient>
<linearGradient id="paint30_linear_3248_14958" x1="24.6336" y1="36.7774" x2="24.6336" y2="38.851" gradientUnits="userSpaceOnUse">
<stop stop-color="#D7AF9F"/>
<stop offset="0.5" stop-color="#EEDDD4"/>
<stop offset="1" stop-color="#D7AF9F"/>
</linearGradient>
<linearGradient id="paint31_linear_3248_14958" x1="26.6212" y1="38.5967" x2="26.6212" y2="40.367" gradientUnits="userSpaceOnUse">
<stop stop-color="#D7AF9F"/>
<stop offset="0.5" stop-color="#EEDDD4"/>
<stop offset="1" stop-color="#D7AF9F"/>
</linearGradient>
<linearGradient id="paint32_linear_3248_14958" x1="28.078" y1="40.443" x2="28.078" y2="41.8073" gradientUnits="userSpaceOnUse">
<stop stop-color="#D7AF9F"/>
<stop offset="0.5" stop-color="#EEDDD4"/>
<stop offset="1" stop-color="#D7AF9F"/>
</linearGradient>
<linearGradient id="paint33_linear_3248_14958" x1="29.091" y1="42.1429" x2="29.091" y2="43.1986" gradientUnits="userSpaceOnUse">
<stop stop-color="#D7AF9F"/>
<stop offset="0.5" stop-color="#EEDDD4"/>
<stop offset="1" stop-color="#D7AF9F"/>
</linearGradient>
<linearGradient id="paint34_linear_3248_14958" x1="19.1571" y1="34.3622" x2="19.1571" y2="36.4087" gradientUnits="userSpaceOnUse">
<stop stop-color="#D7AF9F"/>
<stop offset="0.5" stop-color="#EEDDD4"/>
<stop offset="1" stop-color="#D7AF9F"/>
</linearGradient>
<linearGradient id="paint35_linear_3248_14958" x1="16.544" y1="34.4008" x2="16.544" y2="36.1387" gradientUnits="userSpaceOnUse">
<stop stop-color="#D7AF9F"/>
<stop offset="0.5" stop-color="#EEDDD4"/>
<stop offset="1" stop-color="#D7AF9F"/>
</linearGradient>
<linearGradient id="paint36_linear_3248_14958" x1="14.4026" y1="35.1427" x2="14.4026" y2="36.48" gradientUnits="userSpaceOnUse">
<stop stop-color="#D7AF9F"/>
<stop offset="0.5" stop-color="#EEDDD4"/>
<stop offset="1" stop-color="#D7AF9F"/>
</linearGradient>
<linearGradient id="paint37_linear_3248_14958" x1="12.8097" y1="36.2304" x2="12.8097" y2="37.2698" gradientUnits="userSpaceOnUse">
<stop stop-color="#D7AF9F"/>
<stop offset="0.5" stop-color="#EEDDD4"/>
<stop offset="1" stop-color="#D7AF9F"/>
</linearGradient>
<linearGradient id="paint38_linear_3248_14958" x1="110.388" y1="66.7543" x2="110.388" y2="76.6565" gradientUnits="userSpaceOnUse">
<stop stop-color="#D7AF9F"/>
<stop offset="0.5" stop-color="#EEDDD4"/>
<stop offset="1" stop-color="#D7AF9F"/>
</linearGradient>
<linearGradient id="paint39_linear_3248_14958" x1="105.672" y1="61.7036" x2="105.672" y2="70.1819" gradientUnits="userSpaceOnUse">
<stop stop-color="#D7AF9F"/>
<stop offset="0.5" stop-color="#EEDDD4"/>
<stop offset="1" stop-color="#D7AF9F"/>
</linearGradient>
<linearGradient id="paint40_linear_3248_14958" x1="147.003" y1="18.8407" x2="147.003" y2="92" gradientUnits="userSpaceOnUse">
<stop stop-color="#D7AF9F"/>
<stop offset="0.5" stop-color="#EEDDD4"/>
<stop offset="1" stop-color="#D7AF9F"/>
</linearGradient>
<linearGradient id="paint41_linear_3248_14958" x1="282.735" y1="75.455" x2="282.735" y2="77.9996" gradientUnits="userSpaceOnUse">
<stop stop-color="#D7AF9F"/>
<stop offset="0.5" stop-color="#EEDDD4"/>
<stop offset="1" stop-color="#D7AF9F"/>
</linearGradient>
<linearGradient id="paint42_linear_3248_14958" x1="283.524" y1="72.775" x2="283.524" y2="74.9081" gradientUnits="userSpaceOnUse">
<stop stop-color="#D7AF9F"/>
<stop offset="0.5" stop-color="#EEDDD4"/>
<stop offset="1" stop-color="#D7AF9F"/>
</linearGradient>
<linearGradient id="paint43_linear_3248_14958" x1="283.776" y1="70.3604" x2="283.776" y2="72.174" gradientUnits="userSpaceOnUse">
<stop stop-color="#D7AF9F"/>
<stop offset="0.5" stop-color="#EEDDD4"/>
<stop offset="1" stop-color="#D7AF9F"/>
</linearGradient>
<linearGradient id="paint44_linear_3248_14958" x1="283.661" y1="68.3838" x2="283.661" y2="69.7752" gradientUnits="userSpaceOnUse">
<stop stop-color="#D7AF9F"/>
<stop offset="0.5" stop-color="#EEDDD4"/>
<stop offset="1" stop-color="#D7AF9F"/>
</linearGradient>
<linearGradient id="paint45_linear_3248_14958" x1="283.294" y1="66.7439" x2="283.294" y2="67.8051" gradientUnits="userSpaceOnUse">
<stop stop-color="#D7AF9F"/>
<stop offset="0.5" stop-color="#EEDDD4"/>
<stop offset="1" stop-color="#D7AF9F"/>
</linearGradient>
<linearGradient id="paint46_linear_3248_14958" x1="281.339" y1="78.3245" x2="281.339" y2="80.4251" gradientUnits="userSpaceOnUse">
<stop stop-color="#D7AF9F"/>
<stop offset="0.5" stop-color="#EEDDD4"/>
<stop offset="1" stop-color="#D7AF9F"/>
</linearGradient>
<linearGradient id="paint47_linear_3248_14958" x1="279.565" y1="80.3656" x2="279.565" y2="82.1306" gradientUnits="userSpaceOnUse">
<stop stop-color="#D7AF9F"/>
<stop offset="0.5" stop-color="#EEDDD4"/>
<stop offset="1" stop-color="#D7AF9F"/>
</linearGradient>
<linearGradient id="paint48_linear_3248_14958" x1="277.642" y1="81.6543" x2="277.642" y2="82.9915" gradientUnits="userSpaceOnUse">
<stop stop-color="#D7AF9F"/>
<stop offset="0.5" stop-color="#EEDDD4"/>
<stop offset="1" stop-color="#D7AF9F"/>
</linearGradient>
<linearGradient id="paint49_linear_3248_14958" x1="275.83" y1="82.2387" x2="275.83" y2="83.262" gradientUnits="userSpaceOnUse">
<stop stop-color="#D7AF9F"/>
<stop offset="0.5" stop-color="#EEDDD4"/>
<stop offset="1" stop-color="#D7AF9F"/>
</linearGradient>
<linearGradient id="paint50_linear_3248_14958" x1="271.963" y1="35.0717" x2="271.963" y2="37.5351" gradientUnits="userSpaceOnUse">
<stop stop-color="#D7AF9F"/>
<stop offset="0.5" stop-color="#EEDDD4"/>
<stop offset="1" stop-color="#D7AF9F"/>
</linearGradient>
<linearGradient id="paint51_linear_3248_14958" x1="269.368" y1="36.7774" x2="269.368" y2="38.851" gradientUnits="userSpaceOnUse">
<stop stop-color="#D7AF9F"/>
<stop offset="0.5" stop-color="#EEDDD4"/>
<stop offset="1" stop-color="#D7AF9F"/>
</linearGradient>
<linearGradient id="paint52_linear_3248_14958" x1="267.379" y1="38.5967" x2="267.379" y2="40.367" gradientUnits="userSpaceOnUse">
<stop stop-color="#D7AF9F"/>
<stop offset="0.5" stop-color="#EEDDD4"/>
<stop offset="1" stop-color="#D7AF9F"/>
</linearGradient>
<linearGradient id="paint53_linear_3248_14958" x1="265.923" y1="40.4428" x2="265.923" y2="41.8071" gradientUnits="userSpaceOnUse">
<stop stop-color="#D7AF9F"/>
<stop offset="0.5" stop-color="#EEDDD4"/>
<stop offset="1" stop-color="#D7AF9F"/>
</linearGradient>
<linearGradient id="paint54_linear_3248_14958" x1="264.909" y1="42.1428" x2="264.909" y2="43.1986" gradientUnits="userSpaceOnUse">
<stop stop-color="#D7AF9F"/>
<stop offset="0.5" stop-color="#EEDDD4"/>
<stop offset="1" stop-color="#D7AF9F"/>
</linearGradient>
<linearGradient id="paint55_linear_3248_14958" x1="274.843" y1="34.3622" x2="274.843" y2="36.4087" gradientUnits="userSpaceOnUse">
<stop stop-color="#D7AF9F"/>
<stop offset="0.5" stop-color="#EEDDD4"/>
<stop offset="1" stop-color="#D7AF9F"/>
</linearGradient>
<linearGradient id="paint56_linear_3248_14958" x1="277.455" y1="34.4008" x2="277.455" y2="36.1387" gradientUnits="userSpaceOnUse">
<stop stop-color="#D7AF9F"/>
<stop offset="0.5" stop-color="#EEDDD4"/>
<stop offset="1" stop-color="#D7AF9F"/>
</linearGradient>
<linearGradient id="paint57_linear_3248_14958" x1="279.597" y1="35.1426" x2="279.597" y2="36.4798" gradientUnits="userSpaceOnUse">
<stop stop-color="#D7AF9F"/>
<stop offset="0.5" stop-color="#EEDDD4"/>
<stop offset="1" stop-color="#D7AF9F"/>
</linearGradient>
<linearGradient id="paint58_linear_3248_14958" x1="281.19" y1="36.2304" x2="281.19" y2="37.2698" gradientUnits="userSpaceOnUse">
<stop stop-color="#D7AF9F"/>
<stop offset="0.5" stop-color="#EEDDD4"/>
<stop offset="1" stop-color="#D7AF9F"/>
</linearGradient>
<linearGradient id="paint59_linear_3248_14958" x1="183.613" y1="66.7544" x2="183.613" y2="76.6566" gradientUnits="userSpaceOnUse">
<stop stop-color="#D7AF9F"/>
<stop offset="0.5" stop-color="#EEDDD4"/>
<stop offset="1" stop-color="#D7AF9F"/>
</linearGradient>
<linearGradient id="paint60_linear_3248_14958" x1="188.328" y1="61.7034" x2="188.328" y2="70.1818" gradientUnits="userSpaceOnUse">
<stop stop-color="#D7AF9F"/>
<stop offset="0.5" stop-color="#EEDDD4"/>
<stop offset="1" stop-color="#D7AF9F"/>
</linearGradient>
<clipPath id="clip0_3248_14958">
<rect width="294" height="92" fill="white"/>
</clipPath>
</defs>
</svg>
