<svg width="27" height="45" viewBox="0 0 27 45" fill="none" xmlns="http://www.w3.org/2000/svg">
<path d="M21.7812 0.416687C23.099 0.416687 24.3629 0.940179 25.2947 1.872C26.2265 2.80382 26.75 4.06764 26.75 5.38544V39.6146C26.75 40.9324 26.2265 42.1962 25.2947 43.128C24.3629 44.0599 23.099 44.5834 21.7812 44.5834H5.21875C3.90096 44.5834 2.63713 44.0599 1.70531 43.128C0.773492 42.1962 0.25 40.9324 0.25 39.6146V5.38544C0.25 4.06764 0.773492 2.80382 1.70531 1.872C2.63713 0.940179 3.90096 0.416687 5.21875 0.416687H21.7812ZM21.7812 3.72919H5.21875C4.77949 3.72919 4.35821 3.90368 4.0476 4.21429C3.737 4.5249 3.5625 4.94617 3.5625 5.38544V39.6146C3.5625 40.5289 4.3045 41.2709 5.21875 41.2709H21.7812C22.2205 41.2709 22.6418 41.0964 22.9524 40.7858C23.263 40.4751 23.4375 40.0539 23.4375 39.6146V5.38544C23.4375 4.94617 23.263 4.5249 22.9524 4.21429C22.6418 3.90368 22.2205 3.72919 21.7812 3.72919ZM19.6281 25.733C19.9116 26.0109 20.0858 26.3814 20.1191 26.777C20.1523 27.1726 20.0423 27.567 19.8092 27.8884L19.6524 28.0761L14.6837 33.1464C14.4021 33.4336 14.0257 33.6086 13.6246 33.6387C13.2236 33.6688 12.8252 33.5519 12.504 33.3098L12.3185 33.1464L7.34317 28.0761C7.05051 27.7777 6.88148 27.3797 6.86995 26.962C6.85843 26.5442 7.00528 26.1375 7.28104 25.8234C7.5568 25.5094 7.9411 25.3112 8.35686 25.2687C8.77262 25.2261 9.1891 25.3423 9.52279 25.5939L9.70608 25.7573L13.5 29.6219L17.2851 25.7573C17.4374 25.6019 17.6189 25.4781 17.8191 25.3929C18.0194 25.3077 18.2344 25.2628 18.452 25.2608C18.6696 25.2587 18.8855 25.2996 19.0873 25.381C19.2891 25.4624 19.4729 25.5828 19.6281 25.7352V25.733ZM14.6815 11.9552L19.6502 17.0256C19.8112 17.1788 19.9396 17.3629 20.028 17.5668C20.1163 17.7707 20.1627 17.9904 20.1644 18.2126C20.1661 18.4348 20.123 18.6551 20.0378 18.8604C19.9525 19.0656 19.8269 19.2516 19.6682 19.4073C19.5096 19.5629 19.3213 19.6851 19.1145 19.7664C18.9076 19.8478 18.6866 19.8867 18.4644 19.8808C18.2422 19.8749 18.0235 19.8244 17.8213 19.7322C17.6191 19.6401 17.4375 19.5081 17.2873 19.3443L13.5 15.4775L9.70608 19.3421C9.395 19.6383 8.98103 19.802 8.55153 19.7987C8.12202 19.7955 7.71058 19.6255 7.40401 19.3247C7.09745 19.0239 6.91974 18.6157 6.90839 18.1863C6.89703 17.757 7.05293 17.34 7.34317 17.0234L12.3185 11.953C12.4727 11.7961 12.6566 11.6715 12.8594 11.5864C13.0623 11.5013 13.28 11.4575 13.5 11.4575C13.72 11.4575 13.9377 11.5013 14.1406 11.5864C14.3434 11.6715 14.5273 11.7961 14.6815 11.953V11.9552Z" fill="white"/>
</svg>
